<?xml version="1.0" encoding="UTF-8" standalone="no"?>
<svg
   xmlns:dc="http://purl.org/dc/elements/1.1/"
   xmlns:cc="http://creativecommons.org/ns#"
   xmlns:rdf="http://www.w3.org/1999/02/22-rdf-syntax-ns#"
   xmlns:svg="http://www.w3.org/2000/svg"
   xmlns="http://www.w3.org/2000/svg"
   xmlns:sodipodi="http://sodipodi.sourceforge.net/DTD/sodipodi-0.dtd"
   xmlns:inkscape="http://www.inkscape.org/namespaces/inkscape"
   id="svg2"
   height="25.4mm"
   viewBox="0 0 89.999429 90.001083"
   width="25.4mm"
   version="1.1"
   inkscape:version="0.91 r13725"
   sodipodi:docname="arsenal.svg">
  <sodipodi:namedview
     pagecolor="#ffffff"
     bordercolor="#666666"
     borderopacity="1"
     objecttolerance="10"
     gridtolerance="10"
     guidetolerance="10"
     inkscape:pageopacity="0"
     inkscape:pageshadow="2"
     inkscape:window-width="1366"
     inkscape:window-height="747"
     id="namedview3614"
     showgrid="false"
     inkscape:zoom="3.2176312"
     inkscape:cx="66.264039"
     inkscape:cy="38.045019"
     inkscape:window-x="0"
     inkscape:window-y="21"
     inkscape:window-maximized="1"
     inkscape:current-layer="svg2"
     fit-margin-top="0"
     fit-margin-left="0"
     fit-margin-right="0"
     fit-margin-bottom="0"
     showguides="true"
     inkscape:guide-bbox="true" />
  <defs
     id="defs19">/&gt;</defs>
  <metadata
     id="metadata7">
    <rdf:RDF>
      <cc:Work
         rdf:about="">
        <dc:format>image/svg+xml</dc:format>
        <dc:type
           rdf:resource="http://purl.org/dc/dcmitype/StillImage" />
        <dc:title></dc:title>
      </cc:Work>
    </rdf:RDF>
  </metadata>
  <path
     id="rect3457"
     d="m 21.31918,22.847135 c -3.24471,0 -6.01421,1.955361 -7.20453,4.755899 a 3.5227032,3.5227032 0 0 0 -0.62347,-0.05864 3.5227032,3.5227032 0 0 0 -3.5229899,3.522132 3.5227032,3.5227032 0 0 0 3.5229899,3.522989 3.5227032,3.5227032 0 0 0 0.62433,-0.05616 c 1.1906,2.799396 3.95981,4.753401 7.2031,4.753401 l 7.01636,0 a 15.406564,15.406564 0 0 0 -0.0182,0.508713 L 13.62163,59.965575 c -0.76833,1.054599 -0.53764,2.522618 0.51697,3.290948 l 4.73442,3.448628 c 1.0546,0.768329 2.52255,0.537644 3.29095,-0.51696 L 33.10454,51.169084 a 15.406564,15.406564 0 0 0 10.61093,4.246367 15.406564,15.406564 0 0 0 15.40656,-15.405852 15.406564,15.406564 0 0 0 -0.0908,-1.635127 c 2.37328,-1.252746 4.02018,-3.682392 4.15889,-6.52724 l 13.9053,0 c 1.62627,0 2.93581,-1.310329 2.93581,-2.936609 l 0,-3.131545 c 0,-1.62628 -1.30946,-2.934968 -2.93581,-2.934968 l -21.72346,0 -2.15294,0 -31.89984,0 z m 21.7784,6.549646 0,7.374343 a 3.3013659,3.3013659 0 0 0 -1.90934,1.123955 l -6.37597,-3.681535 a 10.638036,10.638036 0 0 1 8.28552,-4.816977 z m 1.26851,0.01071 a 10.638036,10.638036 0 0 1 8.27197,4.814552 l -6.38025,3.684032 a 3.3013659,3.3013659 0 0 0 -1.89115,-1.127236 l 0,-7.37149 z m -10.17924,5.911391 6.38932,3.6881 a 3.3013659,3.3013659 0 0 0 -0.16104,1.005865 3.3013659,3.3013659 0 0 0 0.20894,1.145432 l -6.38554,3.686958 a 10.638036,10.638036 0 0 1 -1.16027,-4.831891 10.638036,10.638036 0 0 1 1.10826,-4.693964 z m 19.07269,0.0099 a 10.638036,10.638036 0 0 1 1.09506,4.684046 10.638036,10.638036 0 0 1 -1.16519,4.811269 L 46.815,41.144277 a 3.3013659,3.3013659 0 0 0 0.20315,-1.131374 3.3013659,3.3013659 0 0 0 -0.1536,-0.991809 l 6.39517,-3.692238 z m -7.1022,6.900775 6.39674,3.693094 a 10.638036,10.638036 0 0 1 -8.18778,4.704667 l 0,-7.377913 a 3.3013659,3.3013659 0 0 0 1.79118,-1.019849 z m -4.87071,0.01156 a 3.3013659,3.3013659 0 0 0 1.81102,1.011643 l 0,7.367209 a 10.638036,10.638036 0 0 1 -8.20776,-4.685758 l 6.39674,-3.69395 z"
     inkscape:connector-curvature="0"
     style="fill:#ff2a2a;stroke:#aa0000;stroke-width:0.50000602" />
  <circle
     style="opacity:1;fill:none;fill-opacity:1;stroke:#aa0000;stroke-width:0.75;stroke-linecap:round;stroke-linejoin:round;stroke-miterlimit:4;stroke-dasharray:none"
     id="path3464"
     cx="44.99971"
     cy="45.000542"
     r="44.625542" />
</svg>
