<?xml version="1.0" encoding="UTF-8" standalone="no"?>
<svg
   xmlns:dc="http://purl.org/dc/elements/1.1/"
   xmlns:cc="http://creativecommons.org/ns#"
   xmlns:rdf="http://www.w3.org/1999/02/22-rdf-syntax-ns#"
   xmlns:svg="http://www.w3.org/2000/svg"
   xmlns="http://www.w3.org/2000/svg"
   xmlns:sodipodi="http://sodipodi.sourceforge.net/DTD/sodipodi-0.dtd"
   xmlns:inkscape="http://www.inkscape.org/namespaces/inkscape"
   id="svg2"
   height="25.4mm"
   viewBox="0 0 89.999429 90.001083"
   width="25.4mm"
   version="1.1"
   inkscape:version="0.91 r13725"
   sodipodi:docname="arsenal.svg">
  <sodipodi:namedview
     pagecolor="#ffffff"
     bordercolor="#666666"
     borderopacity="1"
     objecttolerance="10"
     gridtolerance="10"
     guidetolerance="10"
     inkscape:pageopacity="0"
     inkscape:pageshadow="2"
     inkscape:window-width="1366"
     inkscape:window-height="747"
     id="namedview3614"
     showgrid="false"
     inkscape:zoom="6.1333334"
     inkscape:cx="44.999999"
     inkscape:cy="44.999999"
     inkscape:window-x="0"
     inkscape:window-y="21"
     inkscape:window-maximized="1"
     inkscape:current-layer="svg2"
     fit-margin-top="0"
     fit-margin-left="0"
     fit-margin-right="0"
     fit-margin-bottom="0"
     showguides="true"
     inkscape:guide-bbox="true"
     inkscape:showpageshadow="false" />
  <defs
     id="defs19">/&gt;</defs>
  <metadata
     id="metadata7">
    <rdf:RDF>
      <cc:Work
         rdf:about="">
        <dc:format>image/svg+xml</dc:format>
        <dc:type
           rdf:resource="http://purl.org/dc/dcmitype/StillImage" />
        <dc:title></dc:title>
      </cc:Work>
    </rdf:RDF>
  </metadata>
  <path
     id="rect3457"
     d="m 21.849859,23.343592 c -3.172,0 -5.87943,1.911543 -7.04308,4.649324 a 3.4437631,3.4437631 0 0 0 -0.6095,-0.05733 3.4437631,3.4437631 0 0 0 -3.44404,3.443205 3.4437631,3.4437631 0 0 0 3.44404,3.444042 3.4437631,3.4437631 0 0 0 0.61034,-0.0549 c 1.16392,2.736665 3.87108,4.646883 7.04169,4.646883 l 6.85913,0 a 15.061319,15.061319 0 0 0 -0.0178,0.497313 l -14.36584,19.718116 c -0.75111,1.03097 -0.52559,2.46609 0.50538,3.2172 l 4.62833,3.37135 c 1.03097,0.75111 2.46602,0.5256 3.2172,-0.50537 l 10.69541,-14.68255 a 15.061319,15.061319 0 0 0 10.37315,4.15121 15.061319,15.061319 0 0 0 15.06131,-15.060624 15.061319,15.061319 0 0 0 -0.0888,-1.598486 c 2.32009,-1.224673 3.93009,-3.599873 4.06569,-6.380971 l 13.5937,0 c 1.58982,0 2.87002,-1.280966 2.87002,-2.870803 l 0,-3.06137 c 0,-1.589837 -1.28012,-2.869199 -2.87002,-2.869199 l -21.23666,0 -2.1047,0 -31.185,0 z m 21.29037,6.402875 0,7.209091 a 3.2273857,3.2273857 0 0 0 -1.86655,1.098769 l -6.23309,-3.599036 a 10.399649,10.399649 0 0 1 8.09985,-4.709033 z m 1.24009,0.01047 a 10.399649,10.399649 0 0 1 8.0866,4.706663 l -6.23727,3.601476 a 3.2273857,3.2273857 0 0 0 -1.84878,-1.101975 l 0,-7.206303 z m -9.95114,5.778923 6.24614,3.605453 a 3.2273857,3.2273857 0 0 0 -0.15743,0.983325 3.2273857,3.2273857 0 0 0 0.20426,1.119764 l -6.24245,3.604337 a 10.399649,10.399649 0 0 1 -1.13426,-4.723613 10.399649,10.399649 0 0 1 1.08342,-4.588778 z m 18.64529,0.0097 a 10.399649,10.399649 0 0 1 1.07052,4.579081 10.399649,10.399649 0 0 1 -1.13907,4.703454 l -6.23157,-3.597359 a 3.2273857,3.2273857 0 0 0 0.1986,-1.106021 3.2273857,3.2273857 0 0 0 -0.15016,-0.969584 l 6.25186,-3.609499 z m -6.94304,6.746136 6.25339,3.610335 a 10.399649,10.399649 0 0 1 -8.0043,4.599234 l 0,-7.212575 a 3.2273857,3.2273857 0 0 0 1.75104,-0.996995 z m -4.76157,0.0113 a 3.2273857,3.2273857 0 0 0 1.77044,0.988973 l 0,7.202116 a 10.399649,10.399649 0 0 1 -8.02383,-4.580754 l 6.25339,-3.611172 z"
     inkscape:connector-curvature="0"
     style="fill:#ff2a2a;stroke:#aa0000;stroke-width:0.50000602" />
  <circle
     style="opacity:1;fill:none;fill-opacity:1;stroke:#aa0000;stroke-width:0.75;stroke-linecap:round;stroke-linejoin:round;stroke-miterlimit:4;stroke-dasharray:none"
     id="path3464"
     cx="44.999714"
     cy="45.000542"
     r="43.62553" />
</svg>
