<?xml version="1.0" encoding="UTF-8" standalone="no"?>
<svg
   xmlns:dc="http://purl.org/dc/elements/1.1/"
   xmlns:cc="http://creativecommons.org/ns#"
   xmlns:rdf="http://www.w3.org/1999/02/22-rdf-syntax-ns#"
   xmlns:svg="http://www.w3.org/2000/svg"
   xmlns="http://www.w3.org/2000/svg"
   xmlns:sodipodi="http://sodipodi.sourceforge.net/DTD/sodipodi-0.dtd"
   xmlns:inkscape="http://www.inkscape.org/namespaces/inkscape"
   id="svg2"
   viewBox="0 0 89.99804 90.000533"
   height="25.4mm"
   width="25.4mm"
   version="1.1"
   inkscape:version="0.91 r13725"
   sodipodi:docname="bournemouth.svg">
  <sodipodi:namedview
     pagecolor="#ffffff"
     bordercolor="#666666"
     borderopacity="1"
     objecttolerance="10"
     gridtolerance="10"
     guidetolerance="10"
     inkscape:pageopacity="0"
     inkscape:pageshadow="2"
     inkscape:window-width="1366"
     inkscape:window-height="747"
     id="namedview22"
     showgrid="false"
     inkscape:showpageshadow="false"
     fit-margin-top="0"
     fit-margin-left="0"
     fit-margin-right="0"
     fit-margin-bottom="0"
     inkscape:zoom="6.1333339"
     inkscape:cx="71.08695"
     inkscape:cy="44.999996"
     inkscape:window-x="0"
     inkscape:window-y="21"
     inkscape:window-maximized="1"
     inkscape:current-layer="svg2" />
  <defs
     id="defs4">/&gt;<mask
   maskUnits="userSpaceOnUse"
   id="mask4253">
  <ellipse
     style="opacity:1;fill:#ffc659;fill-opacity:1;stroke:none;stroke-width:0.1;stroke-linecap:round;stroke-linejoin:round;stroke-miterlimit:4;stroke-dasharray:none;stroke-opacity:1"
     id="circle4255"
     cx="-10.689992"
     cy="659.33502"
     rx="17.32515"
     ry="17.322321" />
</mask>
</defs>
  <metadata
     id="metadata7">
    <rdf:RDF>
      <cc:Work
         rdf:about="">
        <dc:format>image/svg+xml</dc:format>
        <dc:type
           rdf:resource="http://purl.org/dc/dcmitype/StillImage" />
        <dc:title />
      </cc:Work>
    </rdf:RDF>
  </metadata>
  <g
     style="fill:#ffffff;fill-opacity:1"
     transform="matrix(0.85638765,0,0,0.85652747,63.008264,-540.7136)"
     id="g4215"
     mask="url(#mask4253)">
    <path
       id="path4219"
       transform="matrix(1.8162,0.042542,-0.042542,1.8162,-76.319,-318.11)"
       d="m 52.24,536.01 -1.2611,4.2008 -4.3849,0.0988 -1.4489,-4.1398 3.4894,-2.6573 z m -3.750803,-8.59993 a 9.6328604,9.6328604 0 0 0 -9.404644,9.8558 9.6328604,9.6328604 0 0 0 9.855793,9.40464 9.6328604,9.6328604 0 0 0 9.404644,-9.85579 9.6328604,9.6328604 0 0 0 -9.855793,-9.40465 z m -3.142633,1.27051 3.208373,1.81109 a 6.5508956,6.5508956 0 0 1 0.0064,-1.5e-4 6.5508956,6.5508956 0 0 1 0.0044,-1e-4 l -0.0023,-0.005 3.150461,-1.9471 3.910258,2.7152 -0.734569,3.62407 a 6.5508956,6.5508956 0 0 1 0.0012,0.003 l 0.0105,-0.01 2.826264,2.39432 -1.374032,4.55746 -3.675486,0.42268 a 6.5508956,6.5508956 0 0 1 -0.0011,3e-5 6.5508956,6.5508956 0 0 1 -0.0011,10e-4 l 0.01303,0.006 -1.403739,3.42788 -4.759426,0.1018 -1.53592,-3.36228 a 6.5508956,6.5508956 0 0 1 -0.0034,-0.002 l -0.0019,0.0129 -3.693997,-0.27588 -1.566747,-4.49501 2.718206,-2.49623 a 6.5508956,6.5508956 0 0 1 0.0031,-0.008 l -0.01071,10e-4 -0.879017,-3.59812 3.791048,-2.87947 z m -6.487581,-1.04493 19.260433,-0.45115 0.451149,19.26044 -19.260433,0.45114 z"
       inkscape:connector-curvature="0"
       style="fill:#ffffff;fill-opacity:1" />
  </g>
  <path
     id="path3576"
     d="m 41.165949,30.249195 c -0.707184,-0.02618 -1.434751,0.211124 -2.05994,0.730217 l -5.171297,4.29403 -4.981529,0 0,3.156167 -1.513748,0 c -0.640116,0 -1.155128,0.516268 -1.155128,1.156516 l 0,0.937536 -0.477424,0 c -0.669884,0 -1.208681,0.538893 -1.208681,1.208878 l 0,1.295085 -1.84566,1.532648 c -1.438547,1.194555 -1.772457,3.414053 -0.748748,4.978812 l 7.739928,11.831631 -1.398782,9.30675 a 58.878732,58.888345 0 0 0 9.640272,9.958955 l 0.471596,0.07105 A 58.878732,58.888345 0 0 0 63.297179,61.834147 L 46.724276,36.498734 a 13.41432,13.41651 0 0 1 -5.25629,-6.222664 c -0.09983,-0.01446 -0.200572,-0.02419 -0.301591,-0.02798 z"
     inkscape:connector-curvature="0"
     style="fill:#b50e12;stroke:#efdbb2;stroke-width:0.50000298;fill-opacity:1;stroke-opacity:1" />
  <g
     id="g3560"
     transform="matrix(0.85638765,0,0,0.85652747,63.008264,-540.7136)"
     style="fill:#da291c;fill-opacity:1">
    <path
       id="path3484"
       d="m 137.8,79.135 a 17.5,17.5 0 0 0 -17.5,17.5 17.5,17.5 0 0 0 17.5,17.5 17.5,17.5 0 0 0 17.5,-17.5 17.5,17.5 0 0 0 -17.5,-17.5 z m -5.7617,2.1738 5.75,3.4258 a 11.901,11.901 0 0 1 0.0117,0 11.901,11.901 0 0 1 0.008,0 l -0.004,-0.0098 5.8047,-3.4023 6.9863,5.0977 -1.4883,6.5508 a 11.901,11.901 0 0 1 0.002,0.0059 l 0.0195,-0.01758 5.0312,4.4688 -2.6894,8.2188 -6.6934,0.61132 a 11.901,11.901 0 0 1 -0.002,0 11.901,11.901 0 0 1 -0.002,0.002 l 0.0234,0.0117 -2.6953,6.166 -8.6484,-0.0176 -2.6465,-6.1719 a 11.901,11.901 0 0 1 -0.006,-0.004 l -0.004,0.0234 -6.6973,-0.6582 -2.6543,-8.2305 5.043,-4.418 a 11.901,11.901 0 0 1 0.006,-0.01367 l -0.0195,0.002 -1.4434,-6.5723 7.0078,-5.0684 z"
       transform="translate(-148.49,562.7)"
       inkscape:connector-curvature="0"
       style="fill:#da291c;fill-opacity:1" />
    <path
       id="path3428"
       transform="matrix(1.8162,0.042542,-0.042542,1.8162,-76.319,-318.11)"
       d="m 52.24,536.01 -1.2611,4.2008 -4.3849,0.0988 -1.4489,-4.1398 3.4894,-2.6573 z"
       inkscape:connector-curvature="0"
       style="fill:#da291c;fill-opacity:1" />
  </g>
  <g
     id="g3433"
     style="fill:#000000;fill-opacity:1.0"
     transform="matrix(0.66608668,0,0,0.66619543,-3.3319718,-362.03999)">
    <path
       id="rect3788"
       d="m 232.35,49.262 -1.9121,1.2441 16.393,25.189 a 88.395,88.395 0 0 0 1.4961,-1.8848 l -15.98,-24.548 z"
       transform="translate(-148.49,562.7)"
       inkscape:connector-curvature="0"
       style="fill:#000000;fill-opacity:1.0" />
    <path
       id="rect3342"
       d="m 226.86,48.018 -0.0195,0.01367 a 13.966,8.9999 54.65 0 1 1.2539,6.0664 13.966,8.9999 54.65 0 1 0,0.002 l 16.021,24.621 a 88.395,88.395 0 0 0 1.5898,-1.7441 l -18.846,-28.959 z"
       transform="translate(-148.49,562.7)"
       inkscape:connector-curvature="0"
       style="fill:#000000;fill-opacity:1.0" />
    <path
       id="rect3344"
       d="m 227.57,57.232 a 13.966,8.9999 54.65 0 1 -1.2793,2.2227 l 14.738,22.646 a 88.395,88.395 0 0 0 1.5898,-1.7422 l -15.05,-23.127 z"
       transform="translate(-148.49,562.7)"
       inkscape:connector-curvature="0"
       style="fill:#000000;fill-opacity:1.0" />
    <path
       id="rect3346"
       d="m 224.61,60.809 a 13.966,8.9999 54.65 0 1 -0.50976,0.24414 13.966,8.9999 54.65 0 1 -1.7637,0.44531 l 15.393,23.656 a 88.395,88.395 0 0 0 1.7188,-1.543 l -14.84,-22.802 z"
       transform="translate(-148.49,562.7)"
       inkscape:connector-curvature="0"
       style="fill:#000000;fill-opacity:1.0" />
    <path
       id="rect3348"
       d="m 217.69,60.742 -1.2148,0.79102 17.543,26.957 a 88.395,88.395 0 0 0 1.7188,-1.543 l -16.78,-25.767 a 13.966,8.9999 54.65 0 1 -1.2773,-0.4375 z"
       transform="translate(-148.49,562.7)"
       inkscape:connector-curvature="0"
       style="fill:#000000;fill-opacity:1.0" />
    <path
       id="rect3350"
       d="m 214.89,63.045 -1.9121,1.2441 2.4746,3.8027 a 5.1061,7.4197 48.423 0 1 2.5898,1.2578 5.1061,7.4197 48.423 0 1 0.80859,3.9648 l 11.58,17.797 a 88.395,88.395 0 0 0 1.8438,-1.3496 l -17.38,-26.717 z"
       transform="translate(-148.49,562.7)"
       inkscape:connector-curvature="0"
       style="fill:#000000;fill-opacity:1.0" />
    <path
       id="rect3352"
       d="m 217.86,75.73 a 5.1061,7.4197 48.423 0 1 -1.4883,1.8984 l 10.477,16.1 a 88.395,88.395 0 0 0 1.8477,-1.3477 l -10.836,-16.65 z"
       transform="translate(-148.49,562.7)"
       inkscape:connector-curvature="0"
       style="fill:#000000;fill-opacity:1.0" />
    <path
       id="rect3354"
       d="m 214.7,78.996 a 5.1061,7.4197 48.423 0 1 -2.0469,1.041 l 10.373,15.939 a 88.395,88.395 0 0 0 1.9688,-1.1582 l -10.29,-15.822 z"
       transform="translate(-148.49,562.7)"
       inkscape:connector-curvature="0"
       style="fill:#000000;fill-opacity:1.0" />
    <path
       id="rect3356"
       d="m 207.76,79.871 11.805,18.143 a 88.395,88.395 0 0 0 1.9688,-1.1582 l -10.67,-16.395 a 5.1061,7.4197 48.423 0 1 -3.1055,-0.58984 z"
       transform="translate(-148.49,562.7)"
       inkscape:connector-curvature="0"
       style="fill:#000000;fill-opacity:1.0" />
  </g>
  <circle
     style="opacity:1;fill:none;fill-opacity:1;stroke:#c83737;stroke-width:0.75;stroke-linecap:round;stroke-linejoin:round;stroke-miterlimit:4;stroke-dasharray:none"
     id="path3541"
     cx="44.99902"
     cy="45.000267"
     r="43.625263" />
</svg>
