<?xml version="1.0" encoding="UTF-8" standalone="no"?>
<svg
   xmlns:dc="http://purl.org/dc/elements/1.1/"
   xmlns:cc="http://creativecommons.org/ns#"
   xmlns:rdf="http://www.w3.org/1999/02/22-rdf-syntax-ns#"
   xmlns:svg="http://www.w3.org/2000/svg"
   xmlns="http://www.w3.org/2000/svg"
   xmlns:sodipodi="http://sodipodi.sourceforge.net/DTD/sodipodi-0.dtd"
   xmlns:inkscape="http://www.inkscape.org/namespaces/inkscape"
   id="svg2"
   viewBox="0 0 89.998033 90.000526"
   height="25.399998mm"
   width="25.399998mm"
   version="1.1"
   inkscape:version="0.91 r13725"
   sodipodi:docname="bournemouth.svg">
  <sodipodi:namedview
     pagecolor="#ffffff"
     bordercolor="#666666"
     borderopacity="1"
     objecttolerance="10"
     gridtolerance="10"
     guidetolerance="10"
     inkscape:pageopacity="0"
     inkscape:pageshadow="2"
     inkscape:window-width="1366"
     inkscape:window-height="747"
     id="namedview22"
     showgrid="false"
     inkscape:showpageshadow="false"
     fit-margin-top="0"
     fit-margin-left="0"
     fit-margin-right="0"
     fit-margin-bottom="0"
     inkscape:zoom="6.4888885"
     inkscape:cx="63.571187"
     inkscape:cy="44.999989"
     inkscape:window-x="0"
     inkscape:window-y="21"
     inkscape:window-maximized="1"
     inkscape:current-layer="svg2" />
  <defs
     id="defs4">/&gt;</defs>
  <metadata
     id="metadata7">
    <rdf:RDF>
      <cc:Work
         rdf:about="">
        <dc:format>image/svg+xml</dc:format>
        <dc:type
           rdf:resource="http://purl.org/dc/dcmitype/StillImage" />
        <dc:title />
      </cc:Work>
    </rdf:RDF>
  </metadata>
  <g
     id="g3489"
     transform="matrix(0.90772934,0,0,0.90787754,4.2677013,4.0287129)">
    <path
       style="fill:#550000;stroke:#666666;stroke-width:0.55078334"
       inkscape:connector-curvature="0"
       d="m 40.536127,28.524949 c -0.796927,-0.0295 -1.616824,0.237877 -2.321351,0.822749 l -5.827548,4.838163 -5.613698,0 0,3.556112 -1.705847,0 c -0.721348,0 -1.301716,0.581689 -1.301716,1.303068 l 0,1.05634 -0.538011,0 c -0.754893,0 -1.362065,0.60718 -1.362065,1.362065 l 0,1.459196 -2.079879,1.726864 c -1.621103,1.345927 -1.997386,3.846676 -0.843766,5.60972 l 8.722144,13.330918 -1.576291,10.486089 a 66.350594,66.350594 0 0 0 10.863648,11.22094 l 0.531442,0.08005 A 66.350594,66.350594 0 0 0 65.475867,64.112302 L 46.79982,35.566421 a 15.116631,15.116631 0 0 1 -5.923326,-7.011192 c -0.112502,-0.01629 -0.226025,-0.02725 -0.339864,-0.03153 z"
       id="path3576" />
    <g
       style="fill:#d40000"
       transform="matrix(0.96506544,0,0,0.96506544,65.150288,-614.78946)"
       id="g3560">
      <path
         inkscape:connector-curvature="0"
         transform="translate(-148.49,562.7)"
         d="m 137.8,79.135 a 17.5,17.5 0 0 0 -17.5,17.5 17.5,17.5 0 0 0 17.5,17.5 17.5,17.5 0 0 0 17.5,-17.5 17.5,17.5 0 0 0 -17.5,-17.5 z m -5.7617,2.1738 5.75,3.4258 a 11.901,11.901 0 0 1 0.0117,0 11.901,11.901 0 0 1 0.008,0 l -0.004,-0.0098 5.8047,-3.4023 6.9863,5.0977 -1.4883,6.5508 a 11.901,11.901 0 0 1 0.002,0.0059 l 0.0195,-0.01758 5.0312,4.4688 -2.6894,8.2188 -6.6934,0.61132 a 11.901,11.901 0 0 1 -0.002,0 11.901,11.901 0 0 1 -0.002,0.002 l 0.0234,0.0117 -2.6953,6.166 -8.6484,-0.0176 -2.6465,-6.1719 a 11.901,11.901 0 0 1 -0.006,-0.004 l -0.004,0.0234 -6.6973,-0.6582 -2.6543,-8.2305 5.043,-4.418 a 11.901,11.901 0 0 1 0.006,-0.01367 l -0.0195,0.002 -1.4434,-6.5723 7.0078,-5.0684 z"
         id="path3484" />
      <path
         inkscape:connector-curvature="0"
         d="m 52.24,536.01 -1.2611,4.2008 -4.3849,0.0988 -1.4489,-4.1398 3.4894,-2.6573 z"
         transform="matrix(1.8162,0.042542,-0.042542,1.8162,-76.319,-318.11)"
         id="path3428" />
    </g>
    <g
       transform="matrix(0.75061479,0,0,0.75061479,-9.6086936,-413.47457)"
       style="fill:#ff8080"
       id="g3433">
      <path
         inkscape:connector-curvature="0"
         transform="translate(-148.49,562.7)"
         d="m 232.35,49.262 -1.9121,1.2441 16.393,25.189 a 88.395,88.395 0 0 0 1.4961,-1.8848 l -15.98,-24.548 z"
         id="rect3788" />
      <path
         inkscape:connector-curvature="0"
         transform="translate(-148.49,562.7)"
         d="m 226.86,48.018 -0.0195,0.01367 a 13.966,8.9999 54.65 0 1 1.2539,6.0664 13.966,8.9999 54.65 0 1 0,0.002 l 16.021,24.621 a 88.395,88.395 0 0 0 1.5898,-1.7441 l -18.846,-28.959 z"
         id="rect3342" />
      <path
         inkscape:connector-curvature="0"
         transform="translate(-148.49,562.7)"
         d="m 227.57,57.232 a 13.966,8.9999 54.65 0 1 -1.2793,2.2227 l 14.738,22.646 a 88.395,88.395 0 0 0 1.5898,-1.7422 l -15.05,-23.127 z"
         id="rect3344" />
      <path
         inkscape:connector-curvature="0"
         transform="translate(-148.49,562.7)"
         d="m 224.61,60.809 a 13.966,8.9999 54.65 0 1 -0.50976,0.24414 13.966,8.9999 54.65 0 1 -1.7637,0.44531 l 15.393,23.656 a 88.395,88.395 0 0 0 1.7188,-1.543 l -14.84,-22.802 z"
         id="rect3346" />
      <path
         inkscape:connector-curvature="0"
         transform="translate(-148.49,562.7)"
         d="m 217.69,60.742 -1.2148,0.79102 17.543,26.957 a 88.395,88.395 0 0 0 1.7188,-1.543 l -16.78,-25.767 a 13.966,8.9999 54.65 0 1 -1.2773,-0.4375 z"
         id="rect3348" />
      <path
         inkscape:connector-curvature="0"
         transform="translate(-148.49,562.7)"
         d="m 214.89,63.045 -1.9121,1.2441 2.4746,3.8027 a 5.1061,7.4197 48.423 0 1 2.5898,1.2578 5.1061,7.4197 48.423 0 1 0.80859,3.9648 l 11.58,17.797 a 88.395,88.395 0 0 0 1.8438,-1.3496 l -17.38,-26.717 z"
         id="rect3350" />
      <path
         inkscape:connector-curvature="0"
         transform="translate(-148.49,562.7)"
         d="m 217.86,75.73 a 5.1061,7.4197 48.423 0 1 -1.4883,1.8984 l 10.477,16.1 a 88.395,88.395 0 0 0 1.8477,-1.3477 l -10.836,-16.65 z"
         id="rect3352" />
      <path
         inkscape:connector-curvature="0"
         transform="translate(-148.49,562.7)"
         d="m 214.7,78.996 a 5.1061,7.4197 48.423 0 1 -2.0469,1.041 l 10.373,15.939 a 88.395,88.395 0 0 0 1.9688,-1.1582 l -10.29,-15.822 z"
         id="rect3354" />
      <path
         inkscape:connector-curvature="0"
         transform="translate(-148.49,562.7)"
         d="m 207.76,79.871 11.805,18.143 a 88.395,88.395 0 0 0 1.9688,-1.1582 l -10.67,-16.395 a 5.1061,7.4197 48.423 0 1 -3.1055,-0.58984 z"
         id="rect3356" />
    </g>
  </g>
  <circle
     style="opacity:1;fill:none;fill-opacity:1;stroke:#c83737;stroke-width:0.75;stroke-linecap:round;stroke-linejoin:round;stroke-miterlimit:4;stroke-dasharray:none"
     id="path3541"
     cx="44.999016"
     cy="45.000263"
     r="44.625263" />
</svg>
