<?xml version="1.0" encoding="UTF-8" standalone="no"?>
<svg
   xmlns:dc="http://purl.org/dc/elements/1.1/"
   xmlns:cc="http://creativecommons.org/ns#"
   xmlns:rdf="http://www.w3.org/1999/02/22-rdf-syntax-ns#"
   xmlns:svg="http://www.w3.org/2000/svg"
   xmlns="http://www.w3.org/2000/svg"
   xmlns:sodipodi="http://sodipodi.sourceforge.net/DTD/sodipodi-0.dtd"
   xmlns:inkscape="http://www.inkscape.org/namespaces/inkscape"
   id="svg2"
   viewBox="0 0 90.00053 89.999873"
   height="25.4mm"
   width="25.4mm"
   version="1.1"
   inkscape:version="0.91 r13725"
   sodipodi:docname="brighton.svg">
  <sodipodi:namedview
     pagecolor="#ffffff"
     bordercolor="#666666"
     borderopacity="1"
     objecttolerance="10"
     gridtolerance="10"
     guidetolerance="10"
     inkscape:pageopacity="0"
     inkscape:pageshadow="2"
     inkscape:window-width="1366"
     inkscape:window-height="747"
     id="namedview26"
     showgrid="false"
     inkscape:showpageshadow="false"
     fit-margin-top="0"
     fit-margin-left="0"
     fit-margin-right="0"
     fit-margin-bottom="0"
     inkscape:zoom="6.1333334"
     inkscape:cx="44.999999"
     inkscape:cy="44.999999"
     inkscape:window-x="0"
     inkscape:window-y="21"
     inkscape:window-maximized="1"
     inkscape:current-layer="svg2" />
  <defs
     id="defs4">/&gt;</defs>
  <metadata
     id="metadata7">
    <rdf:RDF>
      <cc:Work
         rdf:about="">
        <dc:format>image/svg+xml</dc:format>
        <dc:type
           rdf:resource="http://purl.org/dc/dcmitype/StillImage" />
        <dc:title></dc:title>
      </cc:Work>
    </rdf:RDF>
  </metadata>
  <circle
     style="opacity:1;fill:none;fill-opacity:1;stroke:#216778;stroke-width:0.74999994;stroke-linecap:round;stroke-linejoin:round;stroke-miterlimit:4;stroke-dasharray:none"
     id="path3817"
     cx="45.000263"
     cy="44.999935"
     r="43.625256" />
  <g
     id="g4189"
     transform="matrix(0.97759095,0,0,0.97759095,1.0750998,0.6708342)">
    <path
       style="fill:#0055d4;stroke:#0044aa;stroke-width:0.76719648"
       inkscape:connector-curvature="0"
       d="m 40.020903,34.230871 c -0.235633,0.02934 -0.469179,0.07438 -0.701986,0.121125 -11.879926,2.385172 -22.730874,8.605988 -35.4313791,8.124818 -1.8799158,-0.07122 4.199645,1.152905 7.2039071,1.08362 3.513063,-0.08105 7.584674,-0.63018 11.469036,-1.165642 3.875292,-0.534262 7.570671,-1.056013 10.30206,-1.075818 1.363028,-0.0099 2.512465,0.104661 3.331616,0.420684 0.833153,0.321439 1.359026,0.871031 1.372763,1.717922 3.53e-4,0.02167 0.0013,0.04241 -0.0027,0.06382 -0.0033,0.02141 -0.0118,0.04294 -0.02347,0.06122 -0.01167,0.01827 -0.02634,0.03334 -0.04428,0.04561 -0.01787,0.01227 -0.03874,0.02121 -0.05862,0.02994 -6.981182,3.086617 -14.588529,3.125428 -21.857119,3.377228 -0.177761,0.893236 0.02381,1.731725 0.498825,2.500662 0.5042,0.816149 1.315415,1.551344 2.302676,2.169841 1.958252,1.226658 4.560941,1.96612 6.659296,1.979724 2.085352,-1.377498 4.270731,-2.373829 6.478249,-1.819482 7.600678,1.341689 15.005339,5.185809 21.29501,4.51334 6.28967,-0.672469 8.418188,-3.133575 11.392309,-4.117368 0.134156,-0.04441 0.267524,-0.08788 0.402453,-0.130242 2.778136,-0.875831 5.733918,-1.302478 10.151354,-0.601726 -0.261122,-0.520377 -0.518984,-1.0102 -0.984661,-1.439181 -0.548191,-0.505 -1.40037,-0.935981 -2.923974,-1.170909 -0.0164,-0.0027 -0.03321,-0.0067 -0.04821,-0.013 -0.01507,-0.0069 -0.02781,-0.0166 -0.04041,-0.02734 -1.376898,-1.172978 -2.735457,-2.393567 -4.09355,-3.286004 -1.358693,-0.892769 -2.683577,-1.433979 -3.986722,-1.285473 -0.05721,0.0067 -0.116411,0.01174 -0.170619,-0.0078 -0.02707,-0.0097 -0.05195,-0.02454 -0.07163,-0.04561 -0.01974,-0.02101 -0.03421,-0.04741 -0.04034,-0.07555 -0.006,-0.02814 -0.0053,-0.05868 0.004,-0.08596 0.0091,-0.02734 0.02641,-0.05141 0.04688,-0.07163 0.04101,-0.04048 0.09642,-0.06122 0.15108,-0.07945 3.739857,-1.244596 5.646028,-3.402701 8.868348,-5.0352 3.045272,-1.542875 7.058946,-2.077286 14.641876,-1.440514 1.151628,0.09671 -2.61596,-0.992596 -4.536335,-1.379299 -2.556276,-0.514736 -5.699708,-0.839355 -8.955704,-0.767136 -6.527594,0.144845 -13.439557,1.883432 -17.053847,6.797132 -0.01581,0.02147 -0.03181,0.04261 -0.05208,0.05988 -0.0202,0.01727 -0.04421,0.02981 -0.07033,0.03514 -0.02607,0.0053 -0.05401,0.0027 -0.07945,-0.0053 -0.02541,-0.0079 -0.04868,-0.02041 -0.07163,-0.03388 -2.256997,-1.326884 -6.36055,-4.162702 -8.712973,-5.549669 -1.432046,-0.844223 -2.800541,-1.547143 -4.04147,-1.970588 -0.93338,-0.318485 -1.667539,-0.384055 -2.5176,-0.421985 -2.17e-4,-10e-6 -4.34e-4,2.3e-5 -6.49e-4,5e-5 z"
       id="rect3446"
       sodipodi:nodetypes="aassccccccccccccczcccsccccccccccccssscccccccaa" />
    <circle
       style="fill:#ffffff"
       r="0.66140175"
       cx="65.706367"
       cy="48.341286"
       id="path3444" />
    <path
       sodipodi:nodetypes="ccccccccsccccc"
       inkscape:connector-curvature="0"
       id="path3459"
       transform="matrix(1.0000058,0,0,1.0000058,0,-3.2806588e-4)"
       d="m 70.802734,48.914062 -0.787109,0.402344 c -0.802388,0.373835 -2.085174,0.858851 -3.150391,0.626953 0,0 1.897118,0.22241 3.582032,1.16211 l -0.06571,-0.04192 0.151643,0.123948 c 0.0039,0.0013 0.0078,0.0039 0.01172,0.0059 1.26066,-0.006 2.641369,0.09414 4.214844,0.34375 -0.261122,-0.520375 -0.518701,-1.008522 -0.984375,-1.4375 -0.548189,-0.504998 -1.456875,-0.927182 -2.980469,-1.162109 -0.0061,-9.98e-4 -0.01379,0.0046 -0.02148,0.0098 l 0,-0.0059 c 0,0 -0.02765,0.01465 -0.0293,0.01563 z"
       style="fill:#d4ff2a;fill-rule:evenodd;stroke:#aad400;stroke-width:0.25573069;stroke-linecap:round;stroke-linejoin:round;stroke-miterlimit:4;stroke-dasharray:none" />
    <path
       sodipodi:nodetypes="cc"
       inkscape:connector-curvature="0"
       id="path3382"
       d="m 55.390389,42.22042 c 0,0 1.308389,1.33833 3.180369,2.103746"
       style="fill:none;fill-rule:evenodd;stroke:#0044aa;stroke-width:0.76719648;stroke-linecap:round;stroke-linejoin:miter;stroke-miterlimit:4;stroke-dasharray:none;stroke-opacity:1" />
    <path
       inkscape:connector-curvature="0"
       id="path4184"
       d="m 37.510079,43.015499 c 0,0 0.472887,1.376439 0.388444,2.077325"
       style="fill:none;fill-rule:evenodd;stroke:#0044aa;stroke-width:0.76719648;stroke-linecap:round;stroke-linejoin:miter;stroke-miterlimit:4;stroke-dasharray:none;stroke-opacity:1" />
  </g>
</svg>
