<?xml version="1.0" encoding="UTF-8" standalone="no"?>
<svg
   xmlns:dc="http://purl.org/dc/elements/1.1/"
   xmlns:cc="http://creativecommons.org/ns#"
   xmlns:rdf="http://www.w3.org/1999/02/22-rdf-syntax-ns#"
   xmlns:svg="http://www.w3.org/2000/svg"
   xmlns="http://www.w3.org/2000/svg"
   xmlns:sodipodi="http://sodipodi.sourceforge.net/DTD/sodipodi-0.dtd"
   xmlns:inkscape="http://www.inkscape.org/namespaces/inkscape"
   id="svg2"
   viewBox="0 0 90.000085 90.000517"
   height="25.4mm"
   width="25.4mm"
   version="1.1"
   inkscape:version="0.91 r13725"
   sodipodi:docname="burnley.svg">
  <sodipodi:namedview
     pagecolor="#ffffff"
     bordercolor="#666666"
     borderopacity="1"
     objecttolerance="10"
     gridtolerance="10"
     guidetolerance="10"
     inkscape:pageopacity="0"
     inkscape:pageshadow="2"
     inkscape:window-width="1366"
     inkscape:window-height="747"
     id="namedview85"
     showgrid="false"
     fit-margin-top="0"
     fit-margin-left="0"
     fit-margin-right="0"
     fit-margin-bottom="0"
     inkscape:zoom="6.1333334"
     inkscape:cx="44.999999"
     inkscape:cy="44.999999"
     inkscape:window-x="0"
     inkscape:window-y="21"
     inkscape:window-maximized="1"
     inkscape:current-layer="svg2" />
  <defs
     id="defs4">/&gt;</defs>
  <metadata
     id="metadata7">
    <rdf:RDF>
      <cc:Work
         rdf:about="">
        <dc:format>image/svg+xml</dc:format>
        <dc:type
           rdf:resource="http://purl.org/dc/dcmitype/StillImage" />
        <dc:title></dc:title>
      </cc:Work>
    </rdf:RDF>
  </metadata>
  <g
     id="g4448"
     transform="matrix(0.86330741,0,0,0.86366614,6.1511718,6.1220035)">
    <g
       id="g4390">
      <path
         id="path3422"
         d="m 20.85615,28.405238 0,37.476316 A 24.143893,18.737723 0 0 0 45.000041,84.619279 24.143893,18.737723 0 0 0 69.143934,65.881554 l 0,-37.476316 -48.288653,0 z"
         inkscape:connector-curvature="0"
         style="fill:#f5f014;fill-opacity:1;stroke:#f8b319;stroke-width:0.57905102;stroke-miterlimit:4;stroke-dasharray:none;stroke-opacity:1" />
      <rect
         id="rect3438"
         ry="0"
         height="8.2473412"
         width="41.849762"
         y="31.840807"
         x="24.077755" />
      <g
         id="g3455"
         transform="matrix(0.53519656,0,0,0.53488364,25.988159,-450.13076)">
        <g
           id="g32"
           style="fill:none;stroke:#ffff00;stroke-width:1.36319625">
          <ellipse
             id="path3440"
             rx="2.6801"
             ry="5.8748999"
             cy="908.78003"
             cx="6.7782001"
             style="stroke-width:0.93789268" />
          <path
             id="path3442"
             d="m 3.3672,902.88 6.8218,11.81"
             inkscape:connector-curvature="0"
             style="stroke-width:0.93789268px" />
          <path
             id="path3445"
             d="M 10.189,902.88 3.3672,914.69"
             inkscape:connector-curvature="0"
             style="stroke-width:0.93789268px" />
        </g>
        <ellipse
           id="path3451"
           rx="2.2402"
           ry="7.6673002"
           transform="matrix(0.68916,0.7246,-0.94372,0.33075,0,0)"
           cy="681.53003"
           cx="943.09003"
           style="fill:#ffff00" />
        <ellipse
           id="ellipse3453"
           rx="2.2402"
           transform="matrix(0.68916,-0.7246,-0.94372,-0.33075,0,0)"
           ry="7.6673002"
           cy="-692.29999"
           cx="-938.16998"
           style="fill:#ffff00" />
      </g>
      <g
         id="g3505"
         transform="matrix(0.53519656,0,0,0.53488364,56.754167,-450.13076)">
        <g
           id="g40"
           style="fill:none;stroke:#ffff00;stroke-width:1.36319625">
          <ellipse
             id="ellipse3507"
             rx="2.6801"
             ry="5.8748999"
             cy="908.78003"
             cx="6.7782001"
             style="stroke-width:0.93789268" />
          <path
             id="path3509"
             d="m 3.3672,902.88 6.8218,11.81"
             inkscape:connector-curvature="0"
             style="stroke-width:0.93789268px" />
          <path
             id="path3511"
             d="M 10.189,902.88 3.3672,914.69"
             inkscape:connector-curvature="0"
             style="stroke-width:0.93789268px" />
        </g>
        <ellipse
           id="ellipse3513"
           rx="2.2402"
           transform="matrix(0.68916,0.7246,-0.94372,0.33075,0,0)"
           ry="7.6673002"
           cy="681.53003"
           cx="943.09003"
           style="fill:#ffff00" />
        <ellipse
           id="ellipse3515"
           rx="2.2402"
           ry="7.6673002"
           transform="matrix(0.68916,-0.7246,-0.94372,-0.33075,0,0)"
           cy="-692.29999"
           cx="-938.16998"
           style="fill:#ffff00" />
      </g>
      <g
         id="g3531"
         transform="matrix(0.26648243,0,0,0.26632637,107.18854,5.9747437)"
         style="fill:#ffff00">
        <rect
           id="rect3517"
           height="9.9886999"
           width="10.405"
           y="111.89"
           x="-239.73" />
        <rect
           id="rect3519"
           height="7.0753002"
           width="1.6648"
           y="104.4"
           x="-239.31" />
        <rect
           id="rect3521"
           height="9.1562996"
           width="1.6648"
           y="102.32"
           x="-236.75" />
        <rect
           id="rect3523"
           height="11.192"
           width="1.8161"
           y="100.28"
           x="-234.25999" />
        <rect
           id="rect3525"
           height="9.1562996"
           width="1.6648"
           y="102.32"
           x="-231.62" />
        <rect
           id="rect3527"
           height="4.4123001"
           width="6.6185002"
           y="120.52"
           x="-238.07001" />
        <rect
           id="rect3529"
           height="6.8190999"
           width="2.4066999"
           y="108.88"
           x="-229.44" />
      </g>
      <g
         id="g55"
         transform="matrix(0.8683604,0,0,0.86804984,401.11985,24.770627)">
        <path
           id="path3540"
           d="m -368.84,260.73 -13.805,-13.805 13.805,-13.805 13.805,13.805 z"
           transform="matrix(0.21373,0,0,0.39799,-350.2,-72.282)"
           inkscape:connector-curvature="0" />
        <path
           id="path3542"
           transform="matrix(0.21373,0,0,0.39799,-312.35,-72.282)"
           d="m -368.84,260.73 -13.805,-13.805 13.805,-13.805 13.805,13.805 z"
           inkscape:connector-curvature="0" />
        <path
           id="path3608"
           d="m -410.06,20.499 -2.2866,3.983 4.5935,-0.01157 -2.3069,-3.9714 z m -2.2866,3.983 -0.0579,0 -4.5906,0 0,4.5881 -4.5892,0 0,4.5896 -4.5906,0 0,4.5881 -4.5892,0 0,4.5896 -4.5906,0 0,4.5896 -2.556,0 a 27.804,21.586 0 0 0 0.67049,4.5881 l 1.8855,0 4.5906,0 0,-4.5881 4.5892,0 0,-4.5896 4.5906,0 0,-4.5896 4.5892,0 0,-4.5881 4.5906,0 0,-4.5896 4.5892,0 0,4.5896 4.5892,0 0,4.5881 4.5906,0 0,4.5896 4.5906,0 0,4.5896 4.5892,0 0,4.5881 4.5906,0 1.8696,0 a 27.804,21.586 0 0 0 0.68642,-4.5881 l -2.556,0 0,-4.5896 -4.5906,0 0,-4.5896 -4.5892,0 0,-4.5881 -4.5906,0 0,-4.5896 -4.5906,0 0,-4.5881 -4.5892,0 -4.5312,0 z"
           inkscape:connector-curvature="0"
           style="fill:#800080" />
      </g>
      <g
         id="g60"
         style="fill-rule:evenodd"
         transform="matrix(0.8683604,0,0,0.86804984,401.11985,24.770627)">
        <path
           id="path3391"
           d="m -419.52,50.723 c 0.008,9.6e-4 0.0206,-8.9e-5 0.0475,0.0058 0.11363,0.02468 0.6088,0.18753 1.1109,0.34974 0.18865,0.15037 0.37194,0.29571 0.53352,0.42207 0.26812,0.20966 0.6159,0.48189 0.96476,0.75397 a 0.61697,0.81006 50.608 0 0 0.83145,-0.03045 c 1.8725,-1.1686 3.7502,-2.3437 4.1724,-2.6221 0.10747,-0.07085 0.15435,-0.10696 0.18522,-0.12835 a 0.99281,0.99281 90 0 0 -1.1309,-1.6321 c -0.0309,0.02139 -0.0811,0.0526 -0.18523,0.12835 -0.38376,0.27925 -1.9576,1.4816 -3.598,2.7384 -0.22512,-0.09572 -0.43701,-0.18569 -0.61782,-0.26252 -0.19113,-0.08122 -0.41006,-0.1725 -0.63591,-0.26598 a 0.25214,0.019597 23.161 0 0 -0.20091,-0.06807 c -0.58863,0.04093 -1.2342,0.0922 -1.3654,0.08861 -0.0276,-7.54e-4 -0.0396,-0.0048 -0.0476,-0.0058 l -0.29619,0.23216 0.23217,0.29619 z"
           inkscape:connector-curvature="0" />
        <path
           id="path3395"
           d="m -417.13,61.729 c 0.13966,-0.02792 0.27672,-0.07308 0.41898,-0.08378 0.57262,-0.04304 1.1455,-0.08348 1.7187,-0.12108 a 0.14532,0.34002 33.864 0 0 0.19756,-0.12827 c 0.55227,-0.61604 1.1079,-1.2291 1.667,-1.8388 a 0.15671,0.53764 2.9561 0 0 0.11246,-0.32281 c 0.0302,-0.19463 0.0606,-0.38922 0.0912,-0.58377 0.0887,-0.56486 0.16779,-1.0539 0.23825,-1.4781 0.79268,0.14721 0.37702,0.15998 1.2874,0.12206 a 1.2780073,1.2780073 90 0 0 -0.10638,-2.5538 c -1.1131,0.04637 -0.24445,0.0034 -1.9976,0.40886 a 0.78851,1.1437 79.939 0 0 -0.9116,0.90038 c 0.0412,0.61239 0.0883,1.4284 0.14093,2.5277 0.008,0.16217 0.0154,0.32435 0.0229,0.48655 -0.25915,0.48543 -0.63958,1.1879 -1.0237,1.8884 -0.49156,0.16741 -0.9838,0.33262 -1.4766,0.49576 -0.13543,0.04483 -0.27931,0.05585 -0.41897,0.08378 a 0.10044,0.10044 90 0 0 0.0394,0.19697 z"
           inkscape:connector-curvature="0" />
        <path
           id="path4199"
           d="m -410.74,65.99 0.0619,-0.01045 c 1.0916,0.032 2.1914,0.12506 3.291,0.21685 a 0.55025,1.0726 19.883 0 0 0.75285,-0.70107 c 0.63381,-1.4271 1.2663,-2.8545 1.8336,-4.3011 a 1.5751,0.63506 65.019 0 0 -0.0515,-0.97519 c -0.85617,-2.951 -1.7663,-5.8888 -2.7781,-8.8018 -0.10305,-0.2967 -0.20458,-0.60277 -0.30491,-0.91692 a 2.0754,2.0754 90 0 0 -3.9077,1.3996 c 0.12193,0.30641 0.2378,0.60734 0.34655,0.902 1.0326,2.798 2.1534,5.5535 3.3224,8.2858 -0.0793,0.7239 -0.16994,2.1556 -0.255,3.5885 -0.76555,0.33731 -1.5327,0.66678 -2.3069,0.96152 l -0.0619,0.01045 a 0.1733328,0.1733328 90 0 0 0.0577,0.34183 z"
           inkscape:connector-curvature="0" />
        <path
           id="path4203"
           d="m -416.71,40.533 0.24019,0.38791 0.59396,1.308 -0.007,1.9874 0.0701,2.0559 a 0.8567,0.55087 32.419 0 0 0.2194,0.47396 l 0.75516,0.8449 0.23228,0.22293 a 0.8044,0.8044 90 0 0 1.114,-1.1607 l -0.23227,-0.22293 -0.68377,-0.56243 -0.15326,-1.7326 -0.25876,-2.0444 a 0.43193,0.13468 89.684 0 0 -0.0782,-0.24604 l -1.0259,-1.262 -0.24019,-0.38791 a 0.32091,0.32091 90 0 0 -0.54568,0.33788 z"
           inkscape:connector-curvature="0" />
        <path
           id="path4211"
           d="m -413.05,45.683 0.32365,0.33652 1.476,2.1256 a 0.45312,0.46191 65.255 0 0 0.49605,0.17766 l 2.7997,-0.75466 a 0.16981415,0.16981415 90 0 0 -0.0397,-0.3373 l -2.6275,-0.07656 -1.8412,-1.388 -0.32365,-0.33652 a 0.18264,0.18264 90 0 0 -0.26328,0.2532 z"
           inkscape:connector-curvature="0" />
        <path
           id="path4215"
           d="m -412.19,44.821 3.0585,-1.7593 0.41898,-1.0891 -1.7178,0.62833 0.50277,-1.6755 -1.5502,-0.62833 2.472,-0.58643 2.2206,-1.0891 1.0474,2.4295 -1.1731,3.5605 -0.79605,2.262 -0.96364,-1.3404 -1.1312,1.0053 -0.33518,-1.2148 -1.2988,0.67021 z"
           inkscape:connector-curvature="0" />
        <path
           id="path4219"
           d="m -398.69,49.184 c -0.15376,-0.21014 -0.30289,-0.4039 -0.44756,-0.582 -0.43295,-0.68796 -0.83908,-1.2234 -1.231,-1.5934 -0.39376,-0.37169 -0.84019,-0.64087 -1.3751,-0.6748 -0.14372,0.02492 -0.28035,0.06691 -0.40905,0.12374 -0.58091,0.25648 -0.95192,0.78898 -1.2078,1.3239 -0.26329,0.55039 -0.45997,1.2232 -0.61853,1.9189 -0.31402,1.3779 -0.51901,3.0502 -0.73627,4.3155 -0.11153,0.64959 -0.22779,1.2069 -0.36586,1.6193 -0.14101,0.4211 -0.28986,0.64243 -0.44231,0.70581 a 0.12979,0.12979 90 0 0 0.0562,0.25342 c 0.33093,-0.04156 0.58949,-0.37151 0.79507,-0.78919 0.21192,-0.43056 0.39523,-1.0092 0.56849,-1.6547 0.35336,-1.3165 0.65719,-2.8666 1.0825,-4.1888 0.21075,-0.65515 0.43986,-1.2137 0.69546,-1.6212 0.26605,-0.42418 0.50006,-0.58669 0.66226,-0.61464 0.0331,-0.0057 0.0641,-0.0063 0.0949,-0.0035 0.0981,-0.11393 0.33907,-0.19066 0.76193,-0.03952 0.41171,0.14716 0.91866,0.4849 1.5069,1.0508 0.14223,0.17509 0.28921,0.36605 0.44112,0.57365 a 0.10454,0.10454 90 0 0 0.16872,-0.12347 z"
           inkscape:connector-curvature="0"
           style="stroke:#000000;stroke-width:0.45127252;stroke-linecap:round;stroke-linejoin:round" />
      </g>
    </g>
    <g
       id="g4431">
      <path
         id="path4261"
         d="m 46.866638,14.208845 a 1.1729309,1.172075 0 0 0 -0.661738,0.175047 1.3162551,1.3152202 0 0 0 -0.999324,1.449197 l 1.06275,1.723065 -3.080534,-0.315195 a 0.13191157,0.13180792 0 0 0 -0.03896,0.26053 l 3.613586,0.703087 A 0.25049697,0.42959023 15.264585 0 0 47.10171,17.87135 l 0.204866,-0.684475 0.983582,0.765896 -1.740211,4.109213 -0.24153,0.53851 a 0.19869101,0.19853998 0 0 0 0.362581,0.16225 l 0.241531,-0.538509 2.008512,-4.233628 a 0.41380782,0.15681017 63.176697 0 0 -0.03196,-0.297745 l -1.120946,-3.00595 a 1.1729309,1.172075 0 0 0 -0.901527,-0.478028 z"
         inkscape:connector-curvature="0"
         style="fill:#800080;fill-rule:evenodd" />
      <path
         id="path4245"
         d="m 42.4081,5.8539779 a 1.7432686,1.3459787 0 0 0 -1.743071,1.3462744 1.7432686,1.3459787 0 0 0 1.743071,1.3456826 1.7432686,1.3459787 0 0 0 0.05001,-0.00118 0.95084605,2.6129365 10.010188 0 0 -0.08039,0.3849841 0.95084605,2.6129365 10.010188 0 0 0.06807,2.287759 4.831385,3.0892855 49.947222 0 0 1.513733,3.296185 4.831385,3.0892855 49.947222 0 0 5.474335,1.714981 4.831385,3.0892855 49.947222 0 0 0.626237,-0.928728 l 1.100528,0 0,-1.583568 -0.967295,0 A 4.831385,3.0892855 49.947222 0 0 48.694087,10.544003 4.831385,3.0892855 49.947222 0 0 44.348294,8.3550251 0.95084605,2.6129365 10.010188 0 0 44.007245,6.6679436 1.7432686,1.3459787 0 0 0 42.407892,5.8537807 Z"
         inkscape:connector-curvature="0"
         style="fill:#f5f014;stroke:#000000;stroke-width:0.11534843;stroke-linecap:round;stroke-linejoin:round" />
      <path
         id="path4251"
         d="M 41.269048,8.2468132 39.494676,7.3701581 41.141643,6.2730241 Z"
         inkscape:connector-curvature="0"
         style="fill:#800080" />
      <g
         id="g4297"
         transform="matrix(0.29798226,0,0,0.29774589,30.640321,-6.4750403)"
         style="stroke:#000000;stroke-width:1.15809536">
        <path
           style="fill:none;stroke:#000000;stroke-width:1.05414784px"
           inkscape:connector-curvature="0"
           d="M 28.178,40.702 32.189,51.72"
           id="path4255" />
      </g>
      <path
         style="fill:#f2f2f2;stroke:#000000;stroke-width:0.39796051px"
         inkscape:connector-curvature="0"
         d="M 40.466286,5.1900482 38.951642,9.3483673"
         id="path4259" />
      <ellipse
         id="path4269"
         rx="1.577551"
         transform="matrix(0.93978006,-0.34177982,0.3422588,0.93960572,0,0)"
         ry="1.1617045"
         cy="31.011168"
         cx="32.968468"
         style="fill:#f5f014;stroke:#000000;stroke-width:0.11835367;stroke-linecap:round;stroke-linejoin:round" />
      <rect
         id="rect4331"
         ry="0.25305739"
         height="0.70855868"
         width="0.50650769"
         y="6.4316859"
         x="42.06287" />
      <path
         id="path4333"
         d="m 44.361176,10.530842 c 0.181124,0.900858 0.455561,3.373671 3.810275,3.700579"
         inkscape:connector-curvature="0"
         style="fill:none;stroke:#000000;stroke-width:0.28836808;stroke-linecap:round" />
      <g
         id="g4456"
         transform="matrix(0.71604912,0,0,0.71564696,338.65428,25.500553)">
        <rect
           id="rect3420"
           ry="3.7179"
           height="7.4358001"
           width="36.833"
           y="-3.7887001"
           x="-428.51999"
           style="fill:#800080" />
        <g
           id="g4451"
           style="fill:none;stroke:#008080;stroke-width:3.60055923">
          <path
             id="path4343"
             d="m -419.55,-2.175 4.0548,4.2523"
             inkscape:connector-curvature="0"
             style="stroke-width:3.60055923" />
          <path
             id="path4345"
             d="m -410.57,-2.175 4.0548,4.2523"
             inkscape:connector-curvature="0"
             style="stroke-width:3.60055923" />
          <path
             id="path4347"
             d="m -401.59,-2.175 4.0548,4.2523"
             inkscape:connector-curvature="0"
             style="stroke-width:3.60055923" />
        </g>
      </g>
    </g>
  </g>
  <circle
     style="opacity:1;fill:none;fill-opacity:1;stroke:#800080;stroke-width:0.75;stroke-linecap:round;stroke-linejoin:round;stroke-miterlimit:4;stroke-dasharray:none"
     id="path3762"
     cx="45.000042"
     cy="45.000259"
     r="43.625256" />
</svg>
