<?xml version="1.0" encoding="UTF-8" standalone="no"?>
<svg
   xmlns:dc="http://purl.org/dc/elements/1.1/"
   xmlns:cc="http://creativecommons.org/ns#"
   xmlns:rdf="http://www.w3.org/1999/02/22-rdf-syntax-ns#"
   xmlns:svg="http://www.w3.org/2000/svg"
   xmlns="http://www.w3.org/2000/svg"
   xmlns:sodipodi="http://sodipodi.sourceforge.net/DTD/sodipodi-0.dtd"
   xmlns:inkscape="http://www.inkscape.org/namespaces/inkscape"
   id="svg2"
   viewBox="0 0 89.997795 89.999252"
   height="25.400002mm"
   width="25.400002mm"
   version="1.1"
   inkscape:version="0.91 r13725"
   sodipodi:docname="chelsea.svg">
  <sodipodi:namedview
     pagecolor="#ffffff"
     bordercolor="#666666"
     borderopacity="1"
     objecttolerance="10"
     gridtolerance="10"
     guidetolerance="10"
     inkscape:pageopacity="0"
     inkscape:pageshadow="2"
     inkscape:window-width="1366"
     inkscape:window-height="747"
     id="namedview42"
     showgrid="false"
     fit-margin-top="0"
     fit-margin-left="0"
     fit-margin-right="0"
     fit-margin-bottom="0"
     inkscape:zoom="2.919455"
     inkscape:cx="56.351085"
     inkscape:cy="-24.972196"
     inkscape:window-x="0"
     inkscape:window-y="21"
     inkscape:window-maximized="1"
     inkscape:current-layer="svg2" />
  <defs
     id="defs4">/&gt;
  <clipPath
   id="clipPath3595-2"
   clipPathUnits="userSpaceOnUse">
  <path
     id="path3597-7"
     d="m -307.2,283.5 155.55,2.0795 c 0,0 33.688,19.132 4.5749,29.945 -29.1131,10.813 -36.184,13.725 -36.184,13.725 l 1.6636,12.893 43.254,-19.963 44.086,63.633 -18.716,74.863 -34.52,34.52 c 0,0 -21.211,15.388 -21.211,7.9022 l 0,-7.4863 -51.572,0.4159 -74.447,-4.9908 -17.468,-71.951 z"
     inkscape:connector-curvature="0"
     style="fill:#333333;fill-rule:evenodd" />
</clipPath>
</defs>
  <metadata
     id="metadata7">
    <rdf:RDF>
      <cc:Work
         rdf:about="">
        <dc:format>image/svg+xml</dc:format>
        <dc:type
           rdf:resource="http://purl.org/dc/dcmitype/StillImage" />
        <dc:title></dc:title>
      </cc:Work>
    </rdf:RDF>
  </metadata>
  <g
     id="layer1"
     transform="matrix(0.80157242,0,0,0.80157242,-114.59109,-476.95548)">
    <g
       id="g3599"
       transform="matrix(0.37519,0,0,0.37519,280.78,502.33)">
      <g
         id="g3526"
         transform="translate(5.2802,3.1681)"
         style="fill:#cccccc">
        <path
           id="path3528"
           d="m -283.78,297.24 a 15.075,15.075 0 0 0 -15.074,15.074 15.075,15.075 0 0 0 8.0195,13.309 c -0.0693,0.0183 -0.31099,0.0803 -0.34375,0.0898 -0.40909,0.11757 -0.76534,0.24928 -1.0215,0.39063 -0.12951,0.0714 -0.24144,0.15309 -0.32813,0.23828 -0.0444,0.0428 -0.0848,0.0892 -0.11718,0.13672 -0.0337,0.0496 -0.0603,0.10064 -0.0801,0.15625 -0.0199,0.0559 -0.0302,0.11297 -0.0332,0.17383 -0.002,0.0589 0.003,0.11887 0.0176,0.18164 0.0295,0.12622 0.0934,0.25649 0.19141,0.39257 0.19651,0.27283 0.52964,0.55344 0.98828,0.81055 0.95327,0.53353 2.4122,0.94021 4.207,0.94922 0.13225,-1.6e-4 0.27185,-0.0154 0.40625,-0.0195 l 0,123.61 c 0,0.10449 0.083,0.18945 0.1875,0.18945 l -5.2969,0 c -0.0723,0 -0.13086,0.0585 -0.13086,0.13086 l 0,9.2422 c 0,0.0723 0.0585,0.13086 0.13086,0.13086 l 8.2773,0 8.2773,0 c 0.0723,0 0.13086,-0.0585 0.13086,-0.13086 l 0,-9.2422 c 0,-0.0723 -0.0585,-0.13086 -0.13086,-0.13086 l -5.2988,0 c 0.10449,0 0.18945,-0.085 0.18945,-0.18945 l 0,-125.18 c 0.6906,-0.32876 1.3359,-0.6844 1.9238,-1.0625 a 15.075,15.075 0 0 0 9.9824,-14.17 15.075,15.075 0 0 0 -15.074,-15.074 z m 0,165.18 a 6.3362,6.3362 0 0 0 -6.3359,6.3359 6.3362,6.3362 0 0 0 6.3359,6.3359 6.3362,6.3362 0 0 0 6.3359,-6.3359 6.3362,6.3362 0 0 0 -6.3359,-6.3359 z m 0,-158.95 a 8.8368,8.8368 0 0 1 8.8359,8.8359 8.8368,8.8368 0 0 1 -8.8359,8.8379 8.8368,8.8368 0 0 1 -8.8379,-8.8379 8.8368,8.8368 0 0 1 8.8379,-8.8359 z"
           inkscape:connector-curvature="0" />
        <g
           id="g11"
           style="fill-rule:evenodd">
          <path
             id="path3530"
             d="m 108.37,215.96 c -5.4504,6.2511 -4.1299,9.4253 -1.9004,12.186 -7.7434,-0.0794 -16.232,-1.5244 -19.914,5.8418 20.825,-0.2106 1.047,25.858 -9.0273,14.338 1.8569,5.5478 6.3818,8.8717 12.48,10.885 l -10.621,20.445 c 3.0724,12.843 -4.1982,14.055 -6.9043,14.338 0.42164,-24.57 -39.726,-30.922 -43.014,-33.455 -5.1328,2.8175 -7.3275,6.125 -3.9824,10.355 -3.5402,2.8322 -3.5402,5.6639 0,8.4961 -1.7574,2.3422 -0.43718,3.9154 0.53125,5.5762 l 13.01,3.7168 c 3.8909,-0.0122 29.39,5.5407 10.621,13.809 8.1496,3.7522 15.889,5.4601 21.24,-4.7793 3.807,8.3159 10.428,8.1915 16.994,8.2305 -19.88,14.072 -49.485,26.859 -60.539,25.49 -2.3172,1.0301 -7.221,1.1319 -6.9023,7.4336 2.1815,-2.0692 4.9003,-2.7945 8.4961,-1.3281 -3.3854,1.8207 -6.7635,3.647 -5.3105,8.2324 6.0915,-4.304 6.923,-2.4726 9.0273,-2.125 l -2.9199,5.5762 3.4512,-2.6562 6.1074,0 1.5938,7.4356 c 5.8277,-14.196 13.591,-13.839 21.506,-6.373 11.786,-5.9318 18.479,-11.226 24.693,-16.461 l 6.6387,11.947 c 4.8636,-3.0574 13.365,-2.7365 9.0273,-14.338 37.775,22.781 -58.523,26.57 -25.49,52.572 -1.8667,16.569 -9.4891,27.753 -33.189,23.896 -6.6779,3.9828 -7.2088,7.9664 -6.9043,11.949 l 3.6992,0.22851 c -0.11528,0.56143 -0.15377,1.1077 -0.14062,1.5859 0.04,1.4531 0.48488,2.5498 0.76758,2.5176 0.28804,-0.0328 0.47577,-1.1187 0.9707,-2.2109 0.25089,-0.55368 0.55659,-1.0575 0.94336,-1.4336 0.11501,-0.11184 0.23124,-0.20071 0.34766,-0.2793 l 9.7461,0.60547 c -0.07045,0.51371 -0.08237,1.0064 -0.05273,1.4375 0.1029,1.4965 0.62661,2.5926 0.97656,2.5527 0.35831,-0.0409 0.61683,-1.1226 1.1777,-2.1719 0.28412,-0.53148 0.61714,-0.99768 1.0137,-1.3145 0.16747,-0.13378 0.32626,-0.21978 0.48242,-0.28125 l 10.809,0.66993 c -0.03667,0.40323 -0.03939,0.78903 -0.01563,1.1348 0.1029,1.4965 0.62857,2.5926 0.97852,2.5527 0.35831,-0.0409 0.61683,-1.1226 1.1777,-2.1719 0.28412,-0.53148 0.61519,-0.99767 1.0117,-1.3144 0.002,-0.002 0.0039,-0.002 0.0059,-0.004 l 0.35352,0.0215 c 16.176,1.3345 9.2707,-24.165 30.535,-26.553 -13.627,-5.4729 -21.928,-20.105 13.807,-20.977 5.4874,10.335 10.976,9.4933 16.463,11.152 7.0575,13.959 0.76774,19.577 -2.9219,26.818 -7.8527,3.8041 -22.954,-5.078 -23.1,12.213 l 2.8906,-0.0195 c -0.12842,0.58857 -0.16818,1.1622 -0.1543,1.6621 0.0403,1.4534 0.48642,2.5499 0.76953,2.5176 0.28848,-0.0329 0.47536,-1.117 0.9707,-2.209 0.25109,-0.55355 0.55848,-1.0578 0.94532,-1.4336 0.31993,-0.31077 0.64256,-0.47871 0.98437,-0.56055 l 10.686,-0.0742 c -0.0639,0.47194 -0.0763,0.92457 -0.0547,1.3262 0.0797,1.4805 0.57527,2.5781 0.90039,2.541 0.33228,-0.0379 0.56315,-1.1224 1.0996,-2.1875 0.27188,-0.53983 0.59531,-1.0186 0.98828,-1.3574 0.1874,-0.16158 0.36834,-0.27186 0.54883,-0.3457 l 8.5547,-0.0586 c -0.12418,0.58371 -0.16345,1.1512 -0.14844,1.6465 0.0442,1.456 0.49602,2.5523 0.7832,2.5195 0.2927,-0.0334 0.48507,-1.1176 0.98438,-2.207 0.25311,-0.55225 0.55983,-1.0536 0.94726,-1.4258 0.33266,-0.31957 0.668,-0.48481 1.0215,-0.5586 l 6.0488,-0.041 c 1.1789,-17.154 1.9351,-34.549 12.746,-46.199 -13.704,5.1753 -22.003,-4.2455 -28.676,-18.057 25.48,13.273 45.375,-0.7086 43.992,-12.479 -1.3832,-11.77 -7.4452,-13.786 -12.211,-21.689 -4.7658,-7.9033 16.366,-15.619 15.229,5.7617 20.037,-30.305 -17.87,-29.93 -24.846,-16.707 6.1377,-14.571 15.533,-17.202 23.561,-24.844 3.3322,-3.6323 6.7681,-8.4676 6.8535,-14.564 0.0854,-6.0969 -3.856,-11.896 -10.281,-13.279 -6.4252,-1.3834 -12.208,-1.9344 -17.133,3 -5.671,4.5167 -4.4045,7.0497 -5.5703,10.279 4.7391,-4.6574 12.031,-9.5797 17.992,-6.4238 5.9614,3.1558 8.5504,7.8051 1.2852,15.848 -7.2652,8.0426 -18.493,15.858 -22.703,24.416 -2.9132,10.041 4.3694,15.415 15.85,30.842 11.48,15.427 -19.087,22.579 -30.414,11.137 -10.213,-35.363 -10.226,-45.479 -11.137,-41.551 l -0.42774,-5.9961 c 7.2746,0.41354 13.741,-0.78619 15.42,-11.564 l -2.998,-7.7109 c -14.485,17.302 -20.415,-27.952 0.85547,-11.566 l 0,-10.709 c -11.734,1.7946 -6.9665,-14.52 4.7129,-7.2812 l 5.5684,-8.1387 -1.7129,-1.7129 3.4258,1.2852 3,-3.8555 c -2.7784,-2.4378 -3.7006,-2.5544 -8.9961,-8.1387 -9.9948,-4.6291 -19.99,-1.0963 -29.984,-15.85 z"
             transform="translate(-318.63,75.116)"
             inkscape:connector-curvature="0" />
          <path
             id="path3532"
             d="m -178.04,327.86 c 4.852,1.2296 10.533,3.3183 15.385,-2.8621 -2.5863,11.653 -11.88,11.665 -17.596,5.3205 z"
             inkscape:connector-curvature="0" />
          <path
             id="path3534"
             d="m -292.09,342.15 0.42747,2.7037 9.8779,0.11361 -8.5619,-4.9275 -1.7435,2.1102 z"
             inkscape:connector-curvature="0" />
          <path
             id="path3536"
             d="m -292.16,350.08 0.85896,2.2784 c 2.9264,-0.56176 5.8528,-1.1235 8.7792,-1.6853 -2.8354,-0.91634 -5.6708,-1.8327 -8.5063,-2.749 -0.37728,0.71863 -0.75456,1.4373 -1.1318,2.1559 z"
             inkscape:connector-curvature="0" />
          <path
             id="path3538"
             d="m -290.68,357.05 1.2562,1.014 c 2.0278,-0.684 4.0557,-1.368 6.0836,-2.052 l -6.414,-0.28467 -0.9258,1.3226 z"
             inkscape:connector-curvature="0" />
          <path
             id="path3541"
             d="m -198.54,312.65 c 1.0906,-0.16896 1.9085,-0.16858 3.0333,-0.33472 -0.69387,0.77929 -0.99642,2.9814 1.3066,5.1086 -3.2183,-0.25888 -5.2284,-1.5968 -6.9204,-2.9177 0.65981,-1.0744 1.5946,-1.7034 2.5805,-1.8561 z"
             inkscape:connector-curvature="0" />
        </g>
        <rect
           id="rect3543"
           ry="0"
           height="1.8227"
           width="2.2567"
           y="312.48001"
           x="-193.08" />
      </g>
      <g
         id="g3563"
         transform="translate(-5.056,-2.1121)"
         clip-path="url(#clipPath3595-2)"
         style="fill:#2c5aa0">
        <path
           id="path3565"
           d="m -283.78,297.24 a 15.075,15.075 0 0 0 -15.074,15.074 15.075,15.075 0 0 0 8.0195,13.309 c -0.0693,0.0183 -0.31099,0.0803 -0.34375,0.0898 -0.40909,0.11757 -0.76534,0.24928 -1.0215,0.39063 -0.12951,0.0714 -0.24144,0.15309 -0.32813,0.23828 -0.0444,0.0428 -0.0848,0.0892 -0.11718,0.13672 -0.0337,0.0496 -0.0603,0.10064 -0.0801,0.15625 -0.0199,0.0559 -0.0302,0.11297 -0.0332,0.17383 -0.002,0.0589 0.003,0.11887 0.0176,0.18164 0.0295,0.12622 0.0934,0.25649 0.19141,0.39257 0.19651,0.27283 0.52964,0.55344 0.98828,0.81055 0.95327,0.53353 2.4122,0.94021 4.207,0.94922 0.13225,-1.6e-4 0.27185,-0.0154 0.40625,-0.0195 l 0,123.61 c 0,0.10449 0.083,0.18945 0.1875,0.18945 l -5.2969,0 c -0.0723,0 -0.13086,0.0585 -0.13086,0.13086 l 0,9.2422 c 0,0.0723 0.0585,0.13086 0.13086,0.13086 l 8.2773,0 8.2773,0 c 0.0723,0 0.13086,-0.0585 0.13086,-0.13086 l 0,-9.2422 c 0,-0.0723 -0.0585,-0.13086 -0.13086,-0.13086 l -5.2988,0 c 0.10449,0 0.18945,-0.085 0.18945,-0.18945 l 0,-125.18 c 0.6906,-0.32876 1.3359,-0.6844 1.9238,-1.0625 a 15.075,15.075 0 0 0 9.9824,-14.17 15.075,15.075 0 0 0 -15.074,-15.074 z m 0,165.18 a 6.3362,6.3362 0 0 0 -6.3359,6.3359 6.3362,6.3362 0 0 0 6.3359,6.3359 6.3362,6.3362 0 0 0 6.3359,-6.3359 6.3362,6.3362 0 0 0 -6.3359,-6.3359 z m 0,-158.95 a 8.8368,8.8368 0 0 1 8.8359,8.8359 8.8368,8.8368 0 0 1 -8.8359,8.8379 8.8368,8.8368 0 0 1 -8.8379,-8.8379 8.8368,8.8368 0 0 1 8.8379,-8.8359 z"
           inkscape:connector-curvature="0" />
        <g
           id="g22"
           style="fill-rule:evenodd">
          <path
             id="path3567"
             d="m 108.37,215.96 c -5.4504,6.2511 -4.1299,9.4253 -1.9004,12.186 -7.7434,-0.0794 -16.232,-1.5244 -19.914,5.8418 20.825,-0.2106 1.047,25.858 -9.0273,14.338 1.8569,5.5478 6.3818,8.8717 12.48,10.885 l -10.621,20.445 c 3.0724,12.843 -4.1982,14.055 -6.9043,14.338 0.42164,-24.57 -39.726,-30.922 -43.014,-33.455 -5.1328,2.8175 -7.3275,6.125 -3.9824,10.355 -3.5402,2.8322 -3.5402,5.6639 0,8.4961 -1.7574,2.3422 -0.43718,3.9154 0.53125,5.5762 l 13.01,3.7168 c 3.8909,-0.0122 29.39,5.5407 10.621,13.809 8.1496,3.7522 15.889,5.4601 21.24,-4.7793 3.807,8.3159 10.428,8.1915 16.994,8.2305 -19.88,14.072 -49.485,26.859 -60.539,25.49 -2.3172,1.0301 -7.221,1.1319 -6.9023,7.4336 2.1815,-2.0692 4.9003,-2.7945 8.4961,-1.3281 -3.3854,1.8207 -6.7635,3.647 -5.3105,8.2324 6.0915,-4.304 6.923,-2.4726 9.0273,-2.125 l -2.9199,5.5762 3.4512,-2.6562 6.1074,0 1.5938,7.4356 c 5.8277,-14.196 13.591,-13.839 21.506,-6.373 11.786,-5.9318 18.479,-11.226 24.693,-16.461 l 6.6387,11.947 c 4.8636,-3.0574 13.365,-2.7365 9.0273,-14.338 37.775,22.781 -58.523,26.57 -25.49,52.572 -1.8667,16.569 -9.4891,27.753 -33.189,23.896 -6.6779,3.9828 -7.2088,7.9664 -6.9043,11.949 l 3.6992,0.22851 c -0.11528,0.56143 -0.15377,1.1077 -0.14062,1.5859 0.04,1.4531 0.48488,2.5498 0.76758,2.5176 0.28804,-0.0328 0.47577,-1.1187 0.9707,-2.2109 0.25089,-0.55368 0.55659,-1.0575 0.94336,-1.4336 0.11501,-0.11184 0.23124,-0.20071 0.34766,-0.2793 l 9.7461,0.60547 c -0.07045,0.51371 -0.08237,1.0064 -0.05273,1.4375 0.1029,1.4965 0.62661,2.5926 0.97656,2.5527 0.35831,-0.0409 0.61683,-1.1226 1.1777,-2.1719 0.28412,-0.53148 0.61714,-0.99768 1.0137,-1.3145 0.16747,-0.13378 0.32626,-0.21978 0.48242,-0.28125 l 10.809,0.66993 c -0.03667,0.40323 -0.03939,0.78903 -0.01563,1.1348 0.1029,1.4965 0.62857,2.5926 0.97852,2.5527 0.35831,-0.0409 0.61683,-1.1226 1.1777,-2.1719 0.28412,-0.53148 0.61519,-0.99767 1.0117,-1.3144 0.002,-0.002 0.0039,-0.002 0.0059,-0.004 l 0.35352,0.0215 c 16.176,1.3345 9.2707,-24.165 30.535,-26.553 -13.627,-5.4729 -21.928,-20.105 13.807,-20.977 5.4874,10.335 10.976,9.4933 16.463,11.152 7.0575,13.959 0.76774,19.577 -2.9219,26.818 -7.8527,3.8041 -22.954,-5.078 -23.1,12.213 l 2.8906,-0.0195 c -0.12842,0.58857 -0.16818,1.1622 -0.1543,1.6621 0.0403,1.4534 0.48642,2.5499 0.76953,2.5176 0.28848,-0.0329 0.47536,-1.117 0.9707,-2.209 0.25109,-0.55355 0.55848,-1.0578 0.94532,-1.4336 0.31993,-0.31077 0.64256,-0.47871 0.98437,-0.56055 l 10.686,-0.0742 c -0.0639,0.47194 -0.0763,0.92457 -0.0547,1.3262 0.0797,1.4805 0.57527,2.5781 0.90039,2.541 0.33228,-0.0379 0.56315,-1.1224 1.0996,-2.1875 0.27188,-0.53983 0.59531,-1.0186 0.98828,-1.3574 0.1874,-0.16158 0.36834,-0.27186 0.54883,-0.3457 l 8.5547,-0.0586 c -0.12418,0.58371 -0.16345,1.1512 -0.14844,1.6465 0.0442,1.456 0.49602,2.5523 0.7832,2.5195 0.2927,-0.0334 0.48507,-1.1176 0.98438,-2.207 0.25311,-0.55225 0.55983,-1.0536 0.94726,-1.4258 0.33266,-0.31957 0.668,-0.48481 1.0215,-0.5586 l 6.0488,-0.041 c 1.1789,-17.154 1.9351,-34.549 12.746,-46.199 -13.704,5.1753 -22.003,-4.2455 -28.676,-18.057 25.48,13.273 45.375,-0.7086 43.992,-12.479 -1.3832,-11.77 -7.4452,-13.786 -12.211,-21.689 -4.7658,-7.9033 16.366,-15.619 15.229,5.7617 20.037,-30.305 -17.87,-29.93 -24.846,-16.707 6.1377,-14.571 15.533,-17.202 23.561,-24.844 3.3322,-3.6323 6.7681,-8.4676 6.8535,-14.564 0.0854,-6.0969 -3.856,-11.896 -10.281,-13.279 -6.4252,-1.3834 -12.208,-1.9344 -17.133,3 -5.671,4.5167 -4.4045,7.0497 -5.5703,10.279 4.7391,-4.6574 12.031,-9.5797 17.992,-6.4238 5.9614,3.1558 8.5504,7.8051 1.2852,15.848 -7.2652,8.0426 -18.493,15.858 -22.703,24.416 -2.9132,10.041 4.3694,15.415 15.85,30.842 11.48,15.427 -19.087,22.579 -30.414,11.137 -10.213,-35.363 -10.226,-45.479 -11.137,-41.551 l -0.42774,-5.9961 c 7.2746,0.41354 13.741,-0.78619 15.42,-11.564 l -2.998,-7.7109 c -14.485,17.302 -20.415,-27.952 0.85547,-11.566 l 0,-10.709 c -11.734,1.7946 -6.9665,-14.52 4.7129,-7.2812 l 5.5684,-8.1387 -1.7129,-1.7129 3.4258,1.2852 3,-3.8555 c -2.7784,-2.4378 -3.7006,-2.5544 -8.9961,-8.1387 -9.9948,-4.6291 -19.99,-1.0963 -29.984,-15.85 z"
             transform="translate(-318.63,75.116)"
             inkscape:connector-curvature="0" />
          <path
             id="path3570"
             d="m -178.04,327.86 c 4.852,1.2296 10.533,3.3183 15.385,-2.8621 -2.5863,11.653 -11.88,11.665 -17.596,5.3205 z"
             inkscape:connector-curvature="0" />
          <path
             id="path3572"
             d="m -292.09,342.15 0.42747,2.7037 9.8779,0.11361 -8.5619,-4.9275 -1.7435,2.1102 z"
             inkscape:connector-curvature="0" />
          <path
             id="path3574"
             d="m -292.16,350.08 0.85896,2.2784 c 2.9264,-0.56176 5.8528,-1.1235 8.7792,-1.6853 -2.8354,-0.91634 -5.6708,-1.8327 -8.5063,-2.749 -0.37728,0.71863 -0.75456,1.4373 -1.1318,2.1559 z"
             inkscape:connector-curvature="0" />
          <path
             id="path3577"
             d="m -290.68,357.05 1.2562,1.014 c 2.0278,-0.684 4.0557,-1.368 6.0836,-2.052 l -6.414,-0.28467 -0.9258,1.3226 z"
             inkscape:connector-curvature="0" />
          <path
             id="path3579"
             d="m -198.54,312.65 c 1.0906,-0.16896 1.9085,-0.16858 3.0333,-0.33472 -0.69387,0.77929 -0.99642,2.9814 1.3066,5.1086 -3.2183,-0.25888 -5.2284,-1.5968 -6.9204,-2.9177 0.65981,-1.0744 1.5946,-1.7034 2.5805,-1.8561 z"
             inkscape:connector-curvature="0" />
        </g>
        <rect
           id="rect3581"
           ry="0"
           height="1.8227"
           width="2.2567"
           y="312.48001"
           x="-193.08" />
      </g>
      <g
         id="g3516">
        <path
           id="path3436"
           d="m -283.78,297.24 a 15.075,15.075 0 0 0 -15.074,15.074 15.075,15.075 0 0 0 8.0195,13.309 c -0.0693,0.0183 -0.31099,0.0803 -0.34375,0.0898 -0.40909,0.11757 -0.76534,0.24928 -1.0215,0.39063 -0.12951,0.0714 -0.24144,0.15309 -0.32813,0.23828 -0.0444,0.0428 -0.0848,0.0892 -0.11718,0.13672 -0.0337,0.0496 -0.0603,0.10064 -0.0801,0.15625 -0.0199,0.0559 -0.0302,0.11297 -0.0332,0.17383 -0.002,0.0589 0.003,0.11887 0.0176,0.18164 0.0295,0.12622 0.0934,0.25649 0.19141,0.39257 0.19651,0.27283 0.52964,0.55344 0.98828,0.81055 0.95327,0.53353 2.4122,0.94021 4.207,0.94922 0.13225,-1.6e-4 0.27185,-0.0154 0.40625,-0.0195 l 0,123.61 c 0,0.10449 0.083,0.18945 0.1875,0.18945 l -5.2969,0 c -0.0723,0 -0.13086,0.0585 -0.13086,0.13086 l 0,9.2422 c 0,0.0723 0.0585,0.13086 0.13086,0.13086 l 8.2773,0 8.2773,0 c 0.0723,0 0.13086,-0.0585 0.13086,-0.13086 l 0,-9.2422 c 0,-0.0723 -0.0585,-0.13086 -0.13086,-0.13086 l -5.2988,0 c 0.10449,0 0.18945,-0.085 0.18945,-0.18945 l 0,-125.18 c 0.6906,-0.32876 1.3359,-0.6844 1.9238,-1.0625 a 15.075,15.075 0 0 0 9.9824,-14.17 15.075,15.075 0 0 0 -15.074,-15.074 z m 0,165.18 a 6.3362,6.3362 0 0 0 -6.3359,6.3359 6.3362,6.3362 0 0 0 6.3359,6.3359 6.3362,6.3362 0 0 0 6.3359,-6.3359 6.3362,6.3362 0 0 0 -6.3359,-6.3359 z m 0,-158.95 a 8.8368,8.8368 0 0 1 8.8359,8.8359 8.8368,8.8368 0 0 1 -8.8359,8.8379 8.8368,8.8368 0 0 1 -8.8379,-8.8379 8.8368,8.8368 0 0 1 8.8379,-8.8359 z"
           inkscape:connector-curvature="0"
           style="fill:#0000ff" />
        <path
           id="path3432"
           d="m 108.37,215.96 c -5.4504,6.2511 -4.1299,9.4253 -1.9004,12.186 -7.7434,-0.0794 -16.232,-1.5244 -19.914,5.8418 20.825,-0.2106 1.047,25.858 -9.0273,14.338 1.8569,5.5478 6.3818,8.8717 12.48,10.885 l -10.621,20.445 c 3.0724,12.843 -4.1982,14.055 -6.9043,14.338 0.42164,-24.57 -39.726,-30.922 -43.014,-33.455 -5.1328,2.8175 -7.3275,6.125 -3.9824,10.355 -3.5402,2.8322 -3.5402,5.6639 0,8.4961 -1.7574,2.3422 -0.43718,3.9154 0.53125,5.5762 l 13.01,3.7168 c 3.8909,-0.0122 29.39,5.5407 10.621,13.809 8.1496,3.7522 15.889,5.4601 21.24,-4.7793 3.807,8.3159 10.428,8.1915 16.994,8.2305 -19.88,14.072 -49.485,26.859 -60.539,25.49 -2.3172,1.0301 -7.221,1.1319 -6.9023,7.4336 2.1815,-2.0692 4.9003,-2.7945 8.4961,-1.3281 -3.3854,1.8207 -6.7635,3.647 -5.3105,8.2324 6.0915,-4.304 6.923,-2.4726 9.0273,-2.125 l -2.9199,5.5762 3.4512,-2.6562 6.1074,0 1.5938,7.4356 c 5.8277,-14.196 13.591,-13.839 21.506,-6.373 11.786,-5.9318 18.479,-11.226 24.693,-16.461 l 6.6387,11.947 c 4.8636,-3.0574 13.365,-2.7365 9.0273,-14.338 37.775,22.781 -58.523,26.57 -25.49,52.572 -1.8667,16.569 -9.4891,27.753 -33.189,23.896 -6.6779,3.9828 -7.2088,7.9664 -6.9043,11.949 l 3.6992,0.22851 c -0.11528,0.56143 -0.15377,1.1077 -0.14062,1.5859 0.04,1.4531 0.48488,2.5498 0.76758,2.5176 0.28804,-0.0328 0.47577,-1.1187 0.9707,-2.2109 0.25089,-0.55368 0.55659,-1.0575 0.94336,-1.4336 0.11501,-0.11184 0.23124,-0.20071 0.34766,-0.2793 l 9.7461,0.60547 c -0.07045,0.51371 -0.08237,1.0064 -0.05273,1.4375 0.1029,1.4965 0.62661,2.5926 0.97656,2.5527 0.35831,-0.0409 0.61683,-1.1226 1.1777,-2.1719 0.28412,-0.53148 0.61714,-0.99768 1.0137,-1.3145 0.16747,-0.13378 0.32626,-0.21978 0.48242,-0.28125 l 10.809,0.66993 c -0.03667,0.40323 -0.03939,0.78903 -0.01563,1.1348 0.1029,1.4965 0.62857,2.5926 0.97852,2.5527 0.35831,-0.0409 0.61683,-1.1226 1.1777,-2.1719 0.28412,-0.53148 0.61519,-0.99767 1.0117,-1.3144 0.002,-0.002 0.0039,-0.002 0.0059,-0.004 l 0.35352,0.0215 c 16.176,1.3345 9.2707,-24.165 30.535,-26.553 -13.627,-5.4729 -21.928,-20.105 13.807,-20.977 5.4874,10.335 10.976,9.4933 16.463,11.152 7.0575,13.959 0.76774,19.577 -2.9219,26.818 -7.8527,3.8041 -22.954,-5.078 -23.1,12.213 l 2.8906,-0.0195 c -0.12842,0.58857 -0.16818,1.1622 -0.1543,1.6621 0.0403,1.4534 0.48642,2.5499 0.76953,2.5176 0.28848,-0.0329 0.47536,-1.117 0.9707,-2.209 0.25109,-0.55355 0.55848,-1.0578 0.94532,-1.4336 0.31993,-0.31077 0.64256,-0.47871 0.98437,-0.56055 l 10.686,-0.0742 c -0.0639,0.47194 -0.0763,0.92457 -0.0547,1.3262 0.0797,1.4805 0.57527,2.5781 0.90039,2.541 0.33228,-0.0379 0.56315,-1.1224 1.0996,-2.1875 0.27188,-0.53983 0.59531,-1.0186 0.98828,-1.3574 0.1874,-0.16158 0.36834,-0.27186 0.54883,-0.3457 l 8.5547,-0.0586 c -0.12418,0.58371 -0.16345,1.1512 -0.14844,1.6465 0.0442,1.456 0.49602,2.5523 0.7832,2.5195 0.2927,-0.0334 0.48507,-1.1176 0.98438,-2.207 0.25311,-0.55225 0.55983,-1.0536 0.94726,-1.4258 0.33266,-0.31957 0.668,-0.48481 1.0215,-0.5586 l 6.0488,-0.041 c 1.1789,-17.154 1.9351,-34.549 12.746,-46.199 -13.704,5.1753 -22.003,-4.2455 -28.676,-18.057 25.48,13.273 45.375,-0.7086 43.992,-12.479 -1.3832,-11.77 -7.4452,-13.786 -12.211,-21.689 -4.7658,-7.9033 16.366,-15.619 15.229,5.7617 20.037,-30.305 -17.87,-29.93 -24.846,-16.707 6.1377,-14.571 15.533,-17.202 23.561,-24.844 3.3322,-3.6323 6.7681,-8.4676 6.8535,-14.564 0.0854,-6.0969 -3.856,-11.896 -10.281,-13.279 -6.4252,-1.3834 -12.208,-1.9344 -17.133,3 -5.671,4.5167 -4.4045,7.0497 -5.5703,10.279 4.7391,-4.6574 12.031,-9.5797 17.992,-6.4238 5.9614,3.1558 8.5504,7.8051 1.2852,15.848 -7.2652,8.0426 -18.493,15.858 -22.703,24.416 -2.9132,10.041 4.3694,15.415 15.85,30.842 11.48,15.427 -19.087,22.579 -30.414,11.137 -10.213,-35.363 -10.226,-45.479 -11.137,-41.551 l -0.42774,-5.9961 c 7.2746,0.41354 13.741,-0.78619 15.42,-11.564 l -2.998,-7.7109 c -14.485,17.302 -20.415,-27.952 0.85547,-11.566 l 0,-10.709 c -11.734,1.7946 -6.9665,-14.52 4.7129,-7.2812 l 5.5684,-8.1387 -1.7129,-1.7129 3.4258,1.2852 3,-3.8555 c -2.7784,-2.4378 -3.7006,-2.5544 -8.9961,-8.1387 -9.9948,-4.6291 -19.99,-1.0963 -29.984,-15.85 z"
           transform="translate(-318.63,75.116)"
           inkscape:connector-curvature="0"
           style="fill:#0000ff;fill-rule:evenodd" />
        <path
           id="path3434"
           d="m -178.04,327.86 c 4.852,1.2296 10.533,3.3183 15.385,-2.8621 -2.5863,11.653 -11.88,11.665 -17.596,5.3205 z"
           inkscape:connector-curvature="0"
           style="fill:#ff0000;fill-rule:evenodd" />
        <g
           id="g35"
           style="fill:#999999;fill-rule:evenodd">
          <path
             id="path3463"
             d="m -292.09,342.15 0.42747,2.7037 9.8779,0.11361 -8.5619,-4.9275 -1.7435,2.1102 z"
             inkscape:connector-curvature="0" />
          <path
             id="path3467"
             d="m -292.16,350.08 0.85896,2.2784 c 2.9264,-0.56176 5.8528,-1.1235 8.7792,-1.6853 -2.8354,-0.91634 -5.6708,-1.8327 -8.5063,-2.749 -0.37728,0.71863 -0.75456,1.4373 -1.1318,2.1559 z"
             inkscape:connector-curvature="0" />
          <path
             id="path3471"
             d="m -290.68,357.05 1.2562,1.014 c 2.0278,-0.684 4.0557,-1.368 6.0836,-2.052 l -6.414,-0.28467 -0.9258,1.3226 z"
             inkscape:connector-curvature="0" />
        </g>
        <path
           id="path3501"
           d="m -198.54,312.65 c 1.0906,-0.16896 1.9085,-0.16858 3.0333,-0.33472 -0.69387,0.77929 -0.99642,2.9814 1.3066,5.1086 -3.2183,-0.25888 -5.2284,-1.5968 -6.9204,-2.9177 0.65981,-1.0744 1.5946,-1.7034 2.5805,-1.8561 z"
           inkscape:connector-curvature="0"
           style="fill:#e6e6e6;fill-rule:evenodd" />
        <rect
           id="rect3505"
           ry="0"
           height="1.8227"
           width="2.2567"
           y="312.48001"
           x="-193.08"
           style="fill:#e6e6e6" />
      </g>
    </g>
  </g>
  <circle
     style="opacity:1;fill:none;fill-opacity:1;stroke:#0000ff;stroke-width:0.75;stroke-linecap:round;stroke-linejoin:round;stroke-miterlimit:4;stroke-dasharray:none;stroke-opacity:1"
     id="path3370"
     cx="44.99889"
     cy="44.999626"
     r="43.624634" />
</svg>
