<?xml version="1.0" encoding="UTF-8" standalone="no"?>
<svg
   xmlns:dc="http://purl.org/dc/elements/1.1/"
   xmlns:cc="http://creativecommons.org/ns#"
   xmlns:rdf="http://www.w3.org/1999/02/22-rdf-syntax-ns#"
   xmlns:svg="http://www.w3.org/2000/svg"
   xmlns="http://www.w3.org/2000/svg"
   xmlns:sodipodi="http://sodipodi.sourceforge.net/DTD/sodipodi-0.dtd"
   xmlns:inkscape="http://www.inkscape.org/namespaces/inkscape"
   id="svg2"
   viewBox="0 0 90.002267 89.999701"
   height="25.400002mm"
   width="25.4mm"
   version="1.1"
   inkscape:version="0.91 r13725"
   sodipodi:docname="crystal_palace.svg">
  <sodipodi:namedview
     pagecolor="#ffffff"
     bordercolor="#666666"
     borderopacity="1"
     objecttolerance="10"
     gridtolerance="10"
     guidetolerance="10"
     inkscape:pageopacity="0"
     inkscape:pageshadow="2"
     inkscape:window-width="1366"
     inkscape:window-height="747"
     id="namedview26"
     showgrid="false"
     inkscape:zoom="6.4888887"
     inkscape:cx="45"
     inkscape:cy="45.000001"
     inkscape:window-x="0"
     inkscape:window-y="21"
     inkscape:window-maximized="1"
     inkscape:current-layer="svg2"
     fit-margin-top="0"
     fit-margin-left="0"
     fit-margin-right="0"
     fit-margin-bottom="0" />
  <defs
     id="defs4">/&gt;</defs>
  <metadata
     id="metadata7">
    <rdf:RDF>
      <cc:Work
         rdf:about="">
        <dc:format>image/svg+xml</dc:format>
        <dc:type
           rdf:resource="http://purl.org/dc/dcmitype/StillImage" />
        <dc:title></dc:title>
      </cc:Work>
    </rdf:RDF>
  </metadata>
  <g
     id="layer1"
     transform="matrix(0.92851473,0,0,0.92851473,89.360164,-613.39516)">
    <g
       id="g3774"
       transform="matrix(0.2723,0,0,0.2723,-38.764,677.73)">
      <text
         id="text3706"
         style="font-size:40px;line-height:125%;font-family:sans-serif;letter-spacing:0px;word-spacing:0px;fill:#000000"
         line-height="125%"
         font-size="40px"
         y="116.99592"
         x="236.1418"
         xml:space="preserve"
         sodipodi:linespacing="125%"><tspan
           id="tspan3710"
           y="116.99592"
           x="236.1418" /></text>
      <path
         id="path3726"
         d="m -75.124,-9.6917 c -9.8338,48.763 9.1668,69.494 33.203,85.328 13.393,23.882 26.312,39.85 48.912,54.624 L 6.63398,125.262 c 5.1514,5.1508 10.075,11.666 14.281,22.492 l -2.2882,7.5734 c 1.2548,5.3165 2.7084,10.729 -7.6827,10.783 l 1.4386,-2.4139 c -2.8833,-2.31 -7.1916,-4.03 -7.3316,-8.09 l -7.9449,-3.2407 c -1.7075,0.43493 -3.4149,1.9735 -5.1224,4.077 l -0.52269,-2.718 c -4.2695,2.1769 -7.5686,5.5006 -8.7812,11.29 l -2.4044,-4.4952 -1.4635,4.5997 2.8225,6.795 -2.2998,-1.1499 1.4635,9.1994 -2.0908,-0.20908 c -0.68011,10.455 16.66,10.034 7.3177,23.939 -0.26033,-3.6783 0.33794,-7.2493 -1.9862,-11.186 l -1.359,7.5268 c 1.4156,-5.1941 -8.6382,-15.134 -16.413,-14.113 2.0169,-0.79898 2.7639,-2.4772 8.154,-0.94085 0.13025,-7.7807 -7.0002,-5.4131 -10.036,-12.545 l 4.8088,1.359 c -4.3942,-3.7362 -3.9935,-9.9014 -7.6313,-10.663 -3.4258,5.6131 -1.2593,9.735 -0.83631,14.322 l -2.6135,-0.8363 1.4635,6.6905 -3.8679,-0.83631 c 0.76409,2.4076 2.5138,4.0391 4.5997,4.4952 6.526,1.427 14.39,-1.7293 16.622,9.1994 -6.8505,-7.6372 -8.0766,-4.891 -11.708,-6.5859 2.327,1.4615 6.0387,1.7115 6.3769,4.9133 -10.675,-3.9348 -12.193,-0.12074 -16.099,1.6726 -8.4868,-0.44691 -8.3162,3.1529 -10.036,6.2723 -1.4293,-2.8466 -2.9994,-5.077 6.4814,-12.754 -0.18623,-7.4788 -1.937,-8.6996 -3.1362,-12.126 -4.0548,-2.4044 -4.3555,-4.8088 -6.1678,-7.2132 l 5.1224,3.3452 -0.62723,-2.8225 c -3.197,-1.9751 -4.5701,-4.7318 -5.8542,-7.5268 l 3.3452,1.6726 -2.8225,-5.5406 4.077,-3.5543 c -7.1086,1.9172 -14.217,1.7112 -21.326,1.1499 l 12.336,-10.349 -17.772,8.4676 c -8.4081,-0.13014 -15.766,-1.9398 -22.789,-4.2861 8.9415,0.40443 17.563,-4.3048 26.239,-8.154 -8.0146,1.802 -16.029,2.6176 -24.044,3.0316 -7.9827,-5.3143 -14.138,-12.639 -19.34,-21.012 9.3786,3.9877 18.882,6.6048 28.539,7.5268 l -9.1994,-11.29 c 12.562,7.4173 25.187,14.522 41.293,4.4952 l -9.4085,-0.20907 -11.708,-9.3039 c 5.0785,-0.94027 9.9522,-2.1309 17.458,-0.10454 -7.2148,-4.1624 -15.286,-4.3298 -23.312,-4.7042 l -16.203,-13.59 10.977,0.83631 -15.576,-14.949 c 9.5478,1.8418 19.096,3.9276 28.644,7.4222 -9.86,-7.0062 -20.956,-12.227 -35.229,-12.858 l -15.263,-14.008 19.758,4.1815 c -11.44,-15.347 -19.454,-33.738 -17.667,-60.841 3.4835,13.759 7.1621,27.302 15.472,35.752 -2.2178,-17.966 0.47311,-35.736 10.558,-53.21 -0.76428,16.302 3.8435,31.365 9.4085,46.206 0.88309,-20.405 8.4855,-33.67 17.15,-45.806 z"
         inkscape:connector-curvature="0"
         style="fill:#000080;fill-rule:evenodd" />
      <g
         id="g10"
         style="fill:#ffffff;fill-rule:evenodd">
        <path
           id="path3728"
           d="m 5.793,152.86 c 3.5274,2.2464 6.9779,5.2001 11.081,2.1533 -0.24373,0.14518 5.0491,8.0285 -3.5889,10.094 2.2865,-4.2342 -2.3816,-8.2476 -7.4917,-12.247 z"
           inkscape:connector-curvature="0" />
        <path
           id="path3730"
           d="m 7.5875,156.18 0.53833,2.5571 3.858,3.0057 z"
           inkscape:connector-curvature="0" />
        <path
           id="path3732"
           d="m 7.5778,140.78 5.5486,11.827 c 0.69432,-1.5961 1.2992,-3.304 1.2412,-5.8407 l 2.1172,6.4248 c 1.3179,-2.8452 5.7643,-3.9161 -7.5929,-21.903 l -0.51106,4.1615 c -6.0815,-5.9708 -9.4597,-7.8864 -13.653,-11.024 l -0.73008,7.6659 -5.3296,-10.075 -0.14601,6.4978 c -6.118,-12.44 -28.388,-34.19 -34.458,-49.65 -17.064,-14.47 -40.787,-29.297 -35.41,-69.358 -4.953,20.118 -11.677,39.964 13.288,64.685 -21.283,-14.904 -35.771,-36.6 -35.771,-72.789 -13.603,87.287 53.996,74.328 81.039,128.06 -13.229,-14.127 -30.562,-24.025 -53.515,-28.619 10.976,6.1695 21.951,11.04 32.927,19.639 -4.3587,1.5332 -7.02,3.0664 -8.907,4.5995 8.5195,-1.0968 13.828,0.83843 18.982,2.9203 -16.147,-0.91053 -22.421,7.7767 -34.095,9.3451 12.437,2.83 29.309,-6.0674 38.11,-0.073 -9.4965,-0.48067 -18.492,3.5744 -25.261,8.177 l 16.646,1.7522 -11.462,8.25 c -0.73264,5.1311 0.19123,9.9699 2.7013,14.529 0.97416,-4.0349 1.4582,-8.1188 4.2345,-11.973 4.2102,0.78875 8.4203,0.57571 12.63,-1.6792 -1.8165,9.0443 1.9605,12.495 4.4535,17.23 0.48582,-6.5328 -0.95825,-18.012 11.243,-24.02 -3.8331,-1.6374 -7.5553,-3.3698 -10.075,-6.1327 4.8672,2.1034 9.7345,2.6742 14.602,3.5044 l -5.9867,-5.9867 c 3.9608,0.65759 8.2977,2.8191 12.63,4.9646 l -4.8916,-5.9137 6.2787,2.9203 2.7743,5.2566 8.98,5.9867 -1.9712,-2.8473 2.9203,0.21903 c -2.1682,-1.54 -2.1788,-3.07 -1.9,-4.61 -1.0668,-1.53 -1.353,-3.85 -1.6792,-6.13 z"
           inkscape:connector-curvature="0" />
      </g>
      <g
         id="g3744"
         transform="translate(-160,0)"
         style="fill-rule:evenodd">
        <path
           id="path3734"
           d="m 177.19,45.349 c -11.676,11.344 -21.405,29.693 -27.932,56.773 l -4.7266,-5.0664 0.17773,9.6113 c 3.0468,3.4738 6.4024,6.9402 10.125,10.264 1.8561,-17.351 4.3143,-36.281 22.355,-71.582 z"
           inkscape:connector-curvature="0"
           style="fill:#ffffff" />
        <path
           id="path3719"
           d="m 185.74,1.6279 c -17.029,10.418 -33.714,21.931 -44.752,51.412 l 3.748,21.855 c -7.4356,-13.535 -7.6834,-26.556 -7.4941,-39.547 -3.548,10.259 -6.294,21.321 -7.0781,34.344 l 9.5762,18.941 -10.199,-12.072 -1.25,8.3262 c 5.1483,7.266 9.9558,14.507 16.428,21.867 l -0.17968,-9.6992 4.7266,5.0664 c 6.5266,-27.08 16.256,-45.43 27.932,-56.773 -18.047,35.312 -20.501,54.242 -22.357,71.598 1.7829,1.5856 3.6795,3.1795 5.7148,4.7832 -3.1892,-9.174 10.119,-34.998 19.982,-43.295 2.7637,-26.209 21.694,-39.579 43.086,-50.996 -18.488,-1.8492 -28.693,1.6609 -37.883,5.8281 5.4122,-8.0345 13.755,-15.483 27.477,-21.855 -39.536,1.3119 -46.311,20.731 -57.658,45.168 1.0987,-13.749 7.7877,-27.743 21.648,-42.047 l 8.5332,-12.904 z"
           inkscape:connector-curvature="0"
           style="fill:#000080" />
      </g>
      <g
         id="g18"
         style="fill:#ff0000;fill-rule:evenodd;stroke:#ff0000;stroke-width:0.2692472">
        <path
           id="path3748"
           d="m -48.835,208.16 c 1.1227,2.7676 2.7868,4.8584 4.7706,6.5495 3.9695,-5.4785 9.1112,-9.3304 14.878,-11.239 -6.7385,-2.2164 -13.34,-1.6921 -19.649,4.6898 z"
           inkscape:connector-curvature="0"
           style="stroke-width:0.2692472" />
        <path
           id="path3750"
           d="m -42.932,215.84 c 4.9794,-5.6997 10.393,-10.593 18.355,-10.754 2.5435,1.8069 4.4599,4.3977 6.1452,7.2772 -7.9198,0.65969 -12.129,4.6175 -16.252,8.6518 -3.1022,-1.2543 -5.791,-3.0598 -8.2475,-5.1749 z"
           inkscape:connector-curvature="0"
           style="stroke-width:0.2692472" />
        <path
           id="path3752"
           d="m -22.799,215.36 c 1.5232,-1.0221 3.3015,-1.4303 5.2558,-1.3746 2.9494,8.761 0.40435,15.599 -5.2558,21.347 0.56093,-2.7565 1.2171,-5.9079 1.4012,-9.3016 0.18267,-3.3678 -0.0996,-6.9743 -1.4012,-10.67 z"
           inkscape:connector-curvature="0"
           style="stroke-width:0.2692472" />
        <path
           id="path3754"
           d="m -33.391,222.39 c 2.8406,-3.722 5.9292,-4.9633 8.9752,-6.6304 3.5386,10.742 0.77639,17.607 -4.0429,23.206 -2.6267,0.75663 -4.4274,1.0177 -5.9835,1.132 2.3454,-5.3042 3.0134,-11.112 1.0512,-17.708 z"
           inkscape:connector-curvature="0"
           style="stroke-width:0.2692472" />
        <path
           id="path3756"
           d="m -53.767,217.38 c 0.4512,-3.0593 1.7345,-5.5639 3.4769,-7.7624 3.8686,6.2576 9.5804,9.8996 15.363,13.18 0.83991,2.7991 1.1109,6.2196 0.9703,8.7327 -8.2759,-0.95907 -17.447,-8.7619 -19.81,-14.15 z"
           inkscape:connector-curvature="0"
           style="stroke-width:0.2692472" />
        <path
           id="path3758"
           d="m -54.091,221.34 c 1.1095,8.8971 4.9875,16.133 16.818,18.597 1.2927,-1.7266 2.4698,-3.6265 2.9109,-6.6304 -7.2815,-1.5719 -13.956,-5.2248 -19.729,-11.967 z"
           inkscape:connector-curvature="0"
           style="stroke-width:0.2692472" />
      </g>
    </g>
  </g>
  <ellipse
     style="opacity:1;fill:none;fill-opacity:1;stroke:#0000aa;stroke-width:0.75001895;stroke-linecap:round;stroke-linejoin:round;stroke-miterlimit:4;stroke-dasharray:none;stroke-opacity:1"
     id="path3354"
     cx="45.001133"
     cy="45.00016"
     rx="44.626125"
     ry="44.626129" />
</svg>
