<?xml version="1.0" encoding="UTF-8" standalone="no"?>
<svg
   xmlns:dc="http://purl.org/dc/elements/1.1/"
   xmlns:cc="http://creativecommons.org/ns#"
   xmlns:rdf="http://www.w3.org/1999/02/22-rdf-syntax-ns#"
   xmlns:svg="http://www.w3.org/2000/svg"
   xmlns="http://www.w3.org/2000/svg"
   xmlns:sodipodi="http://sodipodi.sourceforge.net/DTD/sodipodi-0.dtd"
   xmlns:inkscape="http://www.inkscape.org/namespaces/inkscape"
   id="svg2"
   viewBox="0 0 90.000006 90.001146"
   height="25.4mm"
   width="25.400002mm"
   version="1.1"
   inkscape:version="0.91 r13725"
   sodipodi:docname="fulham.svg">
  <sodipodi:namedview
     pagecolor="#ffffff"
     bordercolor="#666666"
     borderopacity="1"
     objecttolerance="10"
     gridtolerance="10"
     guidetolerance="10"
     inkscape:pageopacity="0"
     inkscape:pageshadow="2"
     inkscape:window-width="1366"
     inkscape:window-height="747"
     id="namedview3804"
     showgrid="false"
     fit-margin-top="0"
     fit-margin-left="0"
     fit-margin-right="0"
     fit-margin-bottom="0"
     inkscape:zoom="6.4888888"
     inkscape:cx="45.000003"
     inkscape:cy="45.000001"
     inkscape:window-x="0"
     inkscape:window-y="21"
     inkscape:window-maximized="1"
     inkscape:current-layer="svg2" />
  <defs
     id="defs4">/&gt;</defs>
  <metadata
     id="metadata7">
    <rdf:RDF>
      <cc:Work
         rdf:about="">
        <dc:format>image/svg+xml</dc:format>
        <dc:type
           rdf:resource="http://purl.org/dc/dcmitype/StillImage" />
        <dc:title></dc:title>
      </cc:Work>
    </rdf:RDF>
  </metadata>
  <g
     id="layer2"
     transform="matrix(0.94532032,0,0,0.94644821,299.49513,-41.574547)">
    <path
       id="text3828"
       d="m 43.893,69.656 -20.025,20.025 2.4863,2.4863 8.9902,-8.9902 5.9492,5.9492 -17.678,17.678 2.4844,2.4863 8.9922,-8.9902 5.5957,5.5957 c -0.93521,0.0702 -1.877,0.24328 -2.8242,0.5293 -2.3386,0.71816 -4.506,2.0763 -6.5039,4.0742 -1.6389,1.6389 -2.8879,3.3461 -3.7441,5.123 -0.83785,1.777 -1.2737,3.5218 -1.3105,5.2344 -0.02762,1.7033 0.30807,3.3659 1.0078,4.9863 0.70895,1.6297 1.7671,3.148 3.1758,4.5566 0.74578,0.74578 1.5327,1.3859 2.3613,1.9199 0.82864,0.53402 1.7355,0.96291 2.7207,1.2852 0.99437,0.33146 2.0079,0.50698 3.0391,0.52539 1.0496,0.0184 2.1678,-0.14371 3.3555,-0.48438 1.2061,-0.34066 2.4175,-0.86973 3.6328,-1.5879 l -2.5957,-2.5957 c -1.3627,1.1233 -3.0074,1.5591 -4.9316,1.3106 -1.9151,-0.23939 -3.6734,-1.1597 -5.2754,-2.7617 -1.0312,-1.0312 -1.776,-2.1449 -2.2363,-3.3418 -0.46036,-1.1969 -0.66462,-2.3393 -0.60938,-3.4258 0.06445,-1.0772 0.2955,-2.1532 0.69141,-3.2305 0.39591,-1.0772 0.86498,-2.0263 1.4082,-2.8457 0.55243,-0.81023 1.1568,-1.5416 1.8105,-2.1953 1.4455,-1.4455 3.0193,-2.4769 4.7227,-3.0938 1.7125,-0.60767 3.4485,-0.71427 5.207,-0.31836 1.7678,0.3867 3.3639,1.2936 4.791,2.7207 0.54322,0.54322 1.0142,1.1323 1.4102,1.7676 0.40511,0.62608 0.74081,1.3217 1.0078,2.0859 0.27621,0.77339 0.37639,1.6024 0.30273,2.4863 -0.06445,0.89309 -0.32229,1.7668 -0.77344,2.623 l 2.597,2.6 c 0.55243,-1.0128 0.95704,-2.0531 1.2148,-3.1211 0.2578,-1.068 0.35351,-2.206 0.28906,-3.4121 -0.05524,-1.1969 -0.39094,-2.4261 -1.0078,-3.6875 -0.60767,-1.2706 -1.4858,-2.4819 -2.6367,-3.6328 -1.439,-1.439 -3.008,-2.5003 -4.7031,-3.1934 l -8.8418,-8.8418 6.3379,-6.3398 0.69531,0.69336 10.479,10.48 2.3477,-2.3496 -10.479,-10.471 -3.179,-3.18 -5.948,-5.949 6.338,-6.34 11.174,11.174 2.348,-2.348 -13.66,-13.66 z"
       transform="translate(-309.8,-10.092)"
       inkscape:connector-curvature="0"
       style="fill:#ff5555;stroke:#000000;stroke-width:1.057212px" />
  </g>
  <ellipse
     style="opacity:1;fill:none;fill-opacity:1;stroke:#ff2a2a;stroke-width:0.75000954;stroke-linecap:round;stroke-linejoin:round;stroke-miterlimit:4;stroke-dasharray:none;stroke-opacity:1"
     id="path3806"
     cx="45.000355"
     cy="45.000568"
     rx="44.625572"
     ry="44.625565" />
</svg>
