<?xml version="1.0" encoding="UTF-8" standalone="no"?>
<svg
   xmlns:dc="http://purl.org/dc/elements/1.1/"
   xmlns:cc="http://creativecommons.org/ns#"
   xmlns:rdf="http://www.w3.org/1999/02/22-rdf-syntax-ns#"
   xmlns:svg="http://www.w3.org/2000/svg"
   xmlns="http://www.w3.org/2000/svg"
   xmlns:sodipodi="http://sodipodi.sourceforge.net/DTD/sodipodi-0.dtd"
   xmlns:inkscape="http://www.inkscape.org/namespaces/inkscape"
   id="svg2"
   viewBox="0 0 89.998536 89.999496"
   height="25.4mm"
   width="25.4mm"
   version="1.1"
   inkscape:version="0.91 r13725"
   sodipodi:docname="huddersfield.svg">
  <sodipodi:namedview
     pagecolor="#ffffff"
     bordercolor="#666666"
     borderopacity="1"
     objecttolerance="10"
     gridtolerance="10"
     guidetolerance="10"
     inkscape:pageopacity="0"
     inkscape:pageshadow="2"
     inkscape:window-width="1366"
     inkscape:window-height="747"
     id="namedview479"
     showgrid="false"
     inkscape:zoom="3.9525277"
     inkscape:cx="124.44283"
     inkscape:cy="48.289036"
     inkscape:window-x="0"
     inkscape:window-y="21"
     inkscape:window-maximized="1"
     inkscape:current-layer="svg2"
     inkscape:showpageshadow="false"
     fit-margin-top="0"
     fit-margin-left="0"
     fit-margin-right="0"
     fit-margin-bottom="0" />
  <defs
     id="defs4">/&gt;
  <clipPath
   id="clipPath3595-2"
   clipPathUnits="userSpaceOnUse">
  <path
     id="path3597-7"
     d="m -307.2,283.5 155.55,2.0795 c 0,0 33.688,19.132 4.5749,29.945 -29.1131,10.813 -36.184,13.725 -36.184,13.725 l 1.6636,12.893 43.254,-19.963 44.086,63.633 -18.716,74.863 -34.52,34.52 c 0,0 -21.211,15.388 -21.211,7.9022 l 0,-7.4863 -51.572,0.4159 -74.447,-4.9908 -17.468,-71.951 z"
     inkscape:connector-curvature="0"
     style="fill:#333333;fill-rule:evenodd" />
</clipPath>
</defs>
  <metadata
     id="metadata7">
    <rdf:RDF>
      <cc:Work
         rdf:about="">
        <dc:format>image/svg+xml</dc:format>
        <dc:type
           rdf:resource="http://purl.org/dc/dcmitype/StillImage" />
        <dc:title></dc:title>
      </cc:Work>
    </rdf:RDF>
  </metadata>
  <g
     id="g4036"
     transform="matrix(0.89151383,0,0,0.89151383,138.05168,37.341683)">
    <path
       inkscape:connector-curvature="0"
       d="m -123.97848,17.176688 19.60165,-9.1697265 19.603831,9.1697265 0,10.235897 -19.603831,-10.235897 -19.60165,10.235897 z"
       id="path5081"
       style="fill-rule:evenodd" />
    <path
       style="fill:#c19e01;fill-rule:evenodd"
       inkscape:connector-curvature="0"
       d="m -123.97848,27.413674 19.60165,-10.235897 19.603831,10.235897 0,9.101116 -19.603831,12.062764 -19.60165,-12.062764 z"
       id="path5079" />
    <path
       style="fill:#ffffff;fill-rule:evenodd"
       inkscape:connector-curvature="0"
       d="m -119.62231,-5.1432098 0,20.2823018 4.35616,-2.037705 0,-18.2447057 -4.35616,0 z"
       id="path5135" />
    <g
       transform="matrix(0.54452055,0,0,0.54452055,-186.42954,-85.541669)"
       id="g387"
       style="fill:#0079bc;fill-opacity:0.99607999">
      <path
         id="rect5087"
         d="m 114.69,147.65 0,40.961 0.0625,0 7.9375,-3.7129 0,-37.248 -8,0 z"
         inkscape:connector-curvature="0" />
      <path
         id="rect5089"
         d="m 178.69,147.65 0,37.248 7.9375,3.7129 0.0625,0 0,-40.961 -8,0 z"
         inkscape:connector-curvature="0" />
      <path
         id="rect5093"
         d="m 146.69,147.65 0,26.021 3.998,-1.8711 4.002,1.8711 0,-26.021 -8,0 z"
         inkscape:connector-curvature="0" />
    </g>
    <path
       id="rect5095"
       d="m -102.19766,-5.1432098 0,14.1689692 4.356168,2.0377046 0,-16.2071094 -4.356168,0 z"
       inkscape:connector-curvature="0"
       style="fill:#ffffff" />
    <path
       id="rect5097"
       d="m -115.26615,-5.1432098 0,18.2447058 4.35617,-2.037705 0,-16.2071097 -4.35617,0 z"
       inkscape:connector-curvature="0"
       style="fill:#0079bc;fill-opacity:0.99607999" />
    <path
       id="rect5099"
       d="m -110.90998,-5.1432098 0,16.2071098 4.35616,-2.0377049 0,-14.1689693 -4.35616,0 z"
       inkscape:connector-curvature="0"
       style="fill:#ffffff" />
    <path
       id="rect5101"
       d="m -93.485327,-5.1432098 0,18.2447058 4.356164,2.037705 0,-20.2823019 -4.356164,0 z"
       inkscape:connector-curvature="0"
       style="fill:#ffffff" />
    <path
       id="rect5103"
       d="m -97.841492,-5.1432098 0,16.2071098 4.356165,2.037705 0,-18.2447059 -4.356165,0 z"
       inkscape:connector-curvature="0"
       style="fill:#0079bc;fill-opacity:0.99607999" />
    <g
       transform="matrix(0.54452055,0,0,0.54452055,-186.42954,-85.541669)"
       id="g397">
      <path
         id="path5223"
         d="m 150.44,207.7 9.3722,0 0,28.158 -18.744,0 5.5011,-28.158 z"
         inkscape:connector-curvature="0"
         style="fill:#ffffff;fill-rule:evenodd;stroke:#000000;stroke-width:1.02292264px" />
      <path
         id="path5225"
         d="m 142.91,201.51 0,6.1875 17.522,0 0,-7.92 -1.8337,0 0,-5.6925 -3.8712,0 0,6.1875 -9.1685,0 0,-1.98 -2.6487,0 0,3.2175 z"
         inkscape:connector-curvature="0"
         style="fill:#ffffff;fill-rule:evenodd;stroke:#000000;stroke-width:1.02292264px" />
      <path
         id="path3780"
         d="m 114.69,188.61 35.998,-16.81 36.002,16.84"
         inkscape:connector-curvature="0"
         style="fill:none;stroke:#ffffff;stroke-width:1.53438401" />
      <path
         id="path3769"
         d="m 114.69,147.65 0,76.503 35.998,22.153 36.002,-22.153 0,-76.503 z"
         inkscape:connector-curvature="0"
         style="fill:none;stroke:#000000;stroke-width:0.76719201" />
    </g>
    <g
       transform="matrix(0.54452055,0,0,0.54452055,-186.42954,-85.541669)"
       id="g403"
       style="fill-opacity:0.99607999">
      <rect
         id="rect5227"
         height="3.7125001"
         width="1.7977"
         y="201.89999"
         x="146.69" />
      <rect
         id="rect5229"
         height="3.7125001"
         width="1.7977"
         y="201.89999"
         x="150.75" />
      <rect
         id="rect5231"
         height="3.7125001"
         width="1.7977"
         y="201.89999"
         x="154.81" />
      <rect
         id="rect5233"
         height="3.7125001"
         width="1.7977"
         y="210.03"
         x="153.14" />
      <rect
         id="rect5235"
         height="3.7125001"
         width="1.7977"
         y="221.22"
         x="153.14" />
      <rect
         id="rect5237"
         height="3.7125001"
         width="1.7977"
         y="222.24001"
         x="149.78999" />
      <rect
         id="rect5239"
         height="3.7125001"
         width="1.7977"
         y="222.24001"
         x="147.28" />
      <rect
         id="rect5241"
         height="3.7125001"
         width="1.7977"
         y="226.3"
         x="148.53999" />
    </g>
    <path
       id="path5249"
       d="m -105.70437,27.843845 0,1.816248 0.86563,0 0,1.720631 -0.55084,0 0,1.242705 1.41646,0 0,1.529449 -0.62952,0"
       inkscape:connector-curvature="0"
       style="fill:none;stroke:#000000;stroke-width:0.55700243px" />
    <g
       id="g5408"
       transform="matrix(0.54452055,0,0,0.54452055,0.85830317,-416.66462)"
       style="fill-opacity:0.99607999">
      <path
         id="path5275"
         d="m -208.03,788.66 a 6.2156,6.2156 0 0 0 -5.5161,4.0198 l 5.4061,1.7776 a 0.29363,0.29363 0 1 1 -0.18341,0.55787 l -5.403,-1.7791 a 6.2156,6.2156 0 0 0 -0.2262,1.6278 6.2156,6.2156 0 0 0 2.3309,4.8497 l 3.2143,-4.4156 a 0.29349,0.29349 0 0 1 0.21551,-0.1238 0.29349,0.29349 0 0 1 0.25983,0.46922 l -3.2143,4.4141 a 6.2156,6.2156 0 0 0 3.4099,1.0225 6.2156,6.2156 0 0 0 3.4069,-1.024 l -3.1822,-4.3713 a 0.29349,0.29349 0 0 1 0.22315,-0.46923 0.29349,0.29349 0 0 1 0.25219,0.12381 l 3.1822,4.3713 a 6.2156,6.2156 0 0 0 2.3324,-4.8467 6.2156,6.2156 0 0 0 -0.22621,-1.6293 l -5.186,1.6996 a 0.29363,0.29363 0 0 1 -0.1834,-0.55787 l 5.1875,-1.6996 a 6.2156,6.2156 0 0 0 -5.513,-4.0137 l 0,5.5069 a 0.29349,0.29349 0 1 1 -0.58692,0 l 0,-5.51 z"
         inkscape:connector-curvature="0"
         style="fill:#ffffff" />
      <ellipse
         id="path5277"
         rx="1.0427001"
         ry="1.0425"
         cy="794.85999"
         cx="-207.73"
         style="fill:#ffffff" />
      <g
         id="g417">
        <path
           id="path5406"
           d="m -208.7,789.69 c -1.6862,0.0881 -3.1089,1.1748 -3.688,2.681 l 0.55571,0.18372 c 0.49841,-1.2752 1.7003,-2.1908 3.1322,-2.2768 l 0,-0.58787 z"
           inkscape:connector-curvature="0" />
        <path
           id="path5404"
           d="m -206.86,789.62 0,0.61776 c 1.5024,0.0913 2.7635,1.0515 3.2878,2.389 l 0.58517,-0.19184 c -0.6088,-1.5811 -2.1027,-2.7217 -3.873,-2.8149 z"
           inkscape:connector-curvature="0" />
        <path
           id="path5402"
           d="m -202.49,794.07 -0.58407,0.19228 c 0.0767,0.30021 0.12138,0.61293 0.12138,0.9374 0,1.1722 -0.53234,2.2177 -1.3688,2.9083 l 0.35933,0.49393 c 0.98997,-0.80445 1.6248,-2.03 1.6248,-3.4022 0,-0.39138 -0.056,-0.76837 -0.15263,-1.1297 z"
           inkscape:connector-curvature="0" />
        <path
           id="path5400"
           d="m -212.94,794.2 c -0.0909,0.34041 -0.14406,0.69539 -0.14406,1.064 0,1.2958 0.59965,2.4532 1.5348,3.2125 l 0.33916,-0.46623 c -0.79026,-0.65189 -1.2932,-1.6392 -1.2932,-2.7463 0,-0.30545 0.0425,-0.59987 0.11457,-0.88255 l -0.5513,-0.1815 z"
           inkscape:connector-curvature="0" />
        <path
           id="path5393"
           d="m -205.74,799.18 c -0.57581,0.36721 -1.2585,0.58212 -1.9936,0.58212 -0.73457,0 -1.4169,-0.21427 -1.9924,-0.58093 l -0.35495,0.48746 c 0.67647,0.44057 1.4816,0.69925 2.3474,0.69925 0.86636,0 1.6718,-0.25939 2.3486,-0.70043 L -205.7399,799.18 Z"
           inkscape:connector-curvature="0" />
      </g>
    </g>
    <g
       id="g5417"
       transform="matrix(0.54452055,0,0,0.54452055,16.573166,-416.66462)"
       style="fill-opacity:0.99607999">
      <path
         id="path5419"
         d="m -208.03,788.66 a 6.2156,6.2156 0 0 0 -5.5161,4.0198 l 5.4061,1.7776 a 0.29363,0.29363 0 1 1 -0.18341,0.55787 l -5.403,-1.7791 a 6.2156,6.2156 0 0 0 -0.2262,1.6278 6.2156,6.2156 0 0 0 2.3309,4.8497 l 3.2143,-4.4156 a 0.29349,0.29349 0 0 1 0.21551,-0.1238 0.29349,0.29349 0 0 1 0.25983,0.46922 l -3.2143,4.4141 a 6.2156,6.2156 0 0 0 3.4099,1.0225 6.2156,6.2156 0 0 0 3.4069,-1.024 l -3.1822,-4.3713 a 0.29349,0.29349 0 0 1 0.22315,-0.46923 0.29349,0.29349 0 0 1 0.25219,0.12381 l 3.1822,4.3713 a 6.2156,6.2156 0 0 0 2.3324,-4.8467 6.2156,6.2156 0 0 0 -0.22621,-1.6293 l -5.186,1.6996 a 0.29363,0.29363 0 0 1 -0.1834,-0.55787 l 5.1875,-1.6996 a 6.2156,6.2156 0 0 0 -5.513,-4.0137 l 0,5.5069 a 0.29349,0.29349 0 1 1 -0.58692,0 l 0,-5.51 z"
         inkscape:connector-curvature="0"
         style="fill:#ffffff" />
      <ellipse
         id="ellipse5421"
         rx="1.0427001"
         ry="1.0425"
         cy="794.85999"
         cx="-207.73"
         style="fill:#ffffff" />
      <g
         id="g427">
        <path
           id="path5423"
           d="m -208.7,789.69 c -1.6862,0.0881 -3.1089,1.1748 -3.688,2.681 l 0.55571,0.18372 c 0.49841,-1.2752 1.7003,-2.1908 3.1322,-2.2768 l 0,-0.58787 z"
           inkscape:connector-curvature="0" />
        <path
           id="path5425"
           d="m -206.86,789.62 0,0.61776 c 1.5024,0.0913 2.7635,1.0515 3.2878,2.389 l 0.58517,-0.19184 c -0.6088,-1.5811 -2.1027,-2.7217 -3.873,-2.8149 z"
           inkscape:connector-curvature="0" />
        <path
           id="path5427"
           d="m -202.49,794.07 -0.58407,0.19228 c 0.0767,0.30021 0.12138,0.61293 0.12138,0.9374 0,1.1722 -0.53234,2.2177 -1.3688,2.9083 l 0.35933,0.49393 c 0.98997,-0.80445 1.6248,-2.03 1.6248,-3.4022 0,-0.39138 -0.056,-0.76837 -0.15263,-1.1297 z"
           inkscape:connector-curvature="0" />
        <path
           id="path5429"
           d="m -212.94,794.2 c -0.0909,0.34041 -0.14406,0.69539 -0.14406,1.064 0,1.2958 0.59965,2.4532 1.5348,3.2125 l 0.33916,-0.46623 c -0.79026,-0.65189 -1.2932,-1.6392 -1.2932,-2.7463 0,-0.30545 0.0425,-0.59987 0.11457,-0.88255 l -0.5513,-0.1815 z"
           inkscape:connector-curvature="0" />
        <path
           id="path5431"
           d="m -205.74,799.18 c -0.57581,0.36721 -1.2585,0.58212 -1.9936,0.58212 -0.73457,0 -1.4169,-0.21427 -1.9924,-0.58093 l -0.35495,0.48746 c 0.67647,0.44057 1.4816,0.69925 2.3474,0.69925 0.86636,0 1.6718,-0.25939 2.3486,-0.70043 L -205.7399,799.18 Z"
           inkscape:connector-curvature="0" />
      </g>
    </g>
    <g
       transform="matrix(0.39650353,0,0,0.39656887,-237.2039,-31.31559)"
       id="g5263">
      <g
         transform="translate(120,0)"
         id="g5227">
        <g
           style="fill:#c19e01"
           id="g436">
          <path
             style="opacity:0.7"
             inkscape:connector-curvature="0"
             d="m 219.32,-0.54493 10.164,0.25391 -4.6016,5.9707 c 1.0566,2.3414 1.4382,5.6273 1.123,9.5996 0.97278,0.61829 1.9574,1.354 2.9356,2.5859 l 0.42968,0.53906 -3.793,-0.78516 0.52149,3.252 -3.5469,-2.6953 -0.0254,-0.06836 c -0.21876,-0.5864 -0.42674,-1.2545 -0.63476,-1.9219 0.32639,1.2779 0.33193,2.9079 0.23633,4.6465 l 0.38671,-0.14844 0.23243,0.60352 0.0879,-0.07227 8.3203,10.221 2.7363,0.49805 0.11719,2.1055 3.0058,-0.11914 0,1.791 c 2.3195,0.87762 3.6894,2.1516 4.3203,3.6992 0.64933,1.5929 0.5646,3.4248 0.17383,5.3457 -0.76615,3.766 -2.6666,7.913 -2.8887,11.355 1.2071,0.50517 2.4215,1.1968 3.4082,2.0625 1.103,0.96776 1.9557,2.0547 2.2734,3.0898 0.15895,0.51759 0.18117,1.0306 0.004,1.4922 -0.17726,0.46163 -0.55165,0.85407 -1.1152,1.1328 -1.1218,0.55481 -3.0018,0.71599 -5.9316,0.33594 -4.0645,1.1352 -7.2739,-0.35795 -10.365,-1.9238 -1.6026,0.06346 -2.9949,0.50663 -6.7988,-1.5684 -3.6142,1.1836 -7.2286,1.1651 -10.822,0.51953 -3.5896,0.97382 -7.187,1.0283 -10.777,0.18164 -2.6708,2.3783 -5.2337,3.4931 -7.334,3.7285 -2.1277,0.23846 -3.7985,-0.39954 -4.5898,-1.5176 -0.39565,-0.55902 -0.55934,-1.2396 -0.43555,-1.9473 0.12378,-0.70768 0.52683,-1.4377 1.2324,-2.1309 1.2424,-1.2205 3.6255,-2.2801 6.9883,-3.0176 -2.8097,-1.464 -5.413,-3.3618 -7.0449,-6.1426 -1.6493,-2.8104 -2.2904,-6.5038 -1.2012,-11.449 l -0.0937,-0.03906 0.12109,-0.24024 c 2.1155,-4.1908 5.3127,-7.0809 9.9219,-8.1367 l -0.125,-3.5371 2.2754,-1.916 -0.22656,-8.0605 c -1.0604,-0.18262 -2.2015,-0.61704 -3.498,-1.5566 l -0.45313,-0.33008 0.54688,-0.11719 c 1.61,-0.34572 2.7092,-1.2768 3.6562,-2.3965 1.0127,-2.936 0.97004,-4.9872 1.0273,-6.6113 0.0119,-0.33726 0.10597,-0.59998 0.13867,-0.90625 l -0.17578,0.14258 -4.5215,-5.5547 10.426,0 0.0684,0.050781 c 2.1359,1.6306 3.6168,2.847 4.7441,3.6387 1.1273,0.79166 1.8821,1.1426 2.5723,1.123 0.69014,-0.019525 1.3958,-0.41044 2.4258,-1.2422 1.03,-0.83174 2.3662,-2.0868 4.3066,-3.75 l 0.0723,-0.0625 z"
             id="path5069" />
          <path
             style="opacity:0.7"
             inkscape:connector-curvature="0"
             d="m 219.5,-0.041023 c -1.4429,1.2395 -2.3534,2.057 -3.2578,2.8379 0.91066,-0.38708 1.787,-0.68482 2.584,-0.79102 1.7963,-0.23934 3.3079,0.23245 4.459,1.291 0.53778,0.49454 0.98344,1.1333 1.3672,1.8594 l 3.84,-4.9708 -8.99,-0.22652 z"
             id="path5067" />
          <path
             style="opacity:0.7"
             inkscape:connector-curvature="0"
             d="m 195.76,0.19726 3.6992,4.5449 c 0.0487,-0.30066 0.0353,-0.64375 0.14063,-0.92188 0.25086,-0.66228 0.70345,-1.256 1.4746,-1.8027 1.0703,-0.75876 2.1716,-0.63175 3.3476,-0.31641 0.99039,0.26557 2.1686,0.57887 3.459,0.73242 -0.88349,-0.68178 -1.6241,-1.2471 -2.918,-2.2363 l -9.2031,0 z"
             id="path5065" />
          <path
             style="opacity:0.7"
             inkscape:connector-curvature="0"
             d="m 202.74,1.9453 c -0.47511,0.016603 -0.92189,0.15372 -1.3828,0.48047 -0.7091,0.50269 -1.0803,0.99858 -1.2969,1.5703 -0.21653,0.57174 -0.27443,1.2332 -0.30273,2.0371 -0.0499,1.4152 -0.13355,3.3671 -0.8457,5.8594 0.002,-0.0024 0.004,-0.0036 0.006,-0.0059 1.0609,-1.5105 1.8636,-3.3255 2.8223,-4.9082 0.95867,-1.5827 2.0903,-2.9519 3.8281,-3.4922 1.049,-0.32614 2.3998,-0.19868 3.9355,0.19531 -0.24545,-0.1746 -0.71672,-0.552 -0.99414,-0.76172 l -0.006,0.14844 c -1.7223,-0.065387 -3.0789,-0.57964 -4.2168,-0.88477 -0.56896,-0.15256 -1.0718,-0.25488 -1.5469,-0.23828 z"
             id="path5063" />
          <path
             style="opacity:0.7"
             inkscape:connector-curvature="0"
             d="m 219.5,2.4473 c -0.199,0.00795 -0.40362,0.026752 -0.61329,0.054687 -1.6773,0.22348 -3.695,1.111 -6.0293,2.7988 l -0.12305,0.089844 -0.13672,-0.068359 c -3.1684,-1.5926 -5.313,-1.8449 -6.8809,-1.3574 -1.5679,0.48747 -2.6143,1.7305 -3.5488,3.2734 -0.93457,1.5429 -1.7414,3.3688 -2.8418,4.9355 -1.002,1.4266 -2.3353,2.5618 -4.1602,3.1133 1.3325,0.88964 2.5073,1.3501 3.5078,1.3965 1.103,0.05112 2.037,-0.31235 2.877,-0.94336 1.6798,-1.262 2.9335,-3.6204 4.0195,-5.6895 0.543,-1.0345 1.0452,-1.9955 1.5625,-2.7187 0.51732,-0.72324 1.0651,-1.2446 1.7383,-1.2656 0.67322,-0.02098 1.3186,0.47844 2.002,1.5234 0.60922,0.93166 1.3004,2.5314 2.0547,4.5273 1.1749,-3.3554 2.1864,-5.3299 3.1621,-6.1289 0.52043,-0.42618 1.083,-0.53875 1.5801,-0.3457 0.11382,0.044208 0.19121,0.21362 0.29687,0.2832 l 0.0137,0 0,0.00586 0,0.00781 c 0.3496,0.23478 0.6919,0.48553 0.98437,0.94141 0.76945,1.1993 1.4327,3.0602 2.082,5.0781 0.6425,1.9967 1.2658,4.1382 1.9238,5.9121 l 2.4336,1.8477 -0.4375,-2.7344 2.9082,0.60156 c -0.75097,-0.78773 -1.4992,-1.5125 -2.2578,-1.9863 l -0.1289,-0.08008 0.0117,-0.15234 c 0.48,-5.5748 -0.45,-9.7794 -2.54,-11.705 -0.92,-0.8424 -2.05,-1.2724 -3.45,-1.2167 z"
             id="path5061" />
          <path
             style="opacity:0.7"
             inkscape:connector-curvature="0"
             d="m 217.24,6.0488 c -0.24837,-0.024503 -0.50536,0.065054 -0.82422,0.32617 -0.35445,0.29026 -0.77492,0.95486 -1.207,1.7188 l 2.2793,0.091797 0,-2.0762 c -0.0826,-0.031308 -0.16526,-0.052379 -0.24805,-0.060547 z"
             id="path5059" />
          <path
             style="opacity:0.7"
             inkscape:connector-curvature="0"
             d="m 208.89,6.5664 c -0.40862,0.012735 -0.86163,0.37989 -1.3457,1.0566 -0.0824,0.11523 -0.17627,0.32306 -0.25977,0.45312 l 3.2715,0 c -0.0279,-0.044364 -0.0682,-0.17081 -0.0957,-0.21289 -0.644,-0.98486 -1.1617,-1.3096 -1.5703,-1.2969 z"
             id="path5057" />
          <path
             style="opacity:0.7"
             inkscape:connector-curvature="0"
             d="m 218,6.6055 0.0996,5.1426 c 1.0192,0.52065 1.9392,1.1611 2.6309,2.0703 0.37559,0.4937 0.69389,1.0496 0.94726,1.6758 -0.36557,-1.1443 -0.73703,-2.25 -1.1016,-3.3828 -0.64615,-2.008 -1.3137,-3.8517 -2.0254,-4.9609 -0.18587,-0.28972 -0.36559,-0.36679 -0.55078,-0.54492 z"
             id="path5055" />
          <path
             style="opacity:0.7"
             inkscape:connector-curvature="0"
             d="m 207.08,8.4336 c -0.34506,0.57372 -0.68491,1.1303 -1.0625,1.8496 -0.68892,1.3125 -1.4472,2.7649 -2.373,4.002 0.93658,-1.1233 2.3368,-1.9436 4.0625,-2.6191 l -0.39453,0.0293 -0.23243,-3.2617 z"
             id="path5053" />
          <path
             style="opacity:0.7"
             inkscape:connector-curvature="0"
             d="m 207.59,8.5762 0.2168,3.0605 c 1.1134,-0.42721 2.3008,-0.82041 3.8672,-1.0859 -0.3006,-0.67512 -0.62567,-1.5121 -0.89258,-1.9746 l -3.1914,0 z"
             id="path5051" />
          <path
             style="opacity:0.7"
             inkscape:connector-curvature="0"
             d="m 214.9,8.582 c -0.23735,0.47028 -0.51544,1.2883 -0.77148,1.9102 1.2565,0.20439 2.4124,0.53716 3.4629,0.99805 l -0.0547,-2.8027 -2.6367,-0.10547 z"
             id="path5049" />
          <path
             style="opacity:0.7"
             inkscape:connector-curvature="0"
             d="m 214.02,10.775 c -0.2788,0.69542 -0.53365,1.1729 -0.83203,2.0586 l -0.22851,0.67774 -0.24414,-0.67188 c -0.31873,-0.87863 -0.54344,-1.1571 -0.83008,-1.832 -4.1447,0.682 -6.454,1.8489 -7.916,3.666 -1.4003,1.7404 -2.07,4.1774 -2.8438,7.3281 l 3.6504,-1.6484 -0.78906,4.7324 c 1.099,-1.8796 2.0888,-4.0352 3.2148,-5.9629 0.68472,-1.1722 1.436,-2.2151 2.3516,-2.9473 0.91356,-0.73063 2.0026,-1.1427 3.291,-1.0371 l 0.002,0 c 1.1721,0.06154 2.1054,0.47229 2.8418,1.1152 0.16565,0.14463 0.23967,0.39272 0.38672,0.55859 l 0.26758,0 -0.0371,0.33203 c 0.39092,0.50581 0.82013,0.96845 1.1035,1.5938 0.7664,1.6911 1.2421,3.6983 1.8398,5.5312 l 1.3223,-5.8965 1.0391,3.3242 c 0.35304,-3.446 -0.0627,-5.9848 -1.2734,-7.5762 -0.69003,-0.907 -1.5952,-1.5774 -2.6562,-2.082 l -0.0723,0.002 0,-0.03516 c -1.0646,-0.49519 -2.283,-0.82638 -3.6191,-1.0391 l 0.0312,-0.19141 z"
             id="path5047" />
          <path
             style="opacity:0.7"
             inkscape:connector-curvature="0"
             d="m 203.52,14.441 c -0.50138,0.64894 -1.0484,1.2367 -1.6641,1.6992 -0.91038,0.68394 -1.9741,1.0979 -3.2012,1.041 -0.0527,-0.0024 -0.11477,-0.03486 -0.16797,-0.03906 l 0.23047,8.1738 -2.2734,1.9141 0.10937,3.1328 c 0.0753,-0.01447 0.16023,-0.01582 0.23633,-0.0293 0.004,-0.01044 0.004,-0.01686 0.008,-0.02734 l 0.0664,0.02539 c 1.4732,-0.25462 3.1035,-0.30632 4.873,-0.17188 l 0.043,-0.11719 c 0.0756,0.02742 0.13203,0.08112 0.20703,0.10938 0.0515,0.0045 0.0888,-0.01066 0.14062,-0.0059 l 0.24414,0.02148 -0.0137,0.17773 c 5.7526,2.3162 9.7236,7.1288 10.139,15.604 l 0.0156,0.32031 -0.11524,-0.02344 c -0.51326,2.3635 -1.8449,4.5944 -4.5781,6.6211 1.7502,-0.38106 3.6903,-0.36629 5.4023,-0.01367 l 0.0137,-0.01172 1.5,-5.498 2.2539,2.2539 1.752,-8.0547 1.623,0.34766 0.11914,-6.8477 2.0312,0.59766 0.11719,-13.266 -0.50977,-1.3223 c -0.0499,0.74729 0.0748,1.3046 -0.0703,2.1562 l -0.48633,0.0332 -0.91797,-2.9395 -1.2988,5.7832 -0.29297,-0.79688 c -0.76395,-2.0814 -1.2573,-4.4742 -2.1055,-6.3457 -0.19487,-0.42998 -0.49505,-0.69792 -0.73242,-1.0625 l -0.89258,7.9395 -6.6621,-0.25586 -0.65625,-4.2031 1.459,-0.85156 0,-3.4453 c -0.65821,0.64103 -1.2856,1.3684 -1.8359,2.3105 -1.3381,2.2907 -2.441,5.1812 -3.9336,7.2891 l -0.45117,-0.18555 0.88086,-5.2832 -3.752,1.6934 0.12109,-0.49805 c 0.82548,-3.3948 1.491,-5.9963 3.0254,-7.9492 z"
             id="path5045" />
          <path
             style="opacity:0.7"
             inkscape:connector-curvature="0"
             d="m 212.81,15.637 c -1.1656,-0.0975 -2.1068,0.25912 -2.9453,0.92969 -0.0734,0.05872 -0.12361,0.18255 -0.19531,0.24609 l 5.8144,0 c -0.05,-0.048 -0.0732,-0.13637 -0.125,-0.18164 -0.66037,-0.57659 -1.4686,-0.93822 -2.541,-0.99414 l -0.004,0 -0.004,0 z"
             id="path5043" />
          <path
             style="opacity:0.7"
             inkscape:connector-curvature="0"
             d="m 209.96,17.312 0,2.9727 5.4531,0.23633 0.36133,-3.209 -5.8145,0 z"
             id="path5041" />
          <path
             style="opacity:0.7"
             inkscape:connector-curvature="0"
             d="m 209.96,20.783 0,0.01367 -1.4141,0.82422 0.54102,3.459 5.7871,0.22266 0.48242,-4.2832 -5.3965,-0.23633 z"
             id="path5039" />
          <path
             style="opacity:0.7"
             inkscape:connector-curvature="0"
             d="m 223.13,22.369 -0.12305,13.939 -2.0371,-0.60156 -0.11914,6.8008 -1.7285,-0.37109 -1.8398,8.4629 -2.293,-2.293 -1.2129,4.4414 c 4.0315,-1.3624 7.5783,-0.77347 10.453,1.9727 0.27753,-0.23378 0.5975,-0.43521 1.0254,-0.55859 0.52013,-0.14999 1.1228,-0.23791 1.7344,-0.27539 0.11172,-0.0069 0.17754,0.03495 0.28907,0.03125 -1.1505,-3.8766 -1.2519,-6.4848 -0.54883,-8.2871 0.71416,-1.8308 2.237,-2.7976 4.0898,-3.4297 l 0.16016,0.47461 c -1.7868,0.6096 -3.134,1.4723 -3.7832,3.1367 -0.64034,1.6415 -0.5759,4.1472 0.56445,7.9824 0.68422,0.0087 1.3887,0.21063 2.0918,0.40625 0.0761,0.0261 0.23378,0.0035 0.30078,0.0332 l -0.01,0.02344 c 1.3062,0.4014 2.6404,0.96643 4.043,1.6973 l 3.9375,0.11133 c 0.23506,-3.5986 2.1485,-7.7428 2.8945,-11.41 0.38113,-1.8735 0.44601,-3.6032 -0.14648,-5.0566 -0.5925,-1.4535 -1.836,-2.6643 -4.1914,-3.5098 l -0.16602,-0.05859 0,-1.5918 -2.9785,0.11914 -0.12305,-2.2031 -2.5293,-0.46094 -7.7539,-9.5254 z"
             id="path5037" />
        </g>
        <path
           style="opacity:0.7;fill:#ffffff"
           inkscape:connector-curvature="0"
           d="m 200.59,30.586 c -1.2181,-0.02904 -2.3471,0.05187 -3.4082,0.2168 -0.80614,2.3195 -0.62689,3.6636 -0.35742,4.8652 1.4229,-0.46464 2.9512,-0.77769 4.6992,-0.77734 l 0.31445,-4.2383 c -0.42684,-0.03519 -0.84202,-0.05673 -1.248,-0.06641 z"
           id="path5035" />
        <path
           style="opacity:0.7;fill:#c19e01"
           inkscape:connector-curvature="0"
           d="m 196.65,30.838 c -1.8504,0.34702 -3.397,1.0736 -4.7949,1.9902 l 0.3125,5.3164 c 1.2254,-1.0004 2.6358,-1.7466 4.1758,-2.3125 -0.27229,-1.2156 -0.4646,-2.6396 0.30664,-4.9941 z"
           id="path5033" />
        <g
           style="fill:#ffffff"
           id="g457">
          <path
             style="opacity:0.7"
             inkscape:connector-curvature="0"
             d="m 202.32,30.881 -0.30078,4.0547 c 3.8251,1.607 6.018,5.3208 6.8652,9.8418 0.007,-0.009 0.0145,-0.01444 0.0215,-0.02344 l 0.38867,0.31445 c -0.0123,0.0152 -0.0248,0.02391 -0.0371,0.03906 l 2.6875,0.53711 c -0.49469,-8.0252 -4.1889,-12.523 -9.625,-14.764 z"
             id="path5031" />
          <path
             style="opacity:0.7"
             inkscape:connector-curvature="0"
             d="m 191.38,33.221 c -1.8874,1.3754 -3.4509,3.1654 -4.6426,5.4531 l 3.416,1.3984 c 0.48184,-0.53353 1.0122,-1.0036 1.543,-1.4727 l -0.31641,-5.3789 z"
             id="path5029" />
          <path
             style="opacity:0.7"
             inkscape:connector-curvature="0"
             d="m 201.75,35.367 c -1.8246,-0.02596 -3.3853,0.30814 -4.8398,0.78906 0.0747,0.32939 0.15106,0.68733 0.19336,1.0293 l 0.0117,0.09375 -0.0547,0.07813 c -0.70304,1.0136 -1.5384,1.5451 -2.4238,1.7539 -0.87084,0.20536 -1.7773,0.10343 -2.6816,-0.07422 -0.49587,0.44472 -0.996,0.88313 -1.4512,1.3887 0.16147,1.3953 0.38487,2.5159 0.61328,3.6113 3.7373,-3.1794 8.8319,-5.4263 13.443,-6.8516 -0.80805,-0.75245 -1.7203,-1.38 -2.7812,-1.8184 l -0.0293,0 z"
             id="path5027" />
        </g>
        <path
           style="opacity:0.7;fill:#c19e01"
           inkscape:connector-curvature="0"
           d="m 196.44,36.32 c -1.4676,0.54817 -2.8094,1.2718 -3.9824,2.2383 0.71952,0.11416 1.4323,0.21446 2.0684,0.06445 0.74992,-0.17685 1.435,-0.61142 2.0644,-1.4844 -0.0351,-0.24753 -0.0932,-0.5621 -0.15039,-0.81836 z"
           id="path5025" />
        <g
           style="fill:#ffffff"
           id="g463">
          <path
             style="opacity:0.7"
             inkscape:connector-curvature="0"
             d="m 204.91,37.584 c -4.6708,1.4234 -9.8904,3.7235 -13.607,6.9336 l -0.13281,-0.1543 c 0.516,2.3616 1.1749,4.0581 1.9238,5.3184 l -0.17968,-0.45508 c 5.1569,-2.046 10.326,-4.6478 14.574,-7.5957 -0.61495,-1.5875 -1.4977,-2.9265 -2.5781,-4.0469 z"
             id="path5023" />
          <path
             style="opacity:0.7"
             inkscape:connector-curvature="0"
             d="m 186.59,39.152 c -1.0408,4.8065 -0.41353,8.3238 1.1582,11.002 1.5314,2.6094 3.9851,4.4172 6.6777,5.8438 l 0.75781,-3.1348 c -2.2327,-1.6443 -4.2633,-4.6719 -5.1602,-12.309 l -3.4336,-1.4023 z"
             id="path5021" />
          <path
             style="opacity:0.7"
             inkscape:connector-curvature="0"
             d="m 207.68,42.098 c -4.2743,2.9527 -9.4307,5.5506 -14.58,7.5938 0.74664,1.2533 1.5563,2.1851 2.4141,2.8086 4.2558,-0.11288 8.66,-2.1909 12.961,-7.2988 -0.18592,-1.0911 -0.45304,-2.1292 -0.79492,-3.1035 z"
             id="path5019" />
          <path
             style="opacity:0.7"
             inkscape:connector-curvature="0"
             d="m 208.85,45.535 c -0.70749,0.83897 -1.4208,1.5531 -2.1367,2.2363 l 2.7012,3.0391 c 1.3643,-1.4764 2.1422,-3.0264 2.498,-4.6621 L 208.85,45.53502 Z"
             id="path5017" />
          <path
             style="opacity:0.7"
             inkscape:connector-curvature="0"
             d="m 206.36,48.133 c -3.5464,3.2583 -7.1648,4.7203 -10.695,4.8477 l -0.83008,3.4375 c 0.2899,-0.05785 0.44732,-0.15682 0.7539,-0.20898 2.0698,-1.0953 4.6111,-1.5841 8.0059,-0.88086 0.56775,-0.84336 1.5067,-1.4232 2.5879,-1.8672 l -0.0117,-0.01953 c 1.2121,-0.72895 2.1148,-1.4889 2.8965,-2.2637 l -2.707,-3.0449 z"
             id="path5015" />
        </g>
        <g
           style="fill:#c19e01"
           id="g470">
          <path
             style="opacity:0.7"
             inkscape:connector-curvature="0"
             d="m 217.56,52.486 c -0.34651,0.0071 -0.69852,0.03308 -1.0566,0.07813 -0.88012,0.1107 -1.806,0.36468 -2.7578,0.70117 l 6.5449,6.9824 -0.0234,0.02148 c 3.6205,1.9944 4.796,1.6351 6.3672,1.5371 l -2.582,-6.5918 -0.0312,-0.03125 c -1.892,-1.8653 -4.0354,-2.7473 -6.4609,-2.6973 z"
             id="path5013" />
          <path
             style="opacity:0.7"
             inkscape:connector-curvature="0"
             d="m 210.68,53.068 c -0.94645,-0.0034 -1.9022,0.09177 -2.793,0.28906 -1.6665,0.36911 -3.0345,1.1262 -3.7871,2.1641 l 5.5723,5.2402 -0.0195,0.02148 c 3.3487,0.57013 6.6814,0.55539 10.012,-0.47656 l -6.4414,-6.873 -0.16211,0.06055 0.043,-0.1543 c -0.77244,-0.15745 -1.5861,-0.26848 -2.4238,-0.27148 z"
             id="path5011" />
          <path
             style="opacity:0.7"
             inkscape:connector-curvature="0"
             d="m 227.77,54.375 c -0.24038,-0.0078 -0.48914,-0.0059 -0.74414,0.0098 -0.58351,0.03577 -1.1563,0.1221 -1.627,0.25781 -0.3987,0.11497 -0.65841,0.28082 -0.85351,0.44727 l 2.6641,6.8027 c 3.0506,1.5429 6.065,2.9268 9.918,1.8516 l -3.252,-7.3633 0.0274,-0.01172 c -1.5361,-0.79846 -2.9535,-1.3582 -4.3164,-1.7168 -0.45577,-0.13757 -1.0952,-0.25387 -1.8164,-0.27734 z"
             id="path5009" />
          <path
             style="opacity:0.7"
             inkscape:connector-curvature="0"
             d="m 200.16,55.482 c -0.34528,0.0124 -0.67769,0.03979 -1,0.08203 -1.2287,0.16103 -2.2818,0.55396 -3.2539,1.0586 l 2.6582,4.3203 c 3.4708,0.82557 6.935,0.76532 10.406,-0.14844 l -5.2695,-4.9531 -0.0801,-0.01758 c -1.2803,-0.27675 -2.4251,-0.37898 -3.4609,-0.3418 z"
             id="path5007" />
          <path
             style="opacity:0.7"
             inkscape:connector-curvature="0"
             d="m 234.45,56.463 3.1992,7.2363 -0.0918,0.04102 c 2.7185,0.32524 4.4864,0.15514 5.4082,-0.30078 0.47899,-0.2369 0.74323,-0.52833 0.87109,-0.86133 0.12789,-0.333 0.12006,-0.72588 -0.0156,-1.168 -0.27136,-0.88418 -1.067,-1.9331 -2.125,-2.8613 -0.94484,-0.82896 -2.1152,-1.4913 -3.2617,-1.9727 l -3.9844,-0.11328 z"
             id="path5005" />
          <path
             style="opacity:0.7"
             inkscape:connector-curvature="0"
             d="m 195.42,56.773 c -3.9423,0.71107 -6.4313,1.9087 -7.6953,3.1504 -0.64859,0.63714 -0.98981,1.2763 -1.0918,1.8594 -0.10199,0.58305 0.0272,1.114 0.35156,1.5723 0.64875,0.91654 2.1266,1.5328 4.127,1.3086 1.9544,-0.21904 4.399,-1.2772 6.9785,-3.5508 l -2.6699,-4.3398 z"
             id="rect4981" />
        </g>
      </g>
      <path
         style="fill:none;stroke:#000000;stroke-width:1.05350804"
         inkscape:connector-curvature="0"
         d="m 315.62,56.63 2.7984,4.5474 m 5.247,-5.7154 5.8295,5.4826 m 3.6151,-7.9875 6.996,7.4628 m 4.082,-5.5405 2.8547,7.2894 m 7.0552,-5.8888 3.3231,7.5206 m -40.392,-33.406 c -1.3583,3.6017 -0.38724,5.1062 -0.1749,6.8211 -1.3485,1.9442 -3.0876,1.935 -4.8972,1.5741 l -0.34979,-5.9466 m 1.3992,16.615 c 5.2174,-2.07 10.46,-4.7008 14.751,-7.697 m -16.617,2.5672 c 3.8071,-3.2879 9.141,-5.6299 13.879,-7.0553 m 1.454,10.611 2.7984,3.1482 m 2.9155,-4.955 c -0.56622,2.7425 -2.0952,5.297 -5.8888,7.5784 m -11.019,-0.87449 c 4.5474,-0.0455 9.2696,-2.2446 13.817,-7.8704 m -22.737,-5.9466 c -2.1889,9.8498 2.5574,14.513 8.2217,17.434 l 0.873,-3.6166 c -2.2662,-1.6089 -4.361,-4.5425 -5.247,-12.593 m 11.484,-9.9114 c 6.0159,2.1831 10.127,6.9788 10.553,15.683 l -3.498,-0.6996 c -0.79415,-4.8026 -3.0564,-8.7227 -7.113,-10.263 m -15.274,3.7915 3.8478,1.5741 c 2.8244,-3.1816 6.3939,-5.3202 11.543,-5.247 l 0.34979,-4.7223 c -8.0344,-0.74928 -12.828,2.6256 -15.741,8.3952 z m 27.109,14.342 c -3.5018,-0.82071 -8.2795,-0.0418 -9.7943,2.4486 -3.4616,-0.74826 -5.9788,-0.23736 -8.0453,0.87449 -16.635,2.8303 -7.9123,14.385 2.7984,4.7223 3.6146,0.87364 7.2292,0.81704 10.844,-0.1749 3.6146,0.65447 7.2292,0.68178 10.844,-0.5247 3.9122,2.1632 5.1295,1.6315 6.821,1.5741 3.1252,1.5847 6.2805,3.079 10.319,1.9239 11.723,1.5364 6.1361,-5.948 0.8745,-7.8704 m -15.49,-34.732 8.3786,10.294 2.6333,0.47878 0.1197,2.1545 2.9924,-0.1197 0,1.6757 c 9.6048,3.4477 1.8736,13.335 1.556,20.468 l -4.1893,-0.11969 c -2.3631,-1.2334 -4.539,-2.2428 -6.5832,-2.2004 -2.3904,-7.9065 -0.28819,-10.323 3.3514,-11.564 m -8.618,-21.665 0.59847,1.556 -0.1197,13.645 -2.0348,-0.59847 -0.11969,6.8226 -1.6757,-0.35908 -1.7954,8.2589 -2.2742,-2.2742 -1.4363,5.2666 c 4.2207,-1.5661 7.8285,-0.9872 10.772,1.9151 0.91549,-1.0482 4.6206,-1.0909 5.8552,-0.54327 m -31.829,-37.759 0.23939,8.4983 -2.2742,1.9151 0.12229,3.4608 m 18.43,-22.253 2.9924,0.11969 0,-2.5136 0.1197,6.1044 m -6.9423,-3.7105 -3.5908,0 0.23939,3.3514 m 2.3939,8.8574 5.5059,0.23939 m -5.7453,-3.7105 0,3.5908 -1.4363,0.83786 0.59847,3.8302 6.2241,0.23939 0.95755,-8.4983 z m 2.2742,-6.3438 c -8.585,1.3644 -9.5794,4.8544 -11.251,11.73 l 3.7105,-1.6757 -0.95755,5.7453 c 2.927,-4.1335 4.4209,-11.543 9.3362,-11.132 4.491,0.23416 4.9546,5.704 6.4635,9.8149 l 1.3166,-5.865 1.1969,3.8302 c 1.4995,-8.8004 -2.3025,-11.576 -7.7801,-12.448 m -1.3088,-5.6204 c -12.798,-6.433 -9.8619,8.4038 -18.082,10.169 12.299,8.913 11.362,-21.677 18.313,-2.5136 5.0971,-15.13 7.1312,-1.9272 9.8149,5.2666 l 2.9924,2.2742 -0.47878,-2.9924 3.4711,0.71817 c -0.98,-1.258 -1.98,-2.012 -2.98,-2.635 0.93,-11.22 -3.61,-17.102 -13.04,-10.288 z m -4.1971,-2.2794 c -3.3549,-0.12737 -5.3092,-2.0107 -7.3014,-0.59848 -2.9605,2.0988 -0.66466,4.5319 -2.753,10.533 m 0.95755,-7.6604 -4.1893,-5.1469 9.8149,0 c 8.5302,6.5123 6.618,6.3994 14.363,-0.23939 l 9.5755,0.23939 -4.4235,5.7375"
         id="path3890" />
    </g>
  </g>
  <circle
     style="opacity:1;fill:none;fill-opacity:1;stroke:#947901;stroke-width:0.75;stroke-linecap:round;stroke-linejoin:round;stroke-miterlimit:4;stroke-dasharray:none;stroke-opacity:1"
     id="path3897"
     cx="44.999268"
     cy="44.999748"
     r="43.624752" />
</svg>
