<?xml version="1.0" encoding="UTF-8" standalone="no"?>
<!-- Created with Inkscape (http://www.inkscape.org/) -->

<svg
   xmlns:dc="http://purl.org/dc/elements/1.1/"
   xmlns:cc="http://creativecommons.org/ns#"
   xmlns:rdf="http://www.w3.org/1999/02/22-rdf-syntax-ns#"
   xmlns:svg="http://www.w3.org/2000/svg"
   xmlns="http://www.w3.org/2000/svg"
   xmlns:sodipodi="http://sodipodi.sourceforge.net/DTD/sodipodi-0.dtd"
   xmlns:inkscape="http://www.inkscape.org/namespaces/inkscape"
   id="svg2"
   viewBox="0 0 89.999064 89.999417"
   height="25.400002mm"
   width="25.400002mm"
   version="1.1"
   inkscape:version="0.91 r13725"
   sodipodi:docname="leicester.svg">
  <sodipodi:namedview
     pagecolor="#ffffff"
     bordercolor="#666666"
     borderopacity="1"
     objecttolerance="10"
     gridtolerance="10"
     guidetolerance="10"
     inkscape:pageopacity="0"
     inkscape:pageshadow="2"
     inkscape:window-width="1366"
     inkscape:window-height="747"
     id="namedview714"
     showgrid="false"
     inkscape:zoom="76.94545"
     inkscape:cx="55.271742"
     inkscape:cy="34.076089"
     inkscape:window-x="0"
     inkscape:window-y="21"
     inkscape:window-maximized="1"
     inkscape:current-layer="svg2"
     inkscape:showpageshadow="false"
     fit-margin-top="0"
     fit-margin-left="0"
     fit-margin-right="0"
     fit-margin-bottom="0" />
  <defs
     id="defs4">/&gt;
<clipPath
   id="clipPath3595-2"
   clipPathUnits="userSpaceOnUse">
  <path
     id="path3597-7"
     d="m -307.2,283.5 155.55,2.0795 c 0,0 33.688,19.132 4.5749,29.945 -29.1131,10.813 -36.184,13.725 -36.184,13.725 l 1.6636,12.893 43.254,-19.963 44.086,63.633 -18.716,74.863 -34.52,34.52 c 0,0 -21.211,15.388 -21.211,7.9022 l 0,-7.4863 -51.572,0.4159 -74.447,-4.9908 -17.468,-71.951 z"
     inkscape:connector-curvature="0"
     style="fill:#333333;fill-rule:evenodd" />
</clipPath>
</defs>
  <metadata
     id="metadata7">
    <rdf:RDF>
      <cc:Work
         rdf:about="">
        <dc:format>image/svg+xml</dc:format>
        <dc:type
           rdf:resource="http://purl.org/dc/dcmitype/StillImage" />
        <dc:title />
      </cc:Work>
    </rdf:RDF>
  </metadata>
  <g
     id="g4785"
     transform="matrix(0.49096232,0,0,0.49096232,-6.1664456,-134.21813)">
    <g
       id="g4781"
       transform="translate(-1,139)">
      <path
         id="path4768"
         d="m 104.89,160.81 a 65.309,65.309 0 0 0 -37.68,12.281 c 4.2496,2.4235 8.7881,5.1297 14.35,9.0469 4.4092,-15.115 17.178,-9.3838 23.33,-21.328 z m 3.7598,0.16016 c 3.8058,10.031 22.374,8.0882 22.416,20.014 l 11.916,-8.0957 a 65.309,65.309 0 0 0 -34.332,-11.918 z m 36.967,13.92 a 65.535,65.535 0 0 1 2.0781,1.6504 65.309,65.309 0 0 0 -2.0781,-1.6504 z m 3.2031,2.6992 a 65.535,65.535 0 0 1 3.8164,3.6934 l -0.44727,9.0234 c 2.9542,1.4719 8.8311,9.3586 13.812,11.969 a 65.309,65.309 0 0 0 -17.182,-24.686 z m -88.74,1.3398 a 65.309,65.309 0 0 0 -16.289,25.209 c 8.6553,-1.7859 9.4194,-10.412 15.82,-13.088 -0.67446,-3.4463 -0.1799,-8.614 0.46875,-12.121 z m 107.1,26.82 a 65.535,65.535 0 0 1 1.2441,4.1562 65.309,65.309 0 0 0 -1.2441,-4.1562 z m -124.78,2.709 a 65.309,65.309 0 0 0 -2.4961,17.65 65.309,65.309 0 0 0 25.852,51.939 c -2.568,-13.61 -19.454,-26.61 3.427,-40.05 -32.693,-0.23 -15.48,-20.46 -26.789,-29.54 z m 126.12,1.8438 c -1.484,8.858 1.5785,24.294 -19.779,26.84 a 4.043,1.8977 14.541 0 0 -0.76953,-0.23828 4.043,1.8977 14.541 0 0 -4.2832,0.58594 c -0.13647,0.003 -0.26236,0.0117 -0.40039,0.0137 0.10825,0.061 0.20203,0.1225 0.30859,0.1836 a 4.043,1.8977 14.541 0 0 -0.0137,0.0371 4.043,1.8977 14.541 0 0 3.4355,2.8535 4.043,1.8977 14.541 0 0 1.2402,0.2207 c 14.962,11.756 3.7362,25.027 1.3242,33.158 a 65.309,65.309 0 0 0 20.945,-47.848 65.309,65.309 0 0 0 -2.0078,-15.807 z m -57.41,66.475 c -4.1685,0.95362 -6.4396,0.4844 -8.9121,0.16602 -8.5093,10.582 -20.088,0.65397 -31.322,4.6191 a 65.309,65.309 0 0 0 34.344,9.8555 65.309,65.309 0 0 0 36.332,-11.102 c -12.779,0.22253 -24.128,6.094 -30.441,-3.5391 z"
         inkscape:connector-curvature="0"
         style="fill:#003090" />
      <path
         id="path4770"
         d="m 105.11,160.65 a 65.535,65.535 0 0 0 -0.13255,0.006 c -6.1199,12.156 -18.986,6.3011 -23.414,21.484 -5.6495,-3.9791 -10.246,-6.7143 -14.554,-9.1671 a 65.535,65.535 0 0 0 -6.8684,5.5944 c -0.67887,3.5039 -1.2222,8.928 -0.52621,12.485 -6.485,2.7113 -7.1783,11.534 -16.16,13.159 a 65.535,65.535 0 0 0 -1.2443,4.087 c 11.71,9.0028 -5.9083,29.468 26.975,29.701 -23.153,13.6 -5.5788,26.746 -3.3373,40.534 a 65.535,65.535 0 0 0 4.5479,3.1948 c 11.382,-4.4229 23.165,5.9471 31.794,-4.7833 2.4725,0.31838 4.7434,0.78745 8.9119,-0.16617 6.3786,9.7322 17.895,3.6301 30.835,3.5252 a 65.535,65.535 0 0 0 7.5192,-5.9762 c 2.1744,-8.0957 13.979,-21.596 -1.2047,-33.527 a 4.043,1.8977 14.541 0 1 -1.2404,-0.22156 4.043,1.8977 14.541 0 1 -3.4362,-2.8526 4.043,1.8977 14.541 0 1 0.0138,-0.0376 c -0.10656,-0.0611 -0.20034,-0.12298 -0.3086,-0.18397 0.13804,-0.002 0.26313,-0.0107 0.3996,-0.0138 a 4.043,1.8977 14.541 0 1 4.2848,-0.58555 4.043,1.8977 14.541 0 1 0.76953,0.23737 c 21.411,-2.5525 18.278,-18.061 19.788,-26.908 a 65.535,65.535 0 0 0 -2.4965,-7.9466 c -4.9859,-2.599 -10.875,-10.506 -13.834,-11.98 l 0.44708,-9.0247 a 65.535,65.535 0 0 0 -9.5924,-8.4352 l -11.978,8.1364 c -0.0425,-12.006 -18.867,-9.9491 -22.496,-20.212 a 65.535,65.535 0 0 0 -3.4619,-0.12265 z"
         inkscape:connector-curvature="0"
         style="fill:#ffffff" />
    </g>
    <g
       id="g635"
       style="fill:#ffffff;fill-rule:evenodd">
      <path
         id="path4787"
         d="m 103.37,418.96 c 0.4235,-0.94005 3.1618,-1.0632 3.8875,0 0.42416,0.62145 -0.82449,7.8624 -1.6327,7.8915 -0.96333,0.0347 -2.556,-7.2227 -2.2547,-7.8915 z"
         inkscape:connector-curvature="0" />
      <path
         id="path4789"
         d="m 150.72,380.37 c -0.60236,-0.83679 0.66008,-3.2698 1.9437,-3.3666 0.75027,-0.0566 6.3968,4.6452 6.0179,5.3598 -0.45161,0.85162 -7.5331,-1.3978 -7.9616,-1.9931 z"
         inkscape:connector-curvature="0" />
      <path
         id="path4791"
         d="m 56.445,378.6 c 1.0259,-0.10326 2.5017,2.2066 1.9437,3.3666 -0.32611,0.67806 -7.2213,3.2172 -7.6506,2.5318 -0.51172,-0.81691 4.977,-5.8249 5.7069,-5.8984 z"
         inkscape:connector-curvature="0" />
    </g>
  </g>
  <g
     id="g640"
     style="fill-rule:evenodd;stroke:#003090;stroke-linecap:round;stroke-width:1.52760212"
     transform="matrix(0.49096232,0,0,0.49096232,-6.166448,-134.21813)">
    <path
       id="path4147"
       d="m 88.339,332.23 c 10.473,-3.5267 21.513,-4.5963 33.975,0.49964 6.4162,-5.6122 20.676,-17.676 22.734,-16.488 1.6732,0.96602 0.17551,25.647 -4.7466,38.972 1.342,1.5609 2.2931,2.8611 7.4946,6.9949 -7.2754,9.2771 -9.4489,14.91 -12.241,20.985 -13.982,9.1305 -18.75,14.784 -18.736,17.237 0.0573,10.47 -5.3154,9.8299 -10.087,9.9455 -4.9455,0.11976 -11.814,0.27197 -12.147,-10.195 -0.10771,-3.3894 -6.2058,-10.659 -18.736,-15.988 -2.8588,-6.9208 -6.6346,-14.147 -11.492,-21.734 2.9242,-2.4614 5.3998,-4.6985 6.9949,-6.4953 -2.499,-12.575 -10.213,-35.004 -7.4946,-37.723 2.4465,-2.4465 24.147198,14.43831 24.482,13.99 z"
       inkscape:connector-curvature="0"
       style="fill:#fdbe11;stroke-width:1.52760208"
       sodipodi:nodetypes="ccccccccccccccc" />
    <path
       id="path4149"
       d="m 66.855,322.99 c -2.2764,1.6291 5.192,25.613 6.4953,26.731 3.9545,-0.71067 8.895,-5.3952 9.7429,-8.4938 1.8528,-6.7711 -13.981,-19.852 -16.238,-18.237 z"
       inkscape:connector-curvature="0"
       style="fill:#ffffff;stroke-width:1.52760212" />
    <path
       id="path4151"
       d="m 142.82,322.99 c 2.2764,1.6291 -5.192,25.613 -6.4953,26.731 -3.9545,-0.71067 -8.895,-5.3952 -9.7429,-8.4938 -1.8528,-6.7711 13.981,-19.852 16.238,-18.237 z"
       inkscape:connector-curvature="0"
       style="fill:#ffffff;stroke-width:1.52760212" />
  </g>
  <g
     style="fill:none;stroke:#003090;stroke-linecap:round;stroke-width:1.52760212"
     id="g647"
     transform="matrix(0.49096232,0,0,0.49096232,-6.166448,-134.21813)">
    <path
       inkscape:connector-curvature="0"
       d="m 81.344,364.71 c 7.7462,-1.1558 16.58,-1.1949 18.986,5.7458 3.9507,11.396 -0.18897,21.70735 -5.356061,30.78335"
       id="path4153"
       style="stroke-width:1.52760208"
       sodipodi:nodetypes="ccc" />
    <path
       inkscape:connector-curvature="0"
       d="m 130.81,364.46 c -6.4713,-1.8437 -11.537,-2.1931 -14.989,0 -5.2381,3.3275 -6.1771,5.8048 -6.2455,8.9935 -0.25093,11.696 -0.40099,18.03028 7.35623,25.78728"
       id="path4155"
       style="stroke-width:1.52760208"
       sodipodi:nodetypes="ccsc" />
    <path
       inkscape:connector-curvature="0"
       d="m 83.593,366.7 c 3.1905,3.349 6.9692,5.2271 11.492,5.2462"
       id="path4961"
       style="stroke-width:1.52760212" />
    <path
       inkscape:connector-curvature="0"
       d="m 87.59,352.21 7.2447,3.7473"
       id="path4963"
       style="stroke-width:1.52760212" />
    <path
       inkscape:connector-curvature="0"
       d="m 115.07,354.71 8.7437,-3.7473"
       id="path4965"
       style="stroke-width:1.52760212" />
    <path
       inkscape:connector-curvature="0"
       d="m 111.57,335.23 -4.9964,6.9949"
       id="path4967"
       style="stroke-width:1.52760212" />
    <path
       inkscape:connector-curvature="0"
       d="m 98.832,334.98 5.9956,7.4946"
       id="path4969"
       style="stroke-width:1.52760212" />
  </g>
  <path
     style="fill:none;stroke:#003090;stroke-width:0.99999344;stroke-linecap:round"
     inkscape:connector-curvature="0"
     d="m 23.680133,30.205151 c -3.577888,1.932182 -3.094093,5.171797 -8.301682,5.423661 5.492396,4.65501 0.113624,12.794969 10.183541,13.614876"
     id="path4793" />
  <path
     style="fill:none;stroke:#003090;stroke-width:0.99999344;stroke-linecap:round"
     id="path4851"
     d="m 28.218589,52.897429 c -9.800099,5.881238 -0.706151,11.032906 -0.664125,18.153332 5.375547,-2.928885 10.206125,1.851174 14.500572,-1.992423"
     inkscape:connector-curvature="0" />
  <path
     style="fill:none;stroke:#003090;stroke-width:0.99999344;stroke-linecap:round"
     id="path4854"
     d="m 49.690335,68.726055 c 3.449698,4.687708 9.753949,0.0084 14.500572,1.549673 0.369032,-5.643121 9.099987,-11.704542 -0.996211,-16.824788"
     inkscape:connector-curvature="0" />
  <path
     style="fill:none;stroke:#003090;stroke-width:0.99999344;stroke-linecap:round"
     id="path4856"
     d="m 35.634575,25.113872 c 0.178651,-5.425134 8.625717,-5.875346 10.294007,-10.404965 2.049178,4.675042 9.754439,4.835881 10.072583,9.740693"
     inkscape:connector-curvature="0" />
  <path
     sodipodi:nodetypes="ccc"
     style="fill:none;stroke:#003090;stroke-width:0.99999344;stroke-linecap:round"
     inkscape:connector-curvature="0"
     d="m 67.625189,29.876206 c 2.557521,1.695882 2.4766,4.503396 6.880581,5.143857 -3.688305,1.554828 1.823591,14.016439 -7.766277,13.562299"
     id="path4858" />
  <circle
     id="path4884"
     cy="46.181065"
     cx="38.630424"
     r="1.4389615"
     style="fill:#003090" />
  <circle
     id="circle4886"
     cx="52.046955"
     cy="45.799091"
     r="1.4389615"
     style="fill:#003090" />
  <circle
     style="fill:#ffffff"
     r="0.42959204"
     cx="38.25975"
     cy="45.39061"
     id="path4890" />
  <circle
     style="fill:#ffffff"
     r="0.42959204"
     cy="45.228104"
     cx="51.453373"
     id="circle4892" />
  <path
     style="fill:#ffffff;fill-rule:evenodd"
     id="path4924"
     d="m 31.876749,52.534117 c -0.0861,-1.068186 7.536272,2.443029 10.539488,4.811578 -0.940045,1.314454 -1.670843,2.647907 -1.775712,4.038313 -1.61735,-5.127637 -8.588895,-6.679052 -8.764168,-8.850087 z"
     inkscape:connector-curvature="0"
     sodipodi:nodetypes="ccccc" />
  <path
     style="fill:#ffffff;fill-rule:evenodd"
     sodipodi:nodetypes="ccccc"
     id="path4926"
     d="m 60.088917,52.534117 c -0.02092,-1.071476 -7.536272,2.443029 -10.539488,4.811578 0.940046,1.314454 1.708649,1.757571 1.813519,3.147976 2.224028,-4.487802 8.758274,-6.306729 8.726362,-7.959799 z"
     inkscape:connector-curvature="0" />
  <path
     style="fill:#ffffff;fill-rule:evenodd"
     id="path4928"
     d="m 41.785435,61.444966 1.431213,0.02649 c -0.298605,1.698956 0.289814,2.886189 1.82876,3.525035 l 0,0.742118 c -4.167834,0.565062 -4.04598,-1.64916 -3.259973,-4.293641 z"
     inkscape:connector-curvature="0" />
  <path
     style="fill:#ffffff;fill-rule:evenodd"
     id="path4930"
     d="m 49.745714,61.36511 -1.483372,0.02745 c 0.309487,1.760873 -0.300376,2.991373 -1.895408,3.653501 l 0,0.769163 c 4.319726,0.585655 4.193432,-1.709262 3.37878,-4.450117 z"
     inkscape:connector-curvature="0" />
  <path
     id="path4932"
     d="m 43.50421,61.410716 4.410609,0 c 0.494645,2.213062 -1.526598,3.621731 -2.148058,3.580048 -0.69702,-0.04679 -2.451277,-1.411467 -2.2626,-3.580048 z"
     inkscape:connector-curvature="0"
     style="fill:#003090;fill-rule:evenodd" />
  <ellipse
     id="path4934"
     rx="1.2435585"
     ry="0.43525282"
     cy="66.431427"
     cx="45.836281"
     style="fill:#003090" />
  <path
     id="path4959"
     d="m 39.535271,49.622711 c 2.872375,4.134541 1.665393,6.22933 0.735903,8.462717"
     inkscape:connector-curvature="0"
     style="fill:none;stroke:#003090;stroke-width:0.74999508;stroke-linecap:round" />
  <path
     id="path4957"
     d="m 55.724262,45.449531 c -0.307269,2.912634 -2.410232,2.435124 -4.538112,3.066305 -3.301918,0.979421 0.775328,7.791081 -0.613261,10.302844"
     inkscape:connector-curvature="0"
     style="fill:none;stroke:#003090;stroke-width:0.74999508;stroke-linecap:round" />
  <g
     id="g4977"
     transform="matrix(0.49096232,0,0,0.49096232,-6.166448,-271.68758)"
     style="fill:#003090">
    <g
       id="g680">
      <circle
         id="path4964"
         cx="57.212002"
         cy="628.17999"
         r="1.0987999" />
      <circle
         id="circle4966"
         cy="628.17999"
         cx="63.09"
         r="1.0987999" />
      <circle
         id="circle4968"
         cx="60.235001"
         cy="624.54999"
         r="1.0987999" />
    </g>
    <path
       id="path4973"
       d="m 60.02,632.45 -2.0872,6.4776 2.2092,2.5572 2.1393,-2.616 -2.2614,-6.4189 z"
       inkscape:connector-curvature="0"
       style="fill-rule:evenodd" />
  </g>
  <g
     id="g4983"
     transform="matrix(0.49096232,0,0,0.49096232,16.417819,-288.3803)"
     style="fill:#003090">
    <g
       id="g687">
      <circle
         id="circle4985"
         cy="628.17999"
         cx="57.212002"
         r="1.0987999" />
      <circle
         id="circle4987"
         cx="63.09"
         cy="628.17999"
         r="1.0987999" />
      <circle
         id="circle4989"
         cy="624.54999"
         cx="60.235001"
         r="1.0987999" />
    </g>
    <path
       id="path4991"
       d="m 60.02,632.45 -2.0872,6.4776 2.2092,2.5572 2.1393,-2.616 -2.2614,-6.4189 z"
       inkscape:connector-curvature="0"
       style="fill-rule:evenodd" />
  </g>
  <g
     id="g5003"
     transform="matrix(0.49096232,0,0,0.49096232,39.002085,-271.68758)"
     style="fill:#003090">
    <g
       id="g694">
      <circle
         id="circle5005"
         cy="628.17999"
         cx="57.212002"
         r="1.0987999" />
      <circle
         id="circle5007"
         cx="63.09"
         cy="628.17999"
         r="1.0987999" />
      <circle
         id="circle5009"
         cy="624.54999"
         cx="60.235001"
         r="1.0987999" />
    </g>
    <path
       id="path5012"
       d="m 60.02,632.45 -2.0872,6.4776 2.2092,2.5572 2.1393,-2.616 -2.2614,-6.4189 z"
       inkscape:connector-curvature="0"
       style="fill-rule:evenodd" />
  </g>
  <g
     id="g5014"
     transform="matrix(0.49096232,0,0,0.49096232,2.6708738,-248.12139)"
     style="fill:#003090">
    <g
       id="g701">
      <circle
         id="circle5016"
         cy="628.17999"
         cx="57.212002"
         r="1.0987999" />
      <circle
         id="circle5018"
         cx="63.09"
         cy="628.17999"
         r="1.0987999" />
      <circle
         id="circle5020"
         cy="624.54999"
         cx="60.235001"
         r="1.0987999" />
    </g>
    <path
       id="path5024"
       d="m 60.02,632.45 -2.0872,6.4776 2.2092,2.5572 2.1393,-2.616 -2.2614,-6.4189 z"
       inkscape:connector-curvature="0"
       style="fill-rule:evenodd" />
  </g>
  <g
     id="g5027"
     transform="matrix(0.49096232,0,0,0.49096232,30.164764,-248.12139)"
     style="fill:#003090">
    <g
       id="g708">
      <circle
         id="circle5029"
         cx="57.212002"
         cy="628.17999"
         r="1.0987999" />
      <circle
         id="circle5031"
         cy="628.17999"
         cx="63.09"
         r="1.0987999" />
      <circle
         id="circle5033"
         cx="60.235001"
         cy="624.54999"
         r="1.0987999" />
    </g>
    <path
       id="path5036"
       d="m 60.02,632.45 -2.0872,6.4776 2.2092,2.5572 2.1393,-2.616 -2.2614,-6.4189 z"
       inkscape:connector-curvature="0"
       style="fill-rule:evenodd" />
  </g>
  <circle
     style="opacity:1;fill:none;fill-opacity:1;stroke:#99730a;stroke-width:0.74999505;stroke-linecap:round;stroke-linejoin:round;stroke-miterlimit:4;stroke-dasharray:none;stroke-opacity:1"
     id="path4044"
     cx="44.999527"
     cy="44.999706"
     r="43.99971" />
</svg>
