<?xml version="1.0" encoding="UTF-8" standalone="no"?>
<!-- Created with Inkscape (http://www.inkscape.org/) -->

<svg
   xmlns:dc="http://purl.org/dc/elements/1.1/"
   xmlns:cc="http://creativecommons.org/ns#"
   xmlns:rdf="http://www.w3.org/1999/02/22-rdf-syntax-ns#"
   xmlns:svg="http://www.w3.org/2000/svg"
   xmlns="http://www.w3.org/2000/svg"
   xmlns:sodipodi="http://sodipodi.sourceforge.net/DTD/sodipodi-0.dtd"
   xmlns:inkscape="http://www.inkscape.org/namespaces/inkscape"
   id="svg2"
   viewBox="0 0 90.000013 89.999159"
   height="25.4mm"
   width="25.400002mm"
   version="1.1"
   inkscape:version="0.91 r13725"
   sodipodi:docname="liverpool.svg">
  <sodipodi:namedview
     pagecolor="#ffffff"
     bordercolor="#666666"
     borderopacity="1"
     objecttolerance="10"
     gridtolerance="10"
     guidetolerance="10"
     inkscape:pageopacity="0"
     inkscape:pageshadow="2"
     inkscape:window-width="1366"
     inkscape:window-height="747"
     id="namedview798"
     showgrid="false"
     fit-margin-top="0"
     fit-margin-left="0"
     fit-margin-right="0"
     fit-margin-bottom="0"
     inkscape:zoom="1.5484005"
     inkscape:cx="387.21692"
     inkscape:cy="-27.124764"
     inkscape:window-x="0"
     inkscape:window-y="21"
     inkscape:window-maximized="1"
     inkscape:current-layer="svg2" />
  <defs
     id="defs4">/&gt;
<clipPath
   id="clipPath3595-2"
   clipPathUnits="userSpaceOnUse">
  <path
     id="path3597-7"
     d="m -307.2,283.5 155.55,2.0795 c 0,0 33.688,19.132 4.5749,29.945 -29.1131,10.813 -36.184,13.725 -36.184,13.725 l 1.6636,12.893 43.254,-19.963 44.086,63.633 -18.716,74.863 -34.52,34.52 c 0,0 -21.211,15.388 -21.211,7.9022 l 0,-7.4863 -51.572,0.4159 -74.447,-4.9908 -17.468,-71.951 z"
     inkscape:connector-curvature="0"
     style="fill:#333333;fill-rule:evenodd" />
</clipPath>
</defs>
  <metadata
     id="metadata7">
    <rdf:RDF>
      <cc:Work
         rdf:about="">
        <dc:format>image/svg+xml</dc:format>
        <dc:type
           rdf:resource="http://purl.org/dc/dcmitype/StillImage" />
        <dc:title></dc:title>
      </cc:Work>
    </rdf:RDF>
  </metadata>
  <g
     id="layer2"
     transform="matrix(0.4576358,0,0,0.4576358,-542.48107,-336.72144)"
     style="fill-rule:evenodd">
    <g
       id="g781"
       style="fill:#c8102e">
      <path
         id="path4321"
         d="m 1260.8,866.46 -3.3504,13.123 6.4217,-3.6297 c -3.3891,9.846 -7.0898,19.933 -14.519,27.362 -1,1 -8.6265,-2.8056 -9.4232,-1.396 l -0.9074,1.6054 c -2.0449,0.94328 -5.6241,0.0973 -4.7465,4.1183 1.266,-1.364 2.8318,-2.3083 5.0257,-2.3732 -1.5088,2.1689 -1.8349,3.8779 0,4.7465 7.374,-3.8213 15.166,-5.7826 24.57,-0.55841 1.3338,-1.7372 1.9678,-4.5138 0.8376,-4.9559 -2.3394,-0.91511 -6.3752,0.29901 -9.5628,-0.48861 4.5696,-8.0057 13.076,-17.148 14.03,-24.43 l 5.5841,2.2336 c -2.1497,-2.842 -3.7024,-6.4799 -3.6297,-12.285 -3.4435,0.15823 -6.887,-0.99747 -10.331,-3.0713 z"
         inkscape:connector-curvature="0" />
      <path
         id="path5123"
         d="m 1289.4,903.73 c -3.9519,0.92814 -8.8112,-2.779 -10.652,-2.029 -1.6702,0.68044 -1.5278,1.7234 -1.9022,2.663 -2.6267,-0.56292 -3.6566,1.1906 -3.5856,3.4184 1.5217,-0.95274 3.0784,-1.6728 4.6001,-1.5162 -1.348,1.3948 -1.6601,2.7561 -0.1268,4.058 6.536,-2.2781 11.119,-6.532 25.236,-1.1413 1.9016,-0.41195 1.9697,-3.8444 1.5218,-4.3116 -0.6954,-0.72512 -6.599,-0.62783 -9.6377,-0.50725 -3.329,-7.2092 -6.6179,-14.442 -6.087,-23.967 l 6.5942,0.76087 c -4.2493,-4.0149 -8.2701,-8.3028 -7.2282,-18.641 -12.901,-10.453 -13.294,-15.902 -15.471,-22.065 -3.4985,-2.4464 -5.968,-5.3771 -7.2282,-8.8768 -3.7915,-23.85 23.201,-26.08 12.808,-41.341 5.2811,-0.006 10.518,-0.0518 10.525,-4.9457 -7.0596,3.6142 -16.231,-3.3018 -24.728,-3.6775 -0.6766,-0.0299 -4.615,1.0397 -3.2971,4.1848 -7.5126,-1.6786 -10.326,1.5896 -12.935,5.0725 4.9639,-1.0916 11.863,-3.7352 12.428,-0.88768 0.6163,3.1086 -6.4234,2.1998 -9.6377,3.2971 l 2.1558,2.663 c 0.8439,1.0424 12.719,-4.4917 15.07,0.50054 3.7533,7.9697 -38.032,24.451 -26.991,51.746 3.2104,7.9364 12.591,16.797 35.254,19.656 3.6672,0.46258 1.6039,8.7101 2.0289,13.442 l 3.0435,-2.4094 c 1.5301,9.1151 3.8304,17.705 8.2428,24.855 z"
         inkscape:connector-curvature="0" />
      <path
         id="path5125"
         d="m 1285.9,848.37 c 37.154,9.2617 27.968,30.344 22.432,41.83 2.5995,-21.941 -9.9663,-31.845 -22.432,-41.83 z"
         inkscape:connector-curvature="0" />
      <path
         id="path5127"
         d="m 1313.9,797.44 c 7.225,-8.4879 13.965,-15.922 18.662,-28.132 0.8159,-2.1206 1.1933,8.5351 0,10.113 -7.6639,10.132 -20.983,20.745 -18.662,18.019 z"
         inkscape:connector-curvature="0" />
      <path
         id="path5129"
         d="m 1296.9,877.42 c -2.0309,-20.24 -15.887,-19.755 -23.351,-37.325 l -1.7512,0.5516 -5.0563,-5.2402 c 10.35,-0.54894 8.6467,-13.537 17.012,-20.685 8.2515,-7.0511 40.179,-22.974 43.209,-56.815 14.854,26.906 -44.754,60.117 -37.877,57.366 l 8.274,-3.3096 c 0.8087,5.4111 -10.519,7.5226 -10.48,9.1934 0.047,2.0471 5.5979,-0.48703 10.296,-1.8387 -0.2772,4.7682 -10.256,5.2675 -10.48,8.274 -0.1293,1.7341 5.8304,-0.52494 9.3772,-1.1032 -1.5779,4.8454 -8.0306,3.6186 -9.7449,5.516 -1.5872,1.7567 4.7146,1.2021 7.1708,1.6548 -1.4993,3.5204 -6.1961,3.6058 -8.0902,4.4128 4.969,5.9927 12.302,4.8948 19.122,5.3321 -8.7549,5.6185 -17.604,7.7638 -26.845,-4.5967 l -1.4709,1.6548 c 7.6296,12.103 27.853,20.502 20.685,36.957 z"
         inkscape:connector-curvature="0" />
      <path
         id="path5131"
         d="m 1331.2,784.02 c -8.0547,8.9236 -16.098,17.848 -31.809,26.293 0.2474,1.5277 1.0071,2.0308 0.3678,5.3321 14.504,-9.3682 28.473,-18.892 31.441,-31.625 z"
         inkscape:connector-curvature="0" />
      <path
         id="path5133"
         d="m 1299.6,818.58 c 8.1567,-4.7563 16.366,-8.7775 25.006,-18.019 -4.1328,11.054 -15.264,16.759 -24.822,22.248 0.6534,-2.839 0.081,-3.2264 -0.1839,-4.2289 z"
         inkscape:connector-curvature="0" />
      <path
         id="path5136"
         d="m 1298.5,825.39 c 0.2114,1.4572 0.6172,2.8171 -2.0226,5.6999 12.524,-3.516 20.143,-9.355 23.351,-17.284 -7.1095,4.9082 -14.219,9.5689 -21.328,11.584 z"
         inkscape:connector-curvature="0" />
      <path
         id="path5138"
         d="m 1295,833.48 c 7.0909,-0.92708 13.805,-4.4908 20.409,-8.8256 -6.6654,10.939 -14.898,12.474 -22.983,14.893 1.0864,-1.8512 3.2534,-2.8921 2.5741,-6.0676 z"
         inkscape:connector-curvature="0" />
      <path
         id="path5140"
         d="m 1294.2,840.83 c 5.6647,-1.1244 11.091,-2.3918 14.342,-4.9644 l -3.6774,5.1483 z"
         inkscape:connector-curvature="0" />
      <path
         id="path5142"
         d="m 1314.5,771.51 c 12.419,13.756 -31.331,41.403 -31.257,40.635 0.2863,-2.9708 31.53,-24.073 31.257,-40.635 z"
         inkscape:connector-curvature="0" />
      <path
         id="path5144"
         d="m 1265.2,831.46 c 4.6907,2.7105 5.7161,-10.509 7.9395,-15.996 5.312,-13.11 41.688,-32.007 33.832,-50.931 11.904,6.2074 2.204,18.908 -5.8838,28.132 -7.8398,7.6237 -18.642,14.729 -23.351,22.983 -3.1962,5.6026 -4.0519,18.425 -11.4,19.122 z"
         inkscape:connector-curvature="0" />
      <path
         id="path5160"
         d="m 1255.3,783.16 c 2.2578,7.9397 -0.2869,11.574 -2.6354,15.384 2.3695,1.2953 4.7068,3.3957 7.2321,0.79675 -4.0403,9.4914 -7.5601,0.78696 -8.8869,0.91934 -1.5829,0.15794 -4.1164,6.3456 -5.0257,8.3966 -2.6847,0.0435 -2.832,-4.0136 -2.2064,-4.9644 1.1967,-1.8186 5.4571,-3.1548 5.5773,-4.2902 0.1192,-1.1255 -5.6874,2.7256 -8.6417,0.67417 4.5474,-3.1236 6.8121,-4.1695 10.358,-2.2064 1.4665,-2.4846 2.6126,-6.0247 2.9419,-8.274 0.1532,-1.047 0.1733,-2.1606 0,-3.3709 -1.7748,-2.7485 -0.8521,-4.3527 1.287,-3.0644 z"
         inkscape:connector-curvature="0" />
    </g>
    <path
       id="path5162"
       d="m 1263.8,787.02 c -0.2341,0.46019 0.094,1.2576 0.6742,2.2064 1.4505,-0.12919 2.901,-0.54878 4.3515,-1.6548 -1.5651,-0.62439 -3.1406,-1.2073 -5.0257,-0.5516 z"
       inkscape:connector-curvature="0"
       style="fill:#ffffff" />
    <path
       id="path5164"
       d="m 1259.6,817.73 c -7.2073,6.8845 -10.768,14.951 -7.2321,23.903 3.7446,9.4809 10.236,12.257 16.18,15.077 -10.631,-9.3057 -16.523,-20.896 -8.9482,-38.98 z"
       inkscape:connector-curvature="0"
       style="fill:#ffffff" />
  </g>
  <circle
     style="opacity:0.8;fill:none;fill-opacity:1;stroke:#c8102e;stroke-width:0.75000006;stroke-linecap:round;stroke-linejoin:round;stroke-miterlimit:4;stroke-dasharray:none;stroke-opacity:1"
     id="path4128"
     cx="45.000004"
     cy="44.99958"
     r="43.625004" />
</svg>
