<?xml version="1.0" encoding="UTF-8" standalone="no"?>
<!-- Created with Inkscape (http://www.inkscape.org/) -->

<svg
   xmlns:dc="http://purl.org/dc/elements/1.1/"
   xmlns:cc="http://creativecommons.org/ns#"
   xmlns:rdf="http://www.w3.org/1999/02/22-rdf-syntax-ns#"
   xmlns:svg="http://www.w3.org/2000/svg"
   xmlns="http://www.w3.org/2000/svg"
   xmlns:sodipodi="http://sodipodi.sourceforge.net/DTD/sodipodi-0.dtd"
   xmlns:inkscape="http://www.inkscape.org/namespaces/inkscape"
   id="svg2"
   viewBox="0 0 89.997199 89.99983"
   height="25.400002mm"
   width="25.400002mm"
   version="1.1"
   inkscape:version="0.91 r13725"
   sodipodi:docname="man_utd.svg">
  <sodipodi:namedview
     pagecolor="#ffffff"
     bordercolor="#666666"
     borderopacity="1"
     objecttolerance="10"
     gridtolerance="10"
     guidetolerance="10"
     inkscape:pageopacity="0"
     inkscape:pageshadow="2"
     inkscape:window-width="1366"
     inkscape:window-height="747"
     id="namedview630"
     showgrid="false"
     inkscape:zoom="6.133333"
     inkscape:cx="45.000003"
     inkscape:cy="45.000003"
     inkscape:window-x="0"
     inkscape:window-y="21"
     inkscape:window-maximized="1"
     inkscape:current-layer="svg2"
     fit-margin-top="0"
     fit-margin-left="0"
     fit-margin-right="0"
     fit-margin-bottom="0"
     inkscape:showpageshadow="false" />
  <defs
     id="defs4">/&gt;
<clipPath
   id="clipPath3595-2"
   clipPathUnits="userSpaceOnUse">
  <path
     id="path3597-7"
     d="m -307.2,283.5 155.55,2.0795 c 0,0 33.688,19.132 4.5749,29.945 -29.1131,10.813 -36.184,13.725 -36.184,13.725 l 1.6636,12.893 43.254,-19.963 44.086,63.633 -18.716,74.863 -34.52,34.52 c 0,0 -21.211,15.388 -21.211,7.9022 l 0,-7.4863 -51.572,0.4159 -74.447,-4.9908 -17.468,-71.951 z"
     inkscape:connector-curvature="0"
     style="fill:#333333;fill-rule:evenodd" />
</clipPath>
</defs>
  <metadata
     id="metadata7">
    <rdf:RDF>
      <cc:Work
         rdf:about="">
        <dc:format>image/svg+xml</dc:format>
        <dc:type
           rdf:resource="http://purl.org/dc/dcmitype/StillImage" />
        <dc:title></dc:title>
      </cc:Work>
    </rdf:RDF>
  </metadata>
  <g
     id="layer2"
     transform="matrix(0.09423489,0,0,0.09423489,34.53947,11.789859)">
    <g
       id="g4806"
       style="fill-rule:evenodd">
      <path
         id="path3984"
         d="m -105.07,43.341 432.33,0 0,476.98 -216.17,140.98 -216.37,-140.98 c 0,-152.2 0.20431,-319.83 0.20431,-476.98 z"
         inkscape:connector-curvature="0"
         style="fill:#fbe122;stroke:#000000;stroke-width:2" />
      <path
         id="path3986"
         d="m -89.379,57.362 400.5,0 0,108.09 -400.5,0 z"
         inkscape:connector-curvature="0"
         style="fill:#da291c" />
      <path
         id="path3988"
         d="m -88.931,179.8 400.05,0 0,28.255 -400.05,0 z"
         inkscape:connector-curvature="0"
         style="fill:#da291c" />
      <path
         id="path4790"
         d="M -19.914,134.25 27.072,83.853 27.559,96.025 11.248,142.04 Z"
         inkscape:connector-curvature="0"
         style="fill:#fbe122" />
      <path
         id="path4792"
         d="m 31.941,82.635 0.24345,53.316 23.371,0 0,11.686 -45.039,0 -47.23,-10.955 10.225,29.214 259.28,0 0,-18.746 -28.727,0 0,-11.929 22.641,0 0,-52.099 -21.18,0 -7.547,-14.364 -6.8167,14.364 -22.885,0 0,52.829 23.615,0 0,11.442 -55.751,0 0,-11.686 23.371,0 0,-52.829 -21.667,0 -7.7905,-14.12 -7.3036,14.364 -21.911,0 0,52.829 23.371,0 0,10.955 -57.455,0 0,-11.686 23.858,0 0,-52.829 -21.911,0 -7.547,-14.12 -7.0601,14.607 z"
         inkscape:connector-curvature="0"
         style="fill:#fbe122" />
      <path
         id="path4794"
         d="m 42.151,241.74 22.035,0.68859 13.772,-29.609 16.526,29.609 15.838,0 16.526,-28.921 13.083,29.609 21.346,0 c -25.798,27.567 -12.369,49.316 -20.658,72.302 8.0335,6.3133 24.242,14.499 24.101,18.592 -0.29865,8.6473 -23.137,12.537 -18.698,19.343 4.439,6.8059 31.508,-14.764 51.75,-12.457 l -0.68859,-16.526 -31.675,0.35427 0,-52.343 -6.8859,-9.4456 14.46,-25.237 15.838,25.237 -6.4687,9.4456 0.27144,26.855 16.526,0 0,-26.855 -6.1973,-9.4456 14.46,-25.237 15.149,25.237 -6.1973,9.4456 0,26.855 17.215,0 -0.68859,-26.855 -6.3083,-9.4456 14.972,-25.237 14.729,25.237 -5.9646,9.4456 0,51.998 -32.988,0.36518 0,23.25 c 12.217,15.251 21.08,30.578 9.1295,46.378 3.1138,15.227 -0.69426,26.499 -9.2512,35.057 l 0.24345,126.72 c -7.9626,7.4816 -14.209,5.096 -19.963,-0.12172 l 0.12173,-123.55 c -13.05,-11.97 -27.21,-17.28 -41.34,-22.73 -8.1322,9.7819 -13.475,19.962 -17.731,30.298 4.2505,3.2415 9.0976,2.3064 14.46,-2.2379 5.3154,-4.348 17.349,-4.9542 15.321,2.5822 -1.9922,7.4023 -5.0837,15.714 -3.6151,22.207 1.4686,6.4927 10.734,4.2517 16.87,4.9923 11.084,8.1555 1.8958,26.625 2.4365,32.672 l -0.19859,28.785 c -0.0605,8.7665 9.1446,29.687 -4.9923,25.822 l -76.778,-80.737 c -0.0421,29.559 28.08,47.633 25.65,61.457 -1.4935,8.4964 -21.084,14.109 -21.346,18.248 -0.99572,15.72 23.848,40.464 23.068,48.201 -1.5429,15.291 -27.713,26.587 -50.095,24.789 -9.9727,-0.80122 -3.9214,-21.723 -5.3366,-33.052 -3.1755,-9.9752 -13.18,-24.218 -20.313,-36.667 -0.91869,-19.885 5.5058,-56.683 4.1315,-69.892 l -27.535,-1.38 c -8.265,-4.34 -12.112,-12.68 -14.288,-22.55 l -3.271,-113.62 c -2.8844,-12.01 -16.321,-12.27 -16.834,-15.87 -0.6963,-4.89 27.105,-20.25 16.318,-26.48 -22.581,-13.037 -37.225,11.273 -54.571,21.863 -0.94829,-16.469 -6.035,-32.937 -13.083,-49.406 8.55,2.0101 17.1,7.3875 25.65,6.0252 12.429,-9.9025 11.941,-30.606 21.555,-33.397 6.6182,-1.9208 13.542,3.8015 20.313,6.5416 l 11.752,-11.99 c 0,16.992 12.187,54.223 35.724,65.353 -6.1308,12.621 -14.123,22.916 -18.248,38.045 -1.371,36.98 2.6899,67.452 7.9188,69.375 10.569,3.8868 24.779,-30.626 23.412,-34.602 -5.044,-14.68 -18.195,-25.44 -16.87,-39.77 1.204,-13.03 21.69,-32.71 21.69,-32.71 -6.642,-29.16 -21.786,-49.16 -35.29,-70.93 z"
         inkscape:connector-curvature="0"
         style="fill:#da291c" />
      <g
         id="g624"
         style="fill:#fbe122">
        <path
           id="path4798"
           d="m 85.413,261.18 c -1.0593,3.1817 -1.5568,8.0052 -0.62572,12.097 0.90006,3.9556 4.5156,7.0425 7.7172,5.6315 3.146,-1.3866 4.6986,-5.4386 1.2514,-10.846 -1.7848,-2.7996 -4.5067,-4.9404 -8.3429,-6.8829 z"
           inkscape:connector-curvature="0" />
        <path
           id="path4800"
           d="m 125.42,261.18 c 1.0593,3.1817 1.5568,8.0052 0.62572,12.097 -0.90006,3.9556 -4.5156,7.0425 -7.7172,5.6315 -3.146,-1.3866 -4.6986,-5.4386 -1.2514,-10.846 1.7848,-2.7996 4.5067,-4.9404 8.3429,-6.8829 z"
           inkscape:connector-curvature="0" />
        <path
           id="path4802"
           d="m 96.467,308.11 20.232,0.20857 -9.8029,24.194 z"
           inkscape:connector-curvature="0" />
        <path
           id="path4804"
           d="m 197.42,374.43 0.41714,17.52 c -17.693,0.0754 -27.749,-7.1224 -33.789,-18.146 5.2045,-3.9839 16.785,-11.289 33.372,0.62572 z"
           inkscape:connector-curvature="0" />
      </g>
    </g>
  </g>
  <circle
     style="opacity:1;fill:none;fill-opacity:1;stroke:#da291c;stroke-width:0.74999857;stroke-linecap:round;stroke-linejoin:round;stroke-miterlimit:4;stroke-dasharray:none;stroke-opacity:1"
     id="path3958"
     cx="44.9986"
     cy="44.999916"
     r="43.624916" />
</svg>
