<?xml version="1.0" encoding="UTF-8" standalone="no"?>
<!-- Created with Inkscape (http://www.inkscape.org/) -->
<svg id="svg2" xmlns:rdf="http://www.w3.org/1999/02/22-rdf-syntax-ns#" xmlns="http://www.w3.org/2000/svg" viewBox="0 0 90.000496 90.000571" height="25.4mm" width="25.4mm" version="1.1" xmlns:cc="http://creativecommons.org/ns#" xmlns:dc="http://purl.org/dc/elements/1.1/">
<defs id="defs4">/&gt;</defs>
<metadata id="metadata7">
<rdf:RDF>
<cc:Work rdf:about="">
<dc:format>image/svg+xml</dc:format>
<dc:type rdf:resource="http://purl.org/dc/dcmitype/StillImage"/>
<dc:title/>
</cc:Work>
</rdf:RDF>
</metadata>
<path id="path4832" d="m21.39 16.94c15.956-2.713 30.477-2.4657 46.431 0 5.843 24.994 5.233 48.536-23.31 57.996-29.711-11.538-26.559-35.433-23.123-57.996z" stroke="#1c2c5b" stroke-width="2.1134" fill="#fff"/>
<g id="g715" fill-rule="evenodd" transform="matrix(.26417 0 0 .26417 -232.58 -329.26)">
<path id="path4899" fill="#1c2c5b" d="m961.86 1409 89.795 111.58c-52.16-2.9-91.94-68.3-89.84-111.6z"/>
<path id="path4901" fill="#6cabdd" d="m963.04 1410.6h28.634l83.131 99.842-22.964 10.878z"/>
<path id="path4903" fill="#1c2c5b" d="m991.67 1410.6h31.395l71.262 87.687-19.369 12.727z"/>
<path id="path4905" fill="#6cabdd" d="m1049.7 1410.6h-28.633l73.585 89.096 16.226-14.75z"/>
<path id="path4907" fill="#1c2c5b" d="m1049.7 1410.6 61.34 74.714 13.517-19.695-43.463-55.019z"/>
<path id="path4909" fill="#6cabdd" d="m1107.7 1410.6h-28.633l45.352 55.202 9.5996-22.588z"/>
<path id="path4911" fill="#1c2c5b" d="m1107.7 1410.6 26.434 32.805 6.5801-32.805h-1.6192z"/>
</g>
<path id="path4004" d="m23.007 18.578c14.337-2.4049 28.858-2.4049 43.564 0 4.113 21.252 7.0829 44.605-21.783 54.527-26.863-9.602-25.996-28.712-21.783-54.527z" stroke="#ffc659" stroke-width="1.585" fill="none"/>
<path id="path4834" d="m21.12 42.591h47.746" stroke="#ffc659" stroke-width="1.585" fill="none"/>
<g id="g730" fill-rule="evenodd" transform="matrix(.26417 0 0 .26417 -232.58 -329.26)">
<path id="path4836" fill="#ffc659" d="m980.62 1385.3c28.531 9.3516 57.25 11.138 86.11 7.2996l34.271-4.7014c-0.785 5.4945-10.519 9.0277-5.8149 16.331l-9.4028 0.3712c-5.8974-2.0564-11.795-4.4615-17.692-4.9489-9.7312 6.9776-21.796 2.287-33.405-0.1237-5.5375 8.8809-24.238-3.8045-29.198 4.8251-3.9593-6.351-8.6084-12.702-24.868-19.053z"/>
<path id="path4838" fill="#d4a12a" d="m997.08 1390.7 8.2893 2.5982c11.887 8.5457 22.461 10.702 28.085 5.0726 9.6709 1.7642 25.789 7.1844 33.158 0.866 6.3923-0.085 12.785 2.4643 19.177 4.9489l8.5368-0.4949c-3.2697-5.1065 2.0978-9.9254 5.32-14.723-46.78 8.1263-74.712 7.6631-102.57 1.732z"/>
<path id="path4842" fill="#ffc659" d="m1079.1 1356 20.58-7.1584c-1.4066 10.552-1.9977 21.006 4.9853 30.551l-25.694 8.948z"/>
</g>
<path id="path4840" d="m52.385 23.571v14.622" stroke="#d4a12a" stroke-linecap="round" stroke-width=".26417" fill="none"/>
<path id="path4844" d="m57.88 27.375c-0.77666 4.2508-4.6679 7.126-5.4031 10.063l6.6862-2.2963c-1.4333-2.1345-1.6171-4.3266-1.2832-7.7669z" fill-rule="evenodd" fill="#d4a12a"/>
<path id="path4846" d="m49.638 24.548c0.83222 0.33576 1.7867-0.9479 2.7014-0.60783" stroke="#d4a12a" stroke-linecap="round" stroke-width=".26417" fill="none"/>
<path id="path4848" d="m45.147 37.044v1.9586" stroke="#d4a12a" stroke-width=".26417px" fill="none"/>
<g id="g739" fill-rule="evenodd" transform="matrix(.26417 0 0 .26417 -232.58 -329.26)">
<path id="path4852" fill="#ffc659" d="m1070 1358.3-30.679 10.866c-4.8882 8.0665-3.4624 15.411 3.5792 22.114 5.9347-7.0491 19.535-6.1683 35.281-3.0679-4.8837-8.1081-10.535-15.554-8.1811-29.912z"/>
<path id="path4850" fill="#d4a12a" d="m1069.6 1359.1c-2.9707 20.506-26.922 24.519-26.844 31.702 9.4778-8.0829 22.798-4.6396 35.536-2.9401-4.3216-6.632-8.9371-11.366-8.6924-28.762z"/>
<path id="path4017" fill="#ffc659" d="m1064.4 1341.2-25.694 8.1811c-2.8425 5.0509-4.262 10.485 1.6618 17.896 6.6103-7.7889 18.944-6.993 29.273-9.2037-3.2127-4.3515-5.4476-10.15-5.2409-16.873z"/>
<path id="path4015" fill="#d4a12a" d="m1064.6 1340.8c-3.0481 13.293-22.791 18.758-24.415 26.588 6.2825-7.0947 17.665-8.4898 29.656-9.2037-3.5919-4.1038-5.7317-9.5386-5.241-17.385z"/>
</g>
<path id="path4023" d="m45.252 19.582v2.33" stroke="#d4a12a" stroke-linecap="round" stroke-width=".26417" fill="none"/>
<path id="path4019" d="m47.894 20.956c-0.38403 1.845 0.1557 2.9344 0.7429 3.9848-2.3061 0.3905-4.927 0.18603-6.4835 1.9923-1.1715-1.1829-1.0064-2.4872-0.20259-3.8495z" fill-rule="evenodd" fill="#ffc659"/>
<path id="path4021" d="m47.815 20.956c-0.87662 3.0277-4.5805 3.681-5.8757 5.8419 1.9255-1.469 4.2576-1.8538 6.72-1.891-0.64716-0.95123-1.2554-1.9413-0.84421-3.9509z" fill-rule="evenodd" fill="#d4a12a"/>
<path id="path4825" d="m42.373 20.612c0.83222 0.33576 1.7867-0.9479 2.7014-0.60783" stroke="#d4a12a" stroke-linecap="round" stroke-width=".26417" fill="none"/>
<path id="path4827" d="m32.968 29.039c-1.2558 2.6576-1.682 5.1767-1.317 7.5643-1.3929-0.25104-2.9526-0.4353-4.7952-0.50652 1.1146-2.6042 3.0182-4.9934 6.1121-7.0576z" fill-rule="evenodd" fill="#ffc659"/>
<path id="path4829" d="m32.916 29.066c-1.5038 3.2863-1.6 5.5167-1.317 7.4628l-1.5196-0.13507c-1.485-2.1436 1.9242-4.9078 2.8367-7.3278z" fill-rule="evenodd" fill="#d4a12a"/>
<path id="path4866" d="m36.825 24.892v2.769" stroke="#d4a12a" stroke-linecap="round" stroke-width=".26417" fill="none"/>
<g id="g752" fill-rule="evenodd" transform="matrix(.26417 0 0 .26417 -232.58 -329.26)">
<path id="path4849" fill="#ffc659" d="m1028.3 1348.1c-0.1813 6.7704 1.5929 11.802 4.474 15.851-8.3545 1.7875-17.535 0.066-24.671 7.0306-2.3984-4.541-4.017-9.3418 0.6391-16.234z"/>
<path id="path4857" fill="#d4a12a" d="m1028.4 1348.2c-0.3456 5.7215 0.4905 11.148 4.2184 15.851-8.1811 1.3938-16.362-0.4913-24.543 6.7749-0.1823-6.6515 17.284-13.191 20.325-22.626z"/>
<path id="path4860" fill="#ffc659" d="m1032.7 1365c-0.282 11.685 2.9857 16.271 5.6244 22.114-9.558-0.639-19.857-3.0373-26.844 2.4288-5.448-4.9455-6.2598-10.523-4.2184-16.49z"/>
<path id="path4862" fill="#d4a12a" d="m1032.5 1365.7c-0.602 7.7994 2.0434 14.516 5.4967 20.964-9.8411-0.4315-20.489-2.3151-27.1 3.0679 1.1511-8.6218 18.272-8.424 21.603-24.032z"/>
</g>
<path id="path4864" d="m36.905 37.044v1.9586" stroke="#d4a12a" stroke-width=".26417px" fill="none"/>
<path id="path4868" d="m33.999 25.896c0.83222 0.33576 1.7867-0.9479 2.7014-0.60783" stroke="#d4a12a" stroke-linecap="round" stroke-width=".26417" fill="none"/>
<g id="g5046" stroke="#1c2c5b" transform="matrix(.26417 0 0 .26417 -132.19 -329.26)">
<g fill="#ec3325">
<g id="g761" stroke-linejoin="round" stroke-linecap="round" stroke-width="2">
<path id="path5044" transform="matrix(.30902 .95106 -.95106 .30902 1853 372.24)" d="m670.62 1433.8-4.3381-4.0044 4.0044-4.3381 4.3381 4.0044z"/>
<path id="path5042" d="m670.62 1433.8-4.3381-4.0044 4.0044-4.3381 4.3381 4.0044z" transform="matrix(-.80902 .58779 -.58779 -.80902 2071.2 2250.2)"/>
<path id="path5040" transform="matrix(-.80902 -.58779 .58779 -.80902 354.52 3038.4)" d="m670.62 1433.8-4.3381-4.0044 4.0044-4.3381 4.3381 4.0044z"/>
<path id="path5038" d="m670.62 1433.8-4.3381-4.0044 4.0044-4.3381 4.3381 4.0044z" transform="matrix(.30902 -.95106 .95106 .30902 -926.42 1647.5)"/>
<path id="path5034" d="m670.62 1433.8-4.3381-4.0044 4.0044-4.3381 4.3381 4.0044z"/>
</g>
<g id="g5017" fill-rule="evenodd" transform="matrix(1.4852,0,0,1.4852,-325.2,-708.55)" stroke-width="1.5">
<path id="path5020" d="m670.28 1461v-16.685c0-0.024 1.4057-3.0047 4.8387-3.3371 1.9502-0.1888 3.5628 4.39 5.8398 6.0067 2.1506 1.527 6.6731 1.4042 7.1746 3.337 0.83791 3.2294-1.3348 5.8397-1.3348 5.8397z"/>
<path id="path5026" d="m669.92 1460.8-15.868-5.156c-0.0228-0.01-2.4232-2.2654-1.6785-5.633 0.42307-1.9131 5.2761-2.0319 7.5173-3.6978 2.1168-1.5735 3.3976-5.9126 5.3907-5.7922 3.3303 0.201 5.1414 3.074 5.1414 3.074z"/>
<path id="path5028" d="m669.5 1461.7-9.8072 13.498c-0.0165 0.019-2.9033 1.6046-5.876-0.1443-1.6887-0.9935-0.30205-5.6458-1.1938-8.2921-0.84235-2.4994-4.5733-5.0583-3.8429-6.9168 1.2203-3.1051 4.5123-3.9398 4.5123-3.9398z"/>
<path id="path5030" d="m670.5 1460.9 9.8071 13.498c0.013 0.022 0.62889 3.2571-1.953 5.5438-1.4667 1.2991-5.4628-1.4574-8.2552-1.427-2.6374 0.029-6.224 2.7864-7.7658 1.5174-2.576-2.1201-2.3526-5.509-2.3526-5.509z"/>
<path id="path5032" d="m671.25 1461.1 15.868-5.1559c0.0249-0.01 3.292 0.4084 4.669 3.5705 0.78228 1.7964-3.0742 4.7451-3.9082 7.4102-0.78741 2.5173 0.72672 6.7804-0.95662 7.8546-2.8124 1.7948-5.9664 0.5351-5.9664 0.5351z"/>
</g>
<g id="g5010" stroke-width="1.5" fill-rule="evenodd">
<path id="path4998" d="m670.28 1461v-16.685c0-0.024 1.4057-3.0047 4.8387-3.3371 1.9502-0.1888 3.5628 4.39 5.8398 6.0067 2.1506 1.527 6.6731 1.4042 7.1746 3.337 0.83791 3.2294-1.3348 5.8397-1.3348 5.8397z"/>
<path id="path5000" d="m669.92 1460.8-15.868-5.156c-0.0228-0.01-2.4232-2.2654-1.6785-5.633 0.42307-1.9131 5.2761-2.0319 7.5173-3.6978 2.1168-1.5735 3.3976-5.9126 5.3907-5.7922 3.3303 0.201 5.1414 3.074 5.1414 3.074z"/>
<path id="path5003" d="m669.5 1461.7-9.8072 13.498c-0.0165 0.019-2.9033 1.6046-5.876-0.1443-1.6887-0.9935-0.30205-5.6458-1.1938-8.2921-0.84235-2.4994-4.5733-5.0583-3.8429-6.9168 1.2203-3.1051 4.5123-3.9398 4.5123-3.9398z"/>
<path id="path5006" d="m670.5 1460.9 9.8071 13.498c0.013 0.022 0.62889 3.2571-1.953 5.5438-1.4667 1.2991-5.4628-1.4574-8.2552-1.427-2.6374 0.029-6.224 2.7864-7.7658 1.5174-2.576-2.1201-2.3526-5.509-2.3526-5.509z"/>
<path id="path5008" d="m671.25 1461.1 15.868-5.1559c0.0249-0.01 3.292 0.4084 4.669 3.5705 0.78228 1.7964-3.0742 4.7451-3.9082 7.4102-0.78741 2.5173 0.72672 6.7804-0.95662 7.8546-2.8124 1.7948-5.9664 0.5351-5.9664 0.5351z"/>
</g>
</g>
<circle id="path4994" stroke-linejoin="round" stroke-width="1.5" stroke-linecap="round" cy="1461.2" cx="670.28" r="3.5039" fill="#ffc659"/>
</g>
<circle id="path4111" stroke-linejoin="round" cx="45" stroke-linecap="round" stroke="#ec3325" cy="45" r="43.625" stroke-width="0.75" fill="none"/>
</svg>
