<?xml version="1.0" encoding="UTF-8" standalone="no"?>
<!-- Created with Inkscape (http://www.inkscape.org/) -->

<svg
   xmlns:dc="http://purl.org/dc/elements/1.1/"
   xmlns:cc="http://creativecommons.org/ns#"
   xmlns:rdf="http://www.w3.org/1999/02/22-rdf-syntax-ns#"
   xmlns:svg="http://www.w3.org/2000/svg"
   xmlns="http://www.w3.org/2000/svg"
   xmlns:sodipodi="http://sodipodi.sourceforge.net/DTD/sodipodi-0.dtd"
   xmlns:inkscape="http://www.inkscape.org/namespaces/inkscape"
   id="svg2"
   viewBox="0 0 90.000496 90.000571"
   height="25.400002mm"
   width="25.400002mm"
   version="1.1"
   inkscape:version="0.91 r13725"
   sodipodi:docname="man_city.svg">
  <sodipodi:namedview
     pagecolor="#ffffff"
     bordercolor="#666666"
     borderopacity="1"
     objecttolerance="10"
     gridtolerance="10"
     guidetolerance="10"
     inkscape:pageopacity="0"
     inkscape:pageshadow="2"
     inkscape:window-width="1366"
     inkscape:window-height="747"
     id="namedview781"
     showgrid="false"
     inkscape:zoom="4.3369213"
     inkscape:cx="22.375837"
     inkscape:cy="35.545127"
     inkscape:window-x="0"
     inkscape:window-y="21"
     inkscape:window-maximized="1"
     inkscape:current-layer="svg2"
     fit-margin-top="0"
     fit-margin-left="0"
     fit-margin-right="0"
     fit-margin-bottom="0" />
  <defs
     id="defs4">/&gt;
<clipPath
   id="clipPath3595-2"
   clipPathUnits="userSpaceOnUse">
  <path
     id="path3597-7"
     d="m -307.2,283.5 155.55,2.0795 c 0,0 33.688,19.132 4.5749,29.945 -29.1131,10.813 -36.184,13.725 -36.184,13.725 l 1.6636,12.893 43.254,-19.963 44.086,63.633 -18.716,74.863 -34.52,34.52 c 0,0 -21.211,15.388 -21.211,7.9022 l 0,-7.4863 -51.572,0.4159 -74.447,-4.9908 -17.468,-71.951 z"
     inkscape:connector-curvature="0"
     style="fill:#333333;fill-rule:evenodd" />
</clipPath>
</defs>
  <metadata
     id="metadata7">
    <rdf:RDF>
      <cc:Work
         rdf:about="">
        <dc:format>image/svg+xml</dc:format>
        <dc:type
           rdf:resource="http://purl.org/dc/dcmitype/StillImage" />
        <dc:title></dc:title>
      </cc:Work>
    </rdf:RDF>
  </metadata>
  <g
     id="layer2"
     transform="matrix(0.26417077,0,0,0.26417077,-132.19118,-329.25562)">
    <g
       id="g4957"
       transform="translate(-380,0)">
      <g
         id="g715"
         style="fill-rule:evenodd">
        <path
           id="path4899"
           d="m 961.86,1409 89.795,111.58 C 999.542,1517.6853 959.761,1452.289 961.86,1409 Z"
           inkscape:connector-curvature="0"
           style="fill:#1c2c5b" />
        <path
           id="path4901"
           d="m 963.04,1410.6 28.634,0 83.131,99.842 -22.964,10.878 z"
           inkscape:connector-curvature="0"
           style="fill:#6cabdd" />
        <path
           id="path4903"
           d="m 991.67,1410.6 31.395,0 71.262,87.687 -19.369,12.727 z"
           inkscape:connector-curvature="0"
           style="fill:#1c2c5b" />
        <path
           id="path4905"
           d="m 1049.7,1410.6 -28.633,0 73.585,89.096 16.226,-14.75 z"
           inkscape:connector-curvature="0"
           style="fill:#6cabdd" />
        <path
           id="path4907"
           d="m 1049.7,1410.6 61.34,74.714 13.517,-19.695 -43.463,-55.019 z"
           inkscape:connector-curvature="0"
           style="fill:#1c2c5b" />
        <path
           id="path4909"
           d="m 1107.7,1410.6 -28.633,0 45.352,55.202 9.5996,-22.588 z"
           inkscape:connector-curvature="0"
           style="fill:#6cabdd" />
        <path
           id="path4911"
           d="m 1107.7,1410.6 26.434,32.805 6.5801,-32.805 -1.6192,0 z"
           inkscape:connector-curvature="0"
           style="fill:#1c2c5b" />
      </g>
      <g
         id="g4870"
         transform="translate(0,5.1921e-6)">
        <g
           id="g725"
           style="fill:none">
          <path
             id="path4004"
             d="m 967.49,1316.7 c 54.271,-9.1036 109.24,-9.1036 164.91,0 13.846,84.066 26.812,168.85 -82.457,206.41 -101.69,-36.351 -98.407,-108.69 -82.457,-206.41 z"
             inkscape:connector-curvature="0"
             style="stroke:#ffc659;stroke-width:6" />
          <path
             id="path4832"
             d="m 961.37,1310.5 c 60.399,-10.27 115.37,-9.3339 175.76,0 22.121,94.612 19.81,183.73 -88.235,219.54 -112.47,-43.677 -100.54,-134.13 -87.53,-219.54 z"
             inkscape:connector-curvature="0"
             style="stroke:#1c2c5b;stroke-width:8" />
          <path
             id="path4834"
             d="m 960.35,1407.6 180.74,0"
             inkscape:connector-curvature="0"
             style="stroke:#ffc659;stroke-width:6" />
        </g>
        <g
           id="g730"
           style="fill-rule:evenodd">
          <path
             id="path4836"
             d="m 980.62,1385.3 c 28.531,9.3516 57.25,11.138 86.11,7.2996 l 34.271,-4.7014 c -0.785,5.4945 -10.519,9.0277 -5.8149,16.331 l -9.4028,0.3712 c -5.8974,-2.0564 -11.795,-4.4615 -17.692,-4.9489 -9.7312,6.9776 -21.796,2.287 -33.405,-0.1237 -5.5375,8.8809 -24.238,-3.8045 -29.198,4.8251 -3.9593,-6.351 -8.6084,-12.702 -24.868,-19.053 z"
             inkscape:connector-curvature="0"
             style="fill:#ffc659" />
          <path
             id="path4838"
             d="m 997.08,1390.7 8.2893,2.5982 c 11.887,8.5457 22.461,10.702 28.085,5.0726 9.6709,1.7642 25.789,7.1844 33.158,0.866 6.3923,-0.085 12.785,2.4643 19.177,4.9489 l 8.5368,-0.4949 c -3.2697,-5.1065 2.0978,-9.9254 5.32,-14.723 -46.78,8.1263 -74.712,7.6631 -102.57,1.732 z"
             inkscape:connector-curvature="0"
             style="fill:#d4a12a" />
          <path
             id="path4842"
             d="m 1079.1,1356 20.58,-7.1584 c -1.4066,10.552 -1.9977,21.006 4.9853,30.551 l -25.694,8.948 z"
             inkscape:connector-curvature="0"
             style="fill:#ffc659" />
        </g>
        <path
           id="path4840"
           d="m 1078.7,1335.6 0,55.35"
           inkscape:connector-curvature="0"
           style="fill:none;stroke:#d4a12a;stroke-linecap:round" />
        <path
           id="path4844"
           d="m 1099.5,1350 c -2.94,16.091 -17.67,26.975 -20.453,38.093 l 25.31,-8.6924 c -5.4256,-8.08 -6.1216,-16.378 -4.8575,-29.401 z"
           inkscape:connector-curvature="0"
           style="fill:#d4a12a;fill-rule:evenodd" />
        <path
           id="path4846"
           d="m 1068.3,1339.3 c 3.1503,1.271 6.7636,-3.5882 10.226,-2.3009"
           inkscape:connector-curvature="0"
           style="fill:none;stroke:#d4a12a;stroke-linecap:round" />
        <path
           id="path4848"
           d="m 1051.3,1386.6 0,7.4141"
           inkscape:connector-curvature="0"
           style="fill:none;stroke:#d4a12a;stroke-width:1px" />
        <g
           id="g739"
           style="fill-rule:evenodd">
          <path
             id="path4852"
             d="m 1070,1358.3 -30.679,10.866 c -4.8882,8.0665 -3.4624,15.411 3.5792,22.114 5.9347,-7.0491 19.535,-6.1683 35.281,-3.0679 -4.8837,-8.1081 -10.535,-15.554 -8.1811,-29.912 z"
             inkscape:connector-curvature="0"
             style="fill:#ffc659" />
          <path
             id="path4850"
             d="m 1069.6,1359.1 c -2.9707,20.506 -26.922,24.519 -26.844,31.702 9.4778,-8.0829 22.798,-4.6396 35.536,-2.9401 -4.3216,-6.632 -8.9371,-11.366 -8.6924,-28.762 z"
             inkscape:connector-curvature="0"
             style="fill:#d4a12a" />
          <path
             id="path4017"
             d="m 1064.4,1341.2 -25.694,8.1811 c -2.8425,5.0509 -4.262,10.485 1.6618,17.896 6.6103,-7.7889 18.944,-6.993 29.273,-9.2037 -3.2127,-4.3515 -5.4476,-10.15 -5.2409,-16.873 z"
             inkscape:connector-curvature="0"
             style="fill:#ffc659" />
          <path
             id="path4015"
             d="m 1064.6,1340.8 c -3.0481,13.293 -22.791,18.758 -24.415,26.588 6.2825,-7.0947 17.665,-8.4898 29.656,-9.2037 -3.5919,-4.1038 -5.7317,-9.5386 -5.241,-17.385 z"
             inkscape:connector-curvature="0"
             style="fill:#d4a12a" />
        </g>
        <path
           id="path4023"
           d="m 1051.7,1320.5 0,8.8202"
           inkscape:connector-curvature="0"
           style="fill:none;stroke:#d4a12a;stroke-linecap:round" />
        <path
           id="path4019"
           d="m 1061.7,1325.7 c -1.4537,6.9843 0.5894,11.108 2.8122,15.084 -8.7294,1.4782 -18.651,0.7042 -24.543,7.5419 -4.4348,-4.4776 -3.8095,-9.4152 -0.7669,-14.572 z"
           inkscape:connector-curvature="0"
           style="fill:#ffc659;fill-rule:evenodd" />
        <path
           id="path4021"
           d="m 1061.4,1325.7 c -3.3184,11.461 -17.339,13.934 -22.242,22.114 7.2888,-5.5607 16.117,-7.0175 25.438,-7.1584 -2.4498,-3.6008 -4.7523,-7.3488 -3.1957,-14.956 z"
           inkscape:connector-curvature="0"
           style="fill:#d4a12a;fill-rule:evenodd" />
        <path
           id="path4825"
           d="m 1040.8,1324.4 c 3.1503,1.271 6.7636,-3.5882 10.226,-2.3009"
           inkscape:connector-curvature="0"
           style="fill:none;stroke:#d4a12a;stroke-linecap:round" />
        <path
           id="path4827"
           d="m 1005.2,1356.3 c -4.7538,10.06 -6.3672,19.596 -4.9853,28.634 -5.2726,-0.9503 -11.177,-1.6478 -18.152,-1.9174 4.2194,-9.858 11.425,-18.902 23.137,-26.716 z"
           inkscape:connector-curvature="0"
           style="fill:#ffc659;fill-rule:evenodd" />
        <path
           id="path4829"
           d="m 1005,1356.4 c -5.6926,12.44 -6.0566,20.883 -4.9853,28.25 l -5.7523,-0.5113 c -5.6212,-8.1143 7.2839,-18.578 10.738,-27.739 z"
           inkscape:connector-curvature="0"
           style="fill:#d4a12a;fill-rule:evenodd" />
        <path
           id="path4866"
           d="m 1019.8,1340.6 0,10.482"
           inkscape:connector-curvature="0"
           style="fill:none;stroke:#d4a12a;stroke-linecap:round" />
        <g
           id="g752"
           style="fill-rule:evenodd">
          <path
             id="path4849"
             d="m 1028.3,1348.1 c -0.1813,6.7704 1.5929,11.802 4.474,15.851 -8.3545,1.7875 -17.535,0.066 -24.671,7.0306 -2.3984,-4.541 -4.017,-9.3418 0.6391,-16.234 z"
             inkscape:connector-curvature="0"
             style="fill:#ffc659" />
          <path
             id="path4857"
             d="m 1028.4,1348.2 c -0.3456,5.7215 0.4905,11.148 4.2184,15.851 -8.1811,1.3938 -16.362,-0.4913 -24.543,6.7749 -0.1823,-6.6515 17.284,-13.191 20.325,-22.626 z"
             inkscape:connector-curvature="0"
             style="fill:#d4a12a" />
          <path
             id="path4860"
             d="m 1032.7,1365 c -0.282,11.685 2.9857,16.271 5.6244,22.114 -9.558,-0.639 -19.857,-3.0373 -26.844,2.4288 -5.448,-4.9455 -6.2598,-10.523 -4.2184,-16.49 z"
             inkscape:connector-curvature="0"
             style="fill:#ffc659" />
          <path
             id="path4862"
             d="m 1032.5,1365.7 c -0.602,7.7994 2.0434,14.516 5.4967,20.964 -9.8411,-0.4315 -20.489,-2.3151 -27.1,3.0679 1.1511,-8.6218 18.272,-8.424 21.603,-24.032 z"
             inkscape:connector-curvature="0"
             style="fill:#d4a12a" />
        </g>
        <path
           id="path4864"
           d="m 1020.1,1386.6 0,7.4141"
           inkscape:connector-curvature="0"
           style="fill:none;stroke:#d4a12a;stroke-width:1px" />
        <path
           id="path4868"
           d="m 1009.1,1344.4 c 3.1503,1.271 6.7636,-3.5882 10.226,-2.3009"
           inkscape:connector-curvature="0"
           style="fill:none;stroke:#d4a12a;stroke-linecap:round" />
      </g>
    </g>
    <g
       id="g5046"
       style="stroke:#1c2c5b">
      <g
         id="g761"
         style="fill:#ec3325;stroke-width:2;stroke-linecap:round;stroke-linejoin:round">
        <path
           id="path5044"
           transform="matrix(0.30902,0.95106,-0.95106,0.30902,1853,372.24)"
           d="m 670.62,1433.8 -4.3381,-4.0044 4.0044,-4.3381 4.3381,4.0044 z"
           inkscape:connector-curvature="0" />
        <path
           id="path5042"
           d="m 670.62,1433.8 -4.3381,-4.0044 4.0044,-4.3381 4.3381,4.0044 z"
           transform="matrix(-0.80902,0.58779,-0.58779,-0.80902,2071.2,2250.2)"
           inkscape:connector-curvature="0" />
        <path
           id="path5040"
           transform="matrix(-0.80902,-0.58779,0.58779,-0.80902,354.52,3038.4)"
           d="m 670.62,1433.8 -4.3381,-4.0044 4.0044,-4.3381 4.3381,4.0044 z"
           inkscape:connector-curvature="0" />
        <path
           id="path5038"
           d="m 670.62,1433.8 -4.3381,-4.0044 4.0044,-4.3381 4.3381,4.0044 z"
           transform="matrix(0.30902,-0.95106,0.95106,0.30902,-926.42,1647.5)"
           inkscape:connector-curvature="0" />
        <path
           id="path5034"
           d="m 670.62,1433.8 -4.3381,-4.0044 4.0044,-4.3381 4.3381,4.0044 z"
           inkscape:connector-curvature="0" />
      </g>
      <g
         id="g5017"
         transform="matrix(1.4852,0,0,1.4852,-325.2,-708.55)"
         style="fill:#ec3325;fill-rule:evenodd;stroke-width:1.5">
        <path
           id="path5020"
           d="m 670.28,1461 0,-16.685 c 0,-0.024 1.4057,-3.0047 4.8387,-3.3371 1.9502,-0.1888 3.5628,4.39 5.8398,6.0067 2.1506,1.527 6.6731,1.4042 7.1746,3.337 0.83791,3.2294 -1.3348,5.8397 -1.3348,5.8397 z"
           inkscape:connector-curvature="0" />
        <path
           id="path5026"
           d="m 669.92,1460.8 -15.868,-5.156 c -0.0228,-0.01 -2.4232,-2.2654 -1.6785,-5.633 0.42307,-1.9131 5.2761,-2.0319 7.5173,-3.6978 2.1168,-1.5735 3.3976,-5.9126 5.3907,-5.7922 3.3303,0.201 5.1414,3.074 5.1414,3.074 z"
           inkscape:connector-curvature="0" />
        <path
           id="path5028"
           d="m 669.5,1461.7 -9.8072,13.498 c -0.0165,0.019 -2.9033,1.6046 -5.876,-0.1443 -1.6887,-0.9935 -0.30205,-5.6458 -1.1938,-8.2921 -0.84235,-2.4994 -4.5733,-5.0583 -3.8429,-6.9168 1.2203,-3.1051 4.5123,-3.9398 4.5123,-3.9398 z"
           inkscape:connector-curvature="0" />
        <path
           id="path5030"
           d="m 670.5,1460.9 9.8071,13.498 c 0.013,0.022 0.62889,3.2571 -1.953,5.5438 -1.4667,1.2991 -5.4628,-1.4574 -8.2552,-1.427 -2.6374,0.029 -6.224,2.7864 -7.7658,1.5174 -2.576,-2.1201 -2.3526,-5.509 -2.3526,-5.509 z"
           inkscape:connector-curvature="0" />
        <path
           id="path5032"
           d="m 671.25,1461.1 15.868,-5.1559 c 0.0249,-0.01 3.292,0.4084 4.669,3.5705 0.78228,1.7964 -3.0742,4.7451 -3.9082,7.4102 -0.78741,2.5173 0.72672,6.7804 -0.95662,7.8546 -2.8124,1.7948 -5.9664,0.5351 -5.9664,0.5351 z"
           inkscape:connector-curvature="0" />
      </g>
      <g
         id="g5010"
         style="fill:#ec3325;fill-rule:evenodd;stroke-width:1.5">
        <path
           id="path4998"
           d="m 670.28,1461 0,-16.685 c 0,-0.024 1.4057,-3.0047 4.8387,-3.3371 1.9502,-0.1888 3.5628,4.39 5.8398,6.0067 2.1506,1.527 6.6731,1.4042 7.1746,3.337 0.83791,3.2294 -1.3348,5.8397 -1.3348,5.8397 z"
           inkscape:connector-curvature="0" />
        <path
           id="path5000"
           d="m 669.92,1460.8 -15.868,-5.156 c -0.0228,-0.01 -2.4232,-2.2654 -1.6785,-5.633 0.42307,-1.9131 5.2761,-2.0319 7.5173,-3.6978 2.1168,-1.5735 3.3976,-5.9126 5.3907,-5.7922 3.3303,0.201 5.1414,3.074 5.1414,3.074 z"
           inkscape:connector-curvature="0" />
        <path
           id="path5003"
           d="m 669.5,1461.7 -9.8072,13.498 c -0.0165,0.019 -2.9033,1.6046 -5.876,-0.1443 -1.6887,-0.9935 -0.30205,-5.6458 -1.1938,-8.2921 -0.84235,-2.4994 -4.5733,-5.0583 -3.8429,-6.9168 1.2203,-3.1051 4.5123,-3.9398 4.5123,-3.9398 z"
           inkscape:connector-curvature="0" />
        <path
           id="path5006"
           d="m 670.5,1460.9 9.8071,13.498 c 0.013,0.022 0.62889,3.2571 -1.953,5.5438 -1.4667,1.2991 -5.4628,-1.4574 -8.2552,-1.427 -2.6374,0.029 -6.224,2.7864 -7.7658,1.5174 -2.576,-2.1201 -2.3526,-5.509 -2.3526,-5.509 z"
           inkscape:connector-curvature="0" />
        <path
           id="path5008"
           d="m 671.25,1461.1 15.868,-5.1559 c 0.0249,-0.01 3.292,0.4084 4.669,3.5705 0.78228,1.7964 -3.0742,4.7451 -3.9082,7.4102 -0.78741,2.5173 0.72672,6.7804 -0.95662,7.8546 -2.8124,1.7948 -5.9664,0.5351 -5.9664,0.5351 z"
           inkscape:connector-curvature="0" />
      </g>
      <circle
         id="path4994"
         cy="1461.2"
         cx="670.28003"
         r="3.5039001"
         style="fill:#ffc659;stroke-width:1.5;stroke-linecap:round;stroke-linejoin:round" />
    </g>
  </g>
  <circle
     style="opacity:1;fill:none;fill-opacity:1;stroke:#ec3325;stroke-width:0.75000471;stroke-linecap:round;stroke-linejoin:round;stroke-miterlimit:4;stroke-dasharray:none;stroke-opacity:1"
     id="path4111"
     cx="45.000248"
     cy="45.000286"
     r="43.625271" />
</svg>
