<?xml version="1.0" encoding="UTF-8" standalone="no"?>
<!-- Created with Inkscape (http://www.inkscape.org/) -->
<svg id="svg2" xmlns:rdf="http://www.w3.org/1999/02/22-rdf-syntax-ns#" xmlns="http://www.w3.org/2000/svg" viewBox="0 0 90.000352 90.001478" height="25.4mm" width="25.4mm" version="1.1" xmlns:cc="http://creativecommons.org/ns#" xmlns:dc="http://purl.org/dc/elements/1.1/">
<defs id="defs4">/&gt;</defs>
<metadata id="metadata7">
<rdf:RDF>
<cc:Work rdf:about="">
<dc:format>image/svg+xml</dc:format>
<dc:type rdf:resource="http://purl.org/dc/dcmitype/StillImage"/>
<dc:title/>
</cc:Work>
</rdf:RDF>
</metadata>
<g id="layer2" transform="matrix(.19324 0 0 .19324 -57.821 6.367)">
<g fill-rule="evenodd">
<path id="path4983" d="m457.88 149.18c21.116 8.5814 65.668-1.7729 76.43-29.413 10.848 15.064 29.986 30.712 80.109 25.327-16.19 48.612 23.114 123.08-2.861 156.66-16.127 20.849-53.27 25.94-78.065 52.902-26.714-25.281-66.752-38.259-76.839-52.902-34.316-49.812 22.476-104.08 1.2262-152.58z" stroke="#000" stroke-width="3"/>
<g id="g4976" transform="translate(14)" stroke="#000" fill="#f1be48">
<path id="path4974" stroke-width="3" d="m430.08 172.77c-4.1487-4.8141-12.907-5.1842-11.266-17.275 1.1452-8.4361 16.844-12.95 23.659-4.1309 36.456 47.182-18.705 102.54-1.8777 133.88 15.909 29.624 50.036 35.169 78.862 62.902 23.138-28.485 62.422-31.774 75.858-61.4 16.428-36.222-36.703-85.73 0-135.38 5.2574-7.112 18.653-5.5985 22.908 4.1309 2.7273 6.2368-4.0499 14.37-10.891 17.275-4.2857 52.08 34.886 108.38-1.1266 143.08-17.074 16.453-69.07 33.069-86.749 60.086-32.757-36.415-72.488-35.698-94.635-67.596-26.369-37.979 6.8275-89.559 5.2575-135.57z"/>
<g id="g4970" stroke-width="4">
<path id="path4966" d="m453.4 137.72c14.273 3.4858 35.777 4.8604 44.346-9.6924 1.913-3.2488-5.3648-16.424 8.2319-17.924 10.946-1.2077 15.165 11.475 12.746 18.588-10.187 29.955-59.813 36.255-80.46 16.995-10.116-9.4363-4.9552-26.378 4.2487-27.484 16.493-1.9809 9.0901 19.079 10.887 19.517z"/>
<path id="path4968" d="m586.03 137.72c-14.273 3.4858-35.777 4.8604-44.346-9.6924-1.913-3.2488 5.3648-16.424-8.2319-17.924-10.946-1.2077-14.791 11.359-12.746 18.588 8.6853 30.706 59.813 36.255 80.46 16.995 10.116-9.4363 4.9552-26.378-4.2487-27.484-16.493-1.9809-9.0901 19.079-10.887 19.517z"/>
</g>
</g>
<path id="path4985" fill="#fff" d="m489.52 160.38 25.536-6.7596-0.37553 176.88-26.288-15.021z"/>
<path id="path4987" fill="#fff" d="m550.73 153.99 24.785 6.0086 0.37554 156.22-25.161 14.646z"/>
</g>
<g id="g4950" transform="translate(14,1.7811)">
<g id="g4903" stroke="#000">
<path id="path4074" d="m489.36 22.121h13.138v5.6304h8.4456v-6.0996h12.199v6.0996h7.9764v-6.5688h14.545v8.4456h-3.7536c-1.8841 3.7464-3.8303 7.7238-9.3841 7.8005l0.7038 35.601 3.7536 2.346v10.909l2.7439 1.5406 1.4076 12.535c2.0068-0.16988 2.5063 0.41012 6.6401 1.7595 5.1445-0.90853 12.922-2.8919 16.539 1.2903 4.6976 5.4305 2.3292 12.878-8.563 10.44-6.7999 2.0198-13.653 4.5343-19.237-4.692-5.6003 2.7751-7.658 3.3703-11.507 3.8106-5.2453 3.3188-12.888 1.0676-19.695-3.1068-6.2441 3.1973-7.5481 2.6894-10.322 3.2844-16.1 3.8899-20.762-2.1414-21.114-5.6304-0.51371-5.0933 6.5447-7.61 13.607-5.6304 1.9599-1.5507 3.883-3.1173 7.9764-3.7536l0.93841-10.307 2.8152-1.5406v-9.736l2.346-3.519c-0.00001-12.121-0.23461-23.48-0.23461-35.601-2.8152-0.24536-6.3342-2.1308-9.1495-7.3313h-2.8152z" fill-rule="evenodd" stroke-width="3" fill="#bbbcbc"/>
<g id="g810" stroke-linecap="round" fill="none">
<path id="path4876" stroke-width="3" d="m500.69 43.058h33.012"/>
<path id="path4878" stroke-width="2" d="m502.04 52.514h29.337"/>
<path id="path4880" stroke-width="3" d="m500.04 76.568h36.082"/>
<path id="path4882" stroke-width="4" d="m497.45 89.009h41.092"/>
<path id="path4885" stroke-width="3" d="m490.96 100.43h49.867"/>
</g>
</g>
<path id="path4927" fill-rule="evenodd" d="m494.52 98.315c-3.4495 0.71787-5.2405 2.1457-7.041 3.5703-7.0622-1.9795-14.121 0.53758-13.607 5.6309 0.3519 3.489 5.0132 9.5208 21.113 5.6309 2.7744-0.59498 4.0801-0.0879 10.324-3.2852 6.8064 4.1744 14.448 6.4262 19.693 3.1074 3.8492-0.44026 5.9075-1.0355 11.508-3.8106 5.5841 9.2264 12.438 6.7112 19.238 4.6914 10.892 2.4383 13.26-5.0089 8.5625-10.439-3.6178-4.1822-11.395-2.1976-16.539-1.2891-4.1338-1.3494-4.6338-1.9296-6.6406-1.7598l-0.23047-2.0469h-46.381z"/>
<g id="g818" fill-rule="evenodd" stroke="#000" stroke-width="1px" fill="#f1be48">
<path id="path4912" d="m491.7 111.39c-3.281-4.8988-5.9235-6.6175-8.211-7.6245-5.1876-2.2838-9.5423 3.2637-4.3401 7.038 3.9505 2.8662 8.3674 0.56888 12.551 0.5865z"/>
<path id="path4914" d="m490.76 103.29c0.0419 0.73393 3.2821 5.2394 6.5688 7.8592 1.3831-0.36447 2.7249-0.67126 5.6304-3.1671-6.1161-6.3467-12.287-6.2259-12.199-4.692z"/>
<path id="path4916" d="m505.19 103.29s5.9442 9.5372 11.613 10.205c1.2024 0.1417 2.4948 0.23838 4.9266-0.23461-4.3536-13.056-14.689-10.562-16.539-9.9706z"/>
<path id="path4918" d="m521.26 104.7c1.5249 2.536 3.0498 4.463 4.5747 5.7477 2.7352-0.80926 5.4548-1.6289 7.2726-3.0498-3.9491-4.2681-7.8982-5.9211-11.847-2.6979z"/>
<path id="path4920" d="m535.22 104.11c4.536-1.6554 15.384 1.5045 15.132 8.6802-0.066 1.8741-12.308-0.17573-15.132-8.6802z"/>
<path id="path4922" d="m551.06 103.29c-0.25185 2.7704 5.2453 10.18 9.0322 9.6187 1.6396-0.24299 4.4712-0.98562 4.1055-4.4574-0.60458-5.7394-9.4391-6.3097-13.138-5.1612z"/>
</g>
</g>
</g>
<circle id="path4156" stroke-linejoin="round" cx="45" stroke-linecap="round" stroke="#000" cy="45.001" r="43.626" stroke-width=".75001" fill="none"/>
</svg>
