<?xml version="1.0" encoding="UTF-8" standalone="no"?>
<!-- Created with Inkscape (http://www.inkscape.org/) -->

<svg
   xmlns:dc="http://purl.org/dc/elements/1.1/"
   xmlns:cc="http://creativecommons.org/ns#"
   xmlns:rdf="http://www.w3.org/1999/02/22-rdf-syntax-ns#"
   xmlns:svg="http://www.w3.org/2000/svg"
   xmlns="http://www.w3.org/2000/svg"
   xmlns:sodipodi="http://sodipodi.sourceforge.net/DTD/sodipodi-0.dtd"
   xmlns:inkscape="http://www.inkscape.org/namespaces/inkscape"
   id="svg2"
   viewBox="0 0 89.998341 89.999154"
   height="25.4mm"
   width="25.4mm"
   version="1.1"
   inkscape:version="0.91 r13725"
   sodipodi:docname="southampton.svg">
  <sodipodi:namedview
     pagecolor="#ffffff"
     bordercolor="#666666"
     borderopacity="1"
     objecttolerance="10"
     gridtolerance="10"
     guidetolerance="10"
     inkscape:pageopacity="0"
     inkscape:pageshadow="2"
     inkscape:window-width="1366"
     inkscape:window-height="747"
     id="namedview617"
     showgrid="false"
     inkscape:zoom="21.63589"
     inkscape:cx="56.979398"
     inkscape:cy="70.019459"
     inkscape:window-x="0"
     inkscape:window-y="21"
     inkscape:window-maximized="1"
     inkscape:current-layer="svg2"
     fit-margin-top="0"
     fit-margin-left="0"
     fit-margin-right="0"
     fit-margin-bottom="0"
     inkscape:showpageshadow="false" />
  <defs
     id="defs4">/&gt;
<clipPath
   id="clipPath3595-2"
   clipPathUnits="userSpaceOnUse">
  <path
     id="path3597-7"
     d="m -307.2,283.5 155.55,2.0795 c 0,0 33.688,19.132 4.5749,29.945 -29.1131,10.813 -36.184,13.725 -36.184,13.725 l 1.6636,12.893 43.254,-19.963 44.086,63.633 -18.716,74.863 -34.52,34.52 c 0,0 -21.211,15.388 -21.211,7.9022 l 0,-7.4863 -51.572,0.4159 -74.447,-4.9908 -17.468,-71.951 z"
     inkscape:connector-curvature="0"
     style="fill:#333333;fill-rule:evenodd" />
</clipPath>
</defs>
  <metadata
     id="metadata7">
    <rdf:RDF>
      <cc:Work
         rdf:about="">
        <dc:format>image/svg+xml</dc:format>
        <dc:type
           rdf:resource="http://purl.org/dc/dcmitype/StillImage" />
        <dc:title />
      </cc:Work>
    </rdf:RDF>
  </metadata>
  <g
     id="layer2"
     transform="matrix(0.5180091,0,0,0.52123679,71.381634,-42.71458)">
    <g
       id="g5038">
      <path
         id="path3979"
         d="m -88.809,152.62 75.757,0 0,66.343 -37.805,15.887 -37.952,-15.887 z"
         inkscape:connector-curvature="0"
         style="fill:#ffffff;fill-rule:evenodd" />
      <g
         id="g561"
         style="fill-rule:evenodd">
        <path
           id="path3981"
           d="m -88.628,195.88 c 0,0 2.7566,1.7043 4.2977,1.7043 1.5411,0 4.2977,-1.7043 4.2977,-1.7043 0,0 2.6382,1.4079 4.0754,1.4079 1.4372,0 4.0754,-1.4079 4.0754,-1.4079 0,0 2.6382,1.4079 4.0754,1.4079 1.4372,0 4.0754,-1.4079 4.0754,-1.4079 0,0 2.7977,1.3338 4.2977,1.3338 1.5,0 4.2977,-1.3338 4.2977,-1.3338 0,0 2.646,1.3338 4.0754,1.3338 1.4294,0 4.0754,-1.3338 4.0754,-1.3338 0,0 2.6535,1.2597 4.0754,1.2597 1.4219,0 4.0754,-1.2597 4.0754,-1.2597 0,0 2.646,1.3338 4.0754,1.3338 1.4294,0 4.0754,-1.3338 4.0754,-1.3338 0,0 2.6045,1.482 4.0384,1.482 1.4339,0 4.0384,-1.482 4.0384,-1.482 0,0 3.1114,1.482 4.7794,1.482 1.668,0 4.7794,-1.482 4.7794,-1.482 l 0.0741,23.045 -37.864,15.931 -37.79,-15.931 z"
           inkscape:connector-curvature="0"
           style="fill:#d71920" />
        <path
           id="path3983"
           style="color:#000000;text-indent:0;text-decoration:none;text-decoration-line:none;text-decoration-style:solid;text-decoration-color:#000000;text-transform:none;block-progression:tb;white-space:normal;isolation:auto;mix-blend-mode:normal;solid-color:#000000;fill:#00aeef;color-rendering:auto;image-rendering:auto;shape-rendering:auto"
           d="m -80.07,186.73 -0.48828,0.30273 c 0,0 -0.65005,0.4015 -1.4805,0.80274 -0.83042,0.40125 -1.8891,0.75195 -2.291,0.75195 -0.40192,0 -1.4625,-0.3507 -2.293,-0.75195 -0.83042,-0.40124 -1.4785,-0.80274 -1.4785,-0.80274 l -0.23047,-0.14258 0,2.3047 c 0.25649,0.14009 0.50823,0.28118 0.83984,0.44141 0.93316,0.45088 2.0229,0.95117 3.1621,0.95117 1.1392,0 2.2289,-0.50029 3.1621,-0.95117 0.65649,-0.31721 0.89643,-0.4745 1.168,-0.63477 0.2672,0.13575 0.47576,0.25435 1.0801,0.50782 0.88614,0.37165 1.9177,0.78125 2.9629,0.78125 1.0451,0 2.0768,-0.4096 2.9629,-0.78125 0.62264,-0.26115 0.85173,-0.39106 1.1113,-0.52344 0.25948,0.13232 0.49038,0.26218 1.1133,0.52344 0.88614,0.37165 1.9177,0.78125 2.9629,0.78125 1.0451,0 2.0767,-0.4096 2.9629,-0.78125 0.63485,-0.26627 0.88092,-0.40345 1.1348,-0.53321 0.26192,0.11991 0.53569,0.25517 1.2129,0.50977 0.93039,0.34977 2.0161,0.73047 3.0625,0.73047 1.0464,0 2.1321,-0.3807 3.0625,-0.73047 0.683,-0.25678 0.9639,-0.39704 1.2227,-0.51563 0.25067,0.12123 0.50548,0.25537 1.1465,0.50977 0.88536,0.35137 1.9157,0.73633 2.9414,0.73633 1.0257,0 2.058,-0.38496 2.9434,-0.73633 0.64034,-0.25414 0.89352,-0.38643 1.1445,-0.50782 0.25214,0.11484 0.50481,0.23778 1.1426,0.47657 0.88444,0.33114 1.9137,0.69336 2.9199,0.69336 1.0062,0 2.0374,-0.36222 2.9219,-0.69336 0.63777,-0.23879 0.89043,-0.36173 1.1426,-0.47657 0.25101,0.12139 0.50419,0.25368 1.1445,0.50782 0.88536,0.35137 1.9176,0.73633 2.9434,0.73633 1.0257,0 2.056,-0.38496 2.9414,-0.73633 0.62003,-0.24607 0.84864,-0.36661 1.1094,-0.49219 0.25816,0.14024 0.48245,0.27433 1.0977,0.54883 0.87926,0.39231 1.9034,0.82812 2.9648,0.82812 1.0615,0 2.0856,-0.43581 2.9648,-0.82812 0.62091,-0.27704 0.85182,-0.41568 1.1074,-0.55469 0.27823,0.12769 0.60883,0.28887 1.3789,0.57813 1.0298,0.38681 2.237,0.80468 3.3672,0.80468 1.1301,0 2.3355,-0.41787 3.3652,-0.80468 0.36031,-0.13534 0.63416,-0.25235 0.91601,-0.3711 l 0,-2.1797 c -0.0915,0.043 -0.74008,0.34753 -1.6191,0.67773 -0.94292,0.35418 -2.1243,0.67773 -2.6621,0.67773 -0.53781,0 -1.7211,-0.32355 -2.6641,-0.67773 -0.94293,-0.35418 -1.6856,-0.70703 -1.6856,-0.70703 l -0.4707,-0.22461 -0.45508,0.25781 c 0,0 -0.61308,0.3486 -1.3945,0.69727 -0.78146,0.34868 -1.776,0.65429 -2.1484,0.65429 -0.37245,0 -1.3689,-0.30561 -2.1504,-0.65429 -0.78146,-0.34867 -1.3945,-0.69727 -1.3945,-0.69727 l -0.46484,-0.26367 -0.47852,0.24023 c 0,0 -0.62492,0.31535 -1.4199,0.63086 -0.79501,0.31551 -1.8014,0.59571 -2.2051,0.59571 -0.40365,0 -1.4101,-0.2802 -2.2051,-0.59571 -0.795,-0.31551 -1.4219,-0.63086 -1.4219,-0.63086 l -0.43555,-0.2207 -0.44336,0.21094 c 0,0 -0.62798,0.297 -1.4258,0.5957 -0.7978,0.2987 -1.8051,0.56641 -2.2207,0.56641 -0.41564,0 -1.421,-0.26771 -2.2188,-0.56641 -0.7978,-0.2987 -1.4277,-0.5957 -1.4277,-0.5957 l -0.44141,-0.21094 -0.4375,0.2207 c 0,0 -0.62492,0.31535 -1.4199,0.63086 -0.795,0.31551 -1.8014,0.59571 -2.2051,0.59571 -0.40365,0 -1.4101,-0.2802 -2.2051,-0.59571 -0.795,-0.31551 -1.4199,-0.63086 -1.4199,-0.63086 l -0.4375,-0.2207 -0.44336,0.21094 c 0,0 -0.66433,0.3157 -1.5078,0.63281 -0.84348,0.3171 -1.9058,0.60352 -2.3594,0.60352 -0.45359,0 -1.5159,-0.28642 -2.3594,-0.60352 -0.84348,-0.31711 -1.5078,-0.63281 -1.5078,-0.63281 l -0.45508,-0.2168 -0.44531,0.23828 c 0,0 -0.62376,0.33178 -1.416,0.66407 -0.79226,0.33227 -1.7973,0.625 -2.1895,0.625 -0.3921,0 -1.3972,-0.29273 -2.1895,-0.625 -0.79226,-0.33229 -1.416,-0.66407 -1.416,-0.66407 l -0.4707,-0.25195 -0.4707,0.25195 c 0,0 -0.62181,0.33178 -1.4141,0.66407 -0.79226,0.33227 -1.7973,0.625 -2.1895,0.625 -0.3921,0 -1.3972,-0.29273 -2.1895,-0.625 -0.79226,-0.33229 -1.416,-0.66407 -1.416,-0.66407 l -0.50781,-0.27148 z"
           inkscape:connector-curvature="0" />
        <path
           id="path3985"
           style="color:#000000;text-indent:0;text-decoration:none;text-decoration-line:none;text-decoration-style:solid;text-decoration-color:#000000;text-transform:none;block-progression:tb;white-space:normal;isolation:auto;mix-blend-mode:normal;solid-color:#000000;fill:#00aeef;color-rendering:auto;image-rendering:auto;shape-rendering:auto"
           d="m -80.07,191.32 -0.48828,0.30273 c 0,0 -0.65005,0.40149 -1.4805,0.80274 -0.83042,0.40125 -1.8891,0.75195 -2.291,0.75195 -0.40192,0 -1.4625,-0.3507 -2.293,-0.75195 -0.83042,-0.40125 -1.4785,-0.80273 -1.4785,-0.80274 l -0.23047,-0.14257 0,2.3047 c 0.25649,0.14009 0.50823,0.28118 0.83984,0.44141 0.93316,0.45089 2.0229,0.95117 3.1621,0.95117 1.1392,0 2.2289,-0.50028 3.1621,-0.95117 0.65649,-0.3172 0.89643,-0.47451 1.168,-0.63476 0.2672,0.13572 0.47576,0.25435 1.0801,0.50781 0.88614,0.37165 1.9177,0.78125 2.9629,0.78125 1.0451,0 2.0768,-0.4096 2.9629,-0.78125 0.62264,-0.26114 0.85173,-0.39106 1.1113,-0.52344 0.25948,0.13233 0.49038,0.26219 1.1133,0.52344 0.88614,0.37165 1.9177,0.78125 2.9629,0.78125 1.0451,0 2.0767,-0.4096 2.9629,-0.78125 0.63485,-0.26626 0.88092,-0.40345 1.1348,-0.53321 0.26176,0.11984 0.53541,0.25507 1.2129,0.50977 0.93039,0.34978 2.0161,0.73047 3.0625,0.73047 1.0464,0 2.1321,-0.38069 3.0625,-0.73047 0.68382,-0.25708 0.96631,-0.39527 1.2246,-0.51367 0.25135,0.12153 0.50485,0.25394 1.1445,0.50781 0.88536,0.35138 1.9157,0.73633 2.9414,0.73633 1.0257,0 2.058,-0.38495 2.9434,-0.73633 0.64034,-0.25413 0.89352,-0.38643 1.1445,-0.50781 0.25214,0.11482 0.50481,0.23778 1.1426,0.47656 0.88444,0.33114 1.9137,0.69336 2.9199,0.69336 1.0062,0 2.0374,-0.36222 2.9219,-0.69336 0.63777,-0.23878 0.89043,-0.36174 1.1426,-0.47656 0.25101,0.12138 0.50419,0.25368 1.1445,0.50781 0.88536,0.35138 1.9176,0.73633 2.9434,0.73633 1.0257,0 2.056,-0.38495 2.9414,-0.73633 0.62003,-0.24607 0.84864,-0.36661 1.1094,-0.49219 0.25816,0.14024 0.48245,0.27433 1.0977,0.54883 0.87926,0.39231 1.9034,0.82813 2.9648,0.82813 1.0615,0 2.0856,-0.43582 2.9648,-0.82813 0.62091,-0.27704 0.85182,-0.41568 1.1074,-0.55469 0.27823,0.12769 0.60883,0.28887 1.3789,0.57813 1.0298,0.3868 2.237,0.80469 3.3672,0.80469 1.1301,0 2.3355,-0.41789 3.3652,-0.80469 0.36031,-0.13534 0.63416,-0.25236 0.91601,-0.37109 l 0,-2.1777 c -0.0922,0.0436 -0.74069,0.34776 -1.6191,0.67774 -0.94292,0.35417 -2.1243,0.67578 -2.6621,0.67578 -0.53781,0 -1.7211,-0.32161 -2.6641,-0.67578 -0.94293,-0.3542 -1.6856,-0.70899 -1.6856,-0.70899 l -0.4707,-0.22461 -0.45508,0.25781 c 0,0 -0.61308,0.3486 -1.3945,0.69727 -0.78146,0.34867 -1.776,0.6543 -2.1484,0.6543 -0.37245,0 -1.3689,-0.30563 -2.1504,-0.6543 -0.78146,-0.34867 -1.3945,-0.69727 -1.3945,-0.69727 l -0.46484,-0.26367 -0.47852,0.24024 c 0,0 -0.62492,0.31535 -1.4199,0.63086 -0.79501,0.31551 -1.8014,0.5957 -2.2051,0.5957 -0.40365,0 -1.4101,-0.28019 -2.2051,-0.5957 -0.795,-0.31551 -1.4219,-0.63086 -1.4219,-0.63086 l -0.43555,-0.22071 -0.44336,0.21094 c 0,0 -0.62798,0.297 -1.4258,0.5957 -0.7978,0.2987 -1.8051,0.56641 -2.2207,0.56641 -0.41564,0 -1.421,-0.26771 -2.2188,-0.56641 -0.7978,-0.2987 -1.4277,-0.5957 -1.4277,-0.5957 l -0.44141,-0.21094 -0.4375,0.22071 c 0,0 -0.62492,0.31535 -1.4199,0.63086 -0.795,0.31551 -1.8014,0.5957 -2.2051,0.5957 -0.40365,0 -1.4101,-0.28019 -2.2051,-0.5957 -0.795,-0.31551 -1.4199,-0.63086 -1.4199,-0.63086 l -0.4375,-0.22071 -0.44336,0.21094 c 0,0 -0.66433,0.31766 -1.5078,0.63477 -0.84348,0.3171 -1.9058,0.60156 -2.3594,0.60156 -0.45359,0 -1.5159,-0.28446 -2.3594,-0.60156 -0.84348,-0.31711 -1.5078,-0.63477 -1.5078,-0.63477 l -0.45508,-0.2168 -0.44531,0.23829 c 0,0 -0.62376,0.33178 -1.416,0.66406 -0.79226,0.33228 -1.7973,0.625 -2.1895,0.625 -0.3921,0 -1.3972,-0.29272 -2.1895,-0.625 -0.79226,-0.33228 -1.416,-0.66407 -1.416,-0.66406 l -0.4707,-0.25196 -0.4707,0.25196 c 0,0 -0.62181,0.33178 -1.4141,0.66406 -0.79226,0.33228 -1.7973,0.625 -2.1895,0.625 -0.3921,0 -1.3972,-0.29272 -2.1895,-0.625 -0.79226,-0.33228 -1.416,-0.66407 -1.416,-0.66406 l -0.50781,-0.27149 z"
           inkscape:connector-curvature="0" />
      </g>
      <path
         id="path4815"
         d="m -88.809,152.62 75.757,0 0,66.343 -37.805,15.887 -37.952,-15.887 z"
         inkscape:connector-curvature="0"
         style="fill:none;stroke:#000000;stroke-width:1.92448163px" />
      <g
         id="g4825"
         transform="translate(-140,0)"
         style="stroke:#000000;stroke-width:1.92448163">
        <g
           id="g568"
           style="stroke-width:2.88672233">
          <path
             id="path4817"
             d="m 83.382,172.87 c 2.3536,1.1024 4.6034,2.3974 8.8414,0 1.2482,1.8804 2.4964,2.1397 3.7446,1.2482 0.27981,0.93615 0.72441,1.3522 2.6004,2.2884 3.2356,3.3224 5.7443,3.4364 8.4253,0.10401 3.3504,-0.96641 4.3111,-2.8132 2.3924,-5.7209 2.6728,-2.6095 3.6211,-5.1552 -1.1442,-7.4892 -0.21084,-2.5009 -1.3265,-4.426 -4.5767,-4.9928 -3.5628,-2.9057 -6.659,-1.6122 -9.6735,0.41607 -6.2244,-4.2111 -9.5567,-1.8495 -12.794,0.72812 -2.9915,-1.4506 -5.2604,-0.7336 -6.8651,1.9763 -4.203,0.44496 -6.0227,2.6774 -4.6807,7.2812 -3.2756,4.2665 -1.7913,6.748 1.5602,8.5293 2.9241,3.6049 6.1274,4.6976 9.8816,0.83214 2.0794,-1.3386 2.9813,-3.0305 2.2884,-5.2008 z"
             inkscape:connector-curvature="0"
             style="fill:#0db14b;fill-rule:evenodd;stroke-width:2.88672233" />
          <path
             id="path4819"
             d="m 82.758,177.03 3.2245,2.3924"
             inkscape:connector-curvature="0"
             style="fill:none;stroke-width:2.88672233;stroke-linecap:square" />
          <path
             id="path4821"
             d="m 97.425,176.1 -4.4727,2.8084"
             inkscape:connector-curvature="0"
             style="fill:none;stroke-width:2.88672233;stroke-linecap:square" />
        </g>
        <path
           id="path4823"
           d="m 86.087,173.81 0,7.9052 c -3.4115,1.9349 -3.4188,2.7805 0.10402,2.4964 2.2314,1.9228 4.0071,1.9489 5.4089,0 3.171,0.35405 5.3063,0.23006 1.3522,-2.7044 l -0.52008,-8.5294 c -2.115,0.70652 -4.23,1.7152 -6.345,0.83213 z"
           inkscape:connector-curvature="0"
           style="fill-rule:evenodd;stroke-width:0.96224082" />
      </g>
      <g
         id="g4910"
         transform="translate(-140,0)"
         style="stroke:#000000;stroke-width:1.92448163">
        <g
           id="g4875"
           style="stroke-width:1.92448163">
          <g
             id="g4847"
             style="stroke-width:1.44336116">
            <path
               id="path4843"
               d="m 88.51,205.44 c 0.47478,-4.5408 4.3512,-6.5156 7.8841,-4 1.0294,0.73297 5.5633,4.5195 -1.1014,8.9275 l -6.8406,2.087 z"
               inkscape:connector-curvature="0"
               style="fill:#ffffff;fill-rule:evenodd;stroke-width:1.44336116" />
            <path
               id="path4845"
               d="m 92.452,201.67 c 0.95092,0.21816 1.6353,1.0942 2.5151,1.7168 0.8798,0.62261 1.9551,0.99179 2.5284,1.8194"
               inkscape:connector-curvature="0"
               style="fill:none;stroke-width:1.44336116;stroke-linecap:round" />
          </g>
          <g
             id="g4851"
             transform="matrix(-0.80902,-0.58779,0.58779,-0.80902,34.245,436.73)"
             style="stroke-width:1.44336116">
            <path
               id="path4853"
               d="m 88.51,205.44 c 0.47478,-4.5408 4.3512,-6.5156 7.8841,-4 1.0294,0.73297 5.5633,4.5195 -1.1014,8.9275 l -6.8406,2.087 z"
               inkscape:connector-curvature="0"
               style="fill:#ffffff;fill-rule:evenodd;stroke-width:1.44336116" />
            <path
               id="path4855"
               d="m 92.452,201.67 c 0.95092,0.21816 1.6353,1.0942 2.5151,1.7168 0.8798,0.62261 1.9551,0.99179 2.5284,1.8194"
               inkscape:connector-curvature="0"
               style="fill:none;stroke-width:1.44336116;stroke-linecap:round" />
          </g>
          <g
             id="g4857"
             transform="matrix(-0.80902,0.58779,-0.58779,-0.80902,284.77,332.45)"
             style="stroke-width:1.44336116">
            <path
               id="path4859"
               d="m 88.51,205.44 c 0.47478,-4.5408 4.3512,-6.5156 7.8841,-4 1.0294,0.73297 5.5633,4.5195 -1.1014,8.9275 l -6.8406,2.087 z"
               inkscape:connector-curvature="0"
               style="fill:#ffffff;fill-rule:evenodd;stroke-width:1.44336116" />
            <path
               id="path4861"
               d="m 92.452,201.67 c 0.95092,0.21816 1.6353,1.0942 2.5151,1.7168 0.8798,0.62261 1.9551,0.99179 2.5284,1.8194"
               inkscape:connector-curvature="0"
               style="fill:none;stroke-width:1.44336116;stroke-linecap:round" />
          </g>
          <g
             id="g4869"
             transform="matrix(0.30902,0.95106,-0.95106,0.30902,263.96,62.949)"
             style="stroke-width:1.44336116">
            <path
               id="path4871"
               d="m 88.51,205.44 c 0.47478,-4.5408 4.3512,-6.5156 7.8841,-4 1.0294,0.73297 5.5633,4.5195 -1.1014,8.9275 l -6.8406,2.087 z"
               inkscape:connector-curvature="0"
               style="fill:#ffffff;fill-rule:evenodd;stroke-width:1.44336116" />
            <path
               id="path4873"
               d="m 92.452,201.67 c 0.95092,0.21816 1.6353,1.0942 2.5151,1.7168 0.8798,0.62261 1.9551,0.99179 2.5284,1.8194"
               inkscape:connector-curvature="0"
               style="fill:none;stroke-width:1.44336116;stroke-linecap:round" />
          </g>
          <g
             id="g4863"
             transform="matrix(0.30902,-0.95106,0.95106,0.30902,-141.19,230.65)"
             style="stroke-width:1.44336116">
            <path
               id="path4865"
               d="m 88.51,205.44 c 0.47478,-4.5408 4.3512,-6.5156 7.8841,-4 1.0294,0.73297 5.5633,4.5195 -1.1014,8.9275 l -6.8406,2.087 z"
               inkscape:connector-curvature="0"
               style="fill:#ffffff;fill-rule:evenodd;stroke-width:1.44336116" />
            <path
               id="path4867"
               d="m 92.452,201.67 c 0.95092,0.21816 1.6353,1.0942 2.5151,1.7168 0.8798,0.62261 1.9551,0.99179 2.5284,1.8194"
               inkscape:connector-curvature="0"
               style="fill:none;stroke-width:1.44336116;stroke-linecap:round" />
          </g>
          <circle
             id="path4831"
             cy="212.48"
             cx="88.473"
             r="2.5071001"
             style="fill:#ffc20e;stroke-width:0.96224082;stroke-linecap:square;stroke-linejoin:round" />
          <g
             id="g592"
             style="fill:none;stroke-width:1.44336116;stroke-linecap:round">
            <path
               id="path4833"
               d="m 88.473,198.7 0.1567,11.178"
               inkscape:connector-curvature="0"
               style="stroke-width:1.44336116" />
            <path
               id="path4835"
               d="m 75.317,208.27 10.679,3.305"
               inkscape:connector-curvature="0"
               style="stroke-width:1.44336116" />
            <path
               id="path4837"
               d="m 101.69,208.22 -10.582,3.6031"
               inkscape:connector-curvature="0"
               style="stroke-width:1.44336116" />
            <path
               id="path4839"
               d="m 96.625,223.65 -6.6968,-8.9508"
               inkscape:connector-curvature="0"
               style="stroke-width:1.44336116" />
            <path
               id="path4841"
               d="m 80.374,223.69 6.4432,-9.135"
               inkscape:connector-curvature="0"
               style="stroke-width:1.44336116" />
          </g>
        </g>
        <g
           id="g599"
           style="fill:none;stroke-width:1.44336116;stroke-linecap:round">
          <path
             id="path4900"
             d="m 91.194,213.43 2.7503,1.1541"
             inkscape:connector-curvature="0"
             style="stroke-width:1.44336116" />
          <path
             id="path4898"
             d="m 90.218,210.46 1.9475,-2.2591"
             inkscape:connector-curvature="0"
             style="stroke-width:1.44336116" />
          <path
             id="path4904"
             d="m 85.889,213.29 -2.7457,1.165"
             inkscape:connector-curvature="0"
             style="stroke-width:1.44336116" />
          <path
             id="path4906"
             d="m 88.468,215.29 -0.05832,2.982"
             inkscape:connector-curvature="0"
             style="stroke-width:1.44336116" />
          <path
             id="path4908"
             d="m 86.824,210.4 -1.706,-2.45"
             inkscape:connector-curvature="0"
             style="stroke-width:1.44336116" />
        </g>
      </g>
      <g
         id="g5026"
         transform="translate(0,9)">
        <path
           id="path5022"
           d="m -31.411,108.99 c 0.11901,-5.4637 -13.162,-8.5682 -20.779,-8.5052 -7.0847,0.0585 -19.382,2.4503 -19.594,8.2361 -0.09444,2.5753 4.6942,5.687 2.2878,7.2133 -2.4064,1.5263 -8.5383,-4.2395 -8.586,-8.0208 -0.12076,-9.5826 16.202,-14.208 26.216,-14.319 9.8951,-0.11006 26.281,5.2856 26.431,13.565 0.088,4.8513 -5.9419,10.435 -8.3976,8.8551 -2.4556,-1.5798 2.948049,-5.57823 2.4224,-7.0249 z"
           inkscape:connector-curvature="0"
           style="fill:#ffc20e;fill-rule:evenodd;stroke:#000000;stroke-width:3.84896326;stroke-linecap:round"
           sodipodi:nodetypes="cccscccscc" />
        <g
           id="g5012"
           transform="translate(-140,0)">
          <circle
             id="path4943"
             cy="121.57"
             cx="88.125999"
             r="19.978001"
             style="fill:#ffffff;stroke:#000000;stroke-width:1.92448163;stroke-linecap:round;stroke-linejoin:round" />
          <g
             id="g5004">
            <path
               id="path4941"
               d="m 88.127,101.59 a 19.978,19.978 0 0 0 -5.7227,0.85156 l 0,3.0059 5.7129,3.2988 5.7129,-3.2988 0,-3.0176 a 19.978,19.978 0 0 0 -5.7031,-0.83984 z"
               inkscape:connector-curvature="0" />
            <path
               id="path4970"
               d="m 99.852,137.73 a 19.978,19.978 0 0 0 4.1292,-4.0526 l -1.7668,-2.4318 -6.5608,0.68915 -2.6828,6.0268 1.7737,2.4413 a 19.978,19.978 0 0 0 5.1076,-2.6728 z"
               inkscape:connector-curvature="0" />
            <path
               id="path4976"
               d="m 76.367,137.72 a 19.978,19.978 0 0 0 5.1303,2.6748 l 1.7668,-2.4318 -2.6828,-6.0268 -6.5608,-0.68915 -1.7737,2.4413 a 19.978,19.978 0 0 0 4.1203,4.0317 z"
               inkscape:connector-curvature="0" />
            <path
               id="path4982"
               d="m 69.121,115.38 a 19.978,19.978 0 0 0 -0.95852,5.7057 l 2.8587,0.92887 4.9028,-4.4139 -1.372,-6.4527 -2.8699,-0.93248 a 19.978,19.978 0 0 0 -2.5611,5.1645 z"
               inkscape:connector-curvature="0" />
            <path
               id="path4988"
               d="m 107.12,115.4 a 19.978,19.978 0 0 0 -2.5783,-5.1794 l -2.8587,0.92887 -1.372,6.4527 4.9028,4.4139 2.8699,-0.93248 a 19.978,19.978 0 0 0 -0.96363,-5.6835 z"
               inkscape:connector-curvature="0" />
            <path
               id="path5002"
               d="m 92.771,127.84 -8.9463,0.0733 -2.8342,-8.4858 7.1946,-5.3178 7.2807,5.1992 z"
               inkscape:connector-curvature="0" />
          </g>
        </g>
      </g>
    </g>
  </g>
  <circle
     style="opacity:1;fill:none;fill-opacity:1;stroke:#d71920;stroke-width:0.74999297;stroke-linecap:round;stroke-linejoin:round;stroke-miterlimit:4;stroke-dasharray:none;stroke-opacity:1"
     id="path3947"
     cx="44.999172"
     cy="44.999577"
     r="43.624588" />
</svg>
