<?xml version="1.0" encoding="UTF-8" standalone="no"?>
<!-- Created with Inkscape (http://www.inkscape.org/) -->

<svg
   xmlns:dc="http://purl.org/dc/elements/1.1/"
   xmlns:cc="http://creativecommons.org/ns#"
   xmlns:rdf="http://www.w3.org/1999/02/22-rdf-syntax-ns#"
   xmlns:svg="http://www.w3.org/2000/svg"
   xmlns="http://www.w3.org/2000/svg"
   xmlns:sodipodi="http://sodipodi.sourceforge.net/DTD/sodipodi-0.dtd"
   xmlns:inkscape="http://www.inkscape.org/namespaces/inkscape"
   id="svg2"
   viewBox="0 0 89.998607 89.999433"
   height="25.4mm"
   width="25.4mm"
   version="1.1"
   inkscape:version="0.91 r13725"
   sodipodi:docname="tottenham.svg">
  <sodipodi:namedview
     pagecolor="#ffffff"
     bordercolor="#666666"
     borderopacity="1"
     objecttolerance="10"
     gridtolerance="10"
     guidetolerance="10"
     inkscape:pageopacity="0"
     inkscape:pageshadow="2"
     inkscape:window-width="1366"
     inkscape:window-height="747"
     id="namedview559"
     showgrid="false"
     inkscape:zoom="6.1333334"
     inkscape:cx="44.999999"
     inkscape:cy="44.999999"
     inkscape:window-x="0"
     inkscape:window-y="21"
     inkscape:window-maximized="1"
     inkscape:current-layer="svg2"
     fit-margin-top="0"
     fit-margin-left="0"
     fit-margin-right="0"
     fit-margin-bottom="0"
     inkscape:showpageshadow="false" />
  <defs
     id="defs4">/&gt;
<clipPath
   id="clipPath3595-2"
   clipPathUnits="userSpaceOnUse">
  <path
     id="path3597-7"
     d="m -307.2,283.5 155.55,2.0795 c 0,0 33.688,19.132 4.5749,29.945 -29.1131,10.813 -36.184,13.725 -36.184,13.725 l 1.6636,12.893 43.254,-19.963 44.086,63.633 -18.716,74.863 -34.52,34.52 c 0,0 -21.211,15.388 -21.211,7.9022 l 0,-7.4863 -51.572,0.4159 -74.447,-4.9908 -17.468,-71.951 z"
     inkscape:connector-curvature="0"
     style="fill:#333333;fill-rule:evenodd" />
</clipPath>
</defs>
  <metadata
     id="metadata7">
    <rdf:RDF>
      <cc:Work
         rdf:about="">
        <dc:format>image/svg+xml</dc:format>
        <dc:type
           rdf:resource="http://purl.org/dc/dcmitype/StillImage" />
        <dc:title></dc:title>
      </cc:Work>
    </rdf:RDF>
  </metadata>
  <g
     id="layer2"
     transform="matrix(0.34655416,0,0,0.34681917,71.085221,213.79704)">
    <g
       id="g5429">
      <g
         id="g545"
         style="fill:#132257">
        <g
           id="g547"
           style="fill-rule:evenodd;stroke:#000000;stroke-width:0.59716189;stroke-opacity:0.94118">
          <path
             id="path4607"
             d="m -108.54,-579.59 c 5.982,-2.7686 16.994,-4.9648 22.395,0.1882 10.638,10.148 -3.8753,30.764 2.4466,44.038 3.571,7.4976 10.157,17.308 18.443,16.749 10.487,-0.70719 2.1811,-18.461 22.772,-27.1 l 3.3875,6.2105 c -3.6538,1.7049 -5.3154,3.1252 -5.4577,4.3285 0.68087,1.6582 3.3898,0.78131 6.0223,0 l 1.882,18.443 c -19.966,0.29405 -39.668,22.494 -32.558,40.838 l -5.6459,9.7862 c 4.5794,0.92303 9.1589,0.3301 13.738,-2.2584 -2.77,5.9207 -8.6086,6.2155 -14.303,6.775 -1.9535,2.1879 -3.3304,4.8803 -1.3174,10.539 5.9595,2.3579 11.919,5.5865 17.879,12.421 -14.624,-6.7725 -29.728,-4.8949 -45.355,6.3987 -0.45649,-0.62597 -1.0533,-1.1397 -2.0702,-1.3174 1.4846,-5.2612 3.7311,-9.9128 7.716,-13.174 -0.05983,-1.4642 -1.0658,-2.7708 1.6938,-4.7049 14.01,-0.47464 24.84,-18.553 16.749,-37.075 -8.6865,-13.019 -25.43,-16.099 -31.805,-34.44 -4.3924,-19.802 13.879,-27.144 15.432,-41.968 1.2281,-11.719 -6.9073,-13.124 -12.045,-14.679 z"
             inkscape:connector-curvature="0"
             style="stroke-width:0.59716189" />
          <path
             id="path4609"
             d="m -103.24,-429.66 c 12.48,-10.657 36.937,-14.666 47.6,-3.3404 2.9766,5.6257 2.1862,16.886 0.83509,22.07 l -1.4316,0 c -0.12987,-4.5122 -1.0098,-6.44 -3.579,-7.158 -3.1445,-0.87866 -6.5392,-2.4621 -9.9018,-2.1474 -4.2617,0.39888 -6.3436,3.2407 -7.6352,5.4878 -9.0327,-2.511 -17.608,-6.1656 -26.007,-10.26 0.5541,-1.208 0.51833,-2.8092 0.11929,-4.6527 z"
             inkscape:connector-curvature="0"
             style="stroke-width:0.59716189" />
          <path
             id="path4611"
             d="m -106.82,-420.47 c 1.1505,-0.4402 1.9911,-1.1902 2.5053,-2.2667 9.0767,4.0164 17.765,7.5148 25.888,10.26 -0.14854,2.8199 0.36833,6.5736 2.0281,7.6352 3.469,2.2187 9.4833,3.9548 13.958,2.7439 2.6147,-0.70761 4.0249,-2.2329 5.2492,-6.2036 l 1.4316,0 c -5.3572,11.765 -16.656,17.36 -23.741,17.06 -16.883,-0.71579 -23.672,-13.494 -27.32,-29.228 z"
             inkscape:connector-curvature="0"
             style="stroke-width:0.59716189" />
          <path
             id="path4613"
             d="m -110.52,-421.07 c 0.36254,0.52033 0.86209,0.84656 1.4316,1.0737 1.1322,6.1466 3.1309,19.346 20.162,29.109 -9.7659,-1.237 -23.484,-13.939 -24.098,-22.786 -0.21544,-3.1017 0.92484,-5.9116 2.5053,-7.3966 z"
             inkscape:connector-curvature="0"
             style="stroke-width:0.59716189" />
          <path
             id="path4615"
             d="m -102.64,-444.85 c -2.8458,4.0499 -5.2646,8.1201 -5.8986,12.275 -1.2409,0.52484 -1.8449,1.5957 -2.3514,2.75 -0.50576,-0.54746 -0.99431,-1.0433 -1.3949,-1.2754 1.9828,-6.1779 5.9223,-9.8236 9.6449,-13.75 z"
             inkscape:connector-curvature="0"
             style="stroke-width:0.59716189" />
          <path
             id="path4617"
             d="m -113.13,-428.79 c 0.30929,0.43522 0.41009,0.80095 1.3152,1.4348 -0.20061,1.1478 -0.47743,2.2739 0.0399,3.6268 -1.2405,1.3827 -1.7508,2.8566 -2.1522,4.3442 0.13119,-2.8762 -0.22015,-5.3482 0.79705,-9.4058 z"
             inkscape:connector-curvature="0"
             style="stroke-width:0.59716189" />
        </g>
        <ellipse
           id="path4619"
           rx="2.4530001"
           transform="matrix(0.97847,0.20637,-0.15952,0.98719,0,0)"
           ry="4.5036998"
           cy="-395.78"
           cx="-174.38" />
        <path
           id="path4621"
           d="m -75.025,-414.01 3.9456,1.0761 c 0.15449,-1.2485 0.43865,-2.9807 1.5145,-2.8696 1.1962,0.12353 1.1582,0.97402 0.99637,3.4674 l 1.2355,0.27899 c 0.33671,-1.1778 0.09871,-3.2496 1.4348,-3.1087 1.2562,0.13243 1.0705,1.3825 0.95653,3.6667 l 1.1956,0.0399 c 0.30419,-1.0599 0.09967,-3.0602 1.3949,-2.8696 1.2455,0.18331 0.98023,2.126 1.116,3.4674 l 2.6703,0 c 0.19642,-1.9735 -0.69642,-3.7357 -2.1123,-4.942 -0.75868,-0.64637 -6.535,-2.26 -9.3659,-1.8732 -2.0982,0.28667 -3.7782,1.8695 -4.9819,3.6666 z"
           inkscape:connector-curvature="0"
           style="fill-rule:evenodd;stroke:#000000;stroke-width:0.59716189;stroke-opacity:0.94118" />
        <path
           id="path4625"
           d="m -75.981,-411.77 4.3044,1.2355 c -0.28186,1.1009 -0.4324,2.4288 0.4384,2.7102 0.92965,0.30037 1.6042,-1.0002 2.0725,-2.0725 l 1.3152,0.19928 c -0.42168,1.023 -0.74066,2.7643 0.23914,3.0688 1.0283,0.31964 1.6193,-0.88111 2.0326,-2.5109 l 1.1558,0.11957 c -0.58485,1.6521 -0.2981,2.5079 0.31884,2.7101 0.38065,0.12476 1.4614,-0.23261 2.192,-2.2717 l 2.471,0.27899 c -1.2621,2.2035 -2.0357,3.4501 -3.7862,3.7464 -3.1974,0.5412 -7.3125,0.005 -10.482,-1.5543 -2.0739,-1.0202 -2.1629,-4.1913 -2.2717,-5.6594 z"
           inkscape:connector-curvature="0"
           style="fill-rule:evenodd;stroke:#000000;stroke-width:0.59716189;stroke-opacity:0.94118" />
      </g>
      <path
         id="path4627"
         d="m -98.028,-580.72 c 0.64,2.7891 2.022,3.4757 3.9924,2.4953 2.7616,2.3781 2.6171,6.993 -0.74858,7.8185 0.96466,3.3573 1.31,7.9685 -0.33271,11.395 -2.3314,4.863 -2.785,8.8637 -1.1645,11.811 1.7549,3.1916 4.8543,4.7739 9.3989,5.5728 -1.7178,-15.067 4.4329,-24.109 1.9559,-30.692 -2.477,-6.5829 -8.6084,-7.9933 -13.101,-8.4008 z"
         inkscape:connector-curvature="0"
         style="fill:#ffffff;fill-rule:evenodd" />
    </g>
  </g>
  <circle
     style="opacity:1;fill:none;fill-opacity:1;stroke:#000000;stroke-width:0.74999523;stroke-linecap:round;stroke-linejoin:round;stroke-miterlimit:4;stroke-dasharray:none;stroke-opacity:0.94117647"
     id="path3889"
     cx="44.999298"
     cy="44.999714"
     r="43.624725" />
</svg>
