<?xml version="1.0" encoding="UTF-8" standalone="no"?>
<!-- Created with Inkscape (http://www.inkscape.org/) -->

<svg
   xmlns:dc="http://purl.org/dc/elements/1.1/"
   xmlns:cc="http://creativecommons.org/ns#"
   xmlns:rdf="http://www.w3.org/1999/02/22-rdf-syntax-ns#"
   xmlns:svg="http://www.w3.org/2000/svg"
   xmlns="http://www.w3.org/2000/svg"
   xmlns:sodipodi="http://sodipodi.sourceforge.net/DTD/sodipodi-0.dtd"
   xmlns:inkscape="http://www.inkscape.org/namespaces/inkscape"
   id="svg2"
   viewBox="0 0 90.003208 89.998092"
   height="90"
   width="90"
   version="1.1"
   inkscape:version="0.91 r13725"
   sodipodi:docname="watford.svg">
  <sodipodi:namedview
     pagecolor="#ffffff"
     bordercolor="#666666"
     borderopacity="1"
     objecttolerance="10"
     gridtolerance="10"
     guidetolerance="10"
     inkscape:pageopacity="0"
     inkscape:pageshadow="2"
     inkscape:window-width="1366"
     inkscape:window-height="747"
     id="namedview534"
     showgrid="false"
     inkscape:showpageshadow="false"
     fit-margin-top="0"
     fit-margin-left="0"
     fit-margin-right="0"
     fit-margin-bottom="0"
     units="px"
     inkscape:zoom="4.8712432"
     inkscape:cx="61.280314"
     inkscape:cy="48.447591"
     inkscape:window-x="0"
     inkscape:window-y="21"
     inkscape:window-maximized="1"
     inkscape:current-layer="svg2" />
  <defs
     id="defs4">/&gt;
  <clipPath
   id="clipPath3595-2"
   clipPathUnits="userSpaceOnUse">
  <path
     id="path3597-7"
     d="m -307.2,283.5 155.55,2.0795 c 0,0 33.688,19.132 4.5749,29.945 -29.1131,10.813 -36.184,13.725 -36.184,13.725 l 1.6636,12.893 43.254,-19.963 44.086,63.633 -18.716,74.863 -34.52,34.52 c 0,0 -21.211,15.388 -21.211,7.9022 l 0,-7.4863 -51.572,0.4159 -74.447,-4.9908 -17.468,-71.951 z"
     inkscape:connector-curvature="0"
     style="fill:#333333;fill-rule:evenodd" />
</clipPath>
</defs>
  <metadata
     id="metadata7">
    <rdf:RDF>
      <cc:Work
         rdf:about="">
        <dc:format>image/svg+xml</dc:format>
        <dc:type
           rdf:resource="http://purl.org/dc/dcmitype/StillImage" />
        <dc:title></dc:title>
      </cc:Work>
    </rdf:RDF>
  </metadata>
  <g
     id="layer3"
     transform="matrix(0.15587533,0,0,0.15587533,-25.96854,-27.191182)">
    <g
       id="g5018">
      <g
         id="g4724"
         transform="translate(0,-260)">
        <g
           id="g4720"
           transform="translate(0,680)"
           style="fill-rule:evenodd">
          <path
             id="path4716"
             d="m 334.61,-132.62 118.51,0 0,348.55 -187.35,-191.7 z"
             inkscape:connector-curvature="0"
             style="fill:#11210c" />
          <path
             id="path4718"
             d="m 571.62,-132.62 -118.51,0 0,348.55 187.35,-191.7 z"
             inkscape:connector-curvature="0"
             style="fill:#fbee23" />
        </g>
        <path
           id="path3914"
           d="m 331.12,545.63 247.47,0 67.967,157.72 -190.83,194.32 -191.7,-192.57 z"
           inkscape:connector-curvature="0"
           style="fill:none;stroke:#ed2127;stroke-width:14" />
      </g>
      <g
         id="g4994"
         transform="translate(419.6,420)">
        <path
           id="rect4985"
           d="m -16.225,-104.89 c -1.2461,0.0344 -2.1939,0.42239 -3.0176,1.1367 -1.1025,0.95614 -2.003,2.6165 -2.6797,5.0098 -1.3534,4.7865 -1.7822,12.349 -2.0976,22.078 -0.0327,1.0096 -0.2107,1.885 -0.99414,2.3926 -0.39172,0.25386 -0.8648,0.30921 -1.2559,0.25586 -0.39106,-0.05335 -0.73432,-0.19173 -1.0762,-0.36719 -1.3674,-0.70183 -2.8538,-2.0998 -4.5625,-3.5859 -1.7087,-1.4862 -3.5825,-3.0476 -5.3086,-3.9805 -1.7261,-0.9329 -3.1308,-1.2002 -4.2812,-0.54688 -3.4212,1.943 -4.4305,4.6109 -4.3633,8.0391 0.0672,3.4281 1.3928,7.5295 2.8828,11.645 1.49,4.115 3.1356,8.2377 3.7266,11.932 0.29548,1.847 0.32943,3.6014 -0.1211,5.2031 -0.45052,1.6017 -1.424,3.0313 -2.9726,4.0625 -1.0041,0.66863 -2.1494,0.87536 -3.2109,0.67383 -1.0616,-0.20153 -2.0337,-0.75095 -2.9727,-1.4707 -1.8779,-1.4395 -3.6809,-3.6151 -5.5605,-5.7832 -1.8796,-2.1681 -3.8261,-4.3225 -5.7734,-5.6875 -1.9474,-1.365 -3.7566,-1.9391 -5.748,-1.2578 -1.9811,0.67775 -3.1788,1.5372 -3.875,2.4844 -0.69616,0.94715 -0.9489,2.0239 -0.875,3.3574 0.14784,2.667 1.7705,6.2181 3.6914,10.043 1.9209,3.8248 4.1092,7.9441 5.2148,12.062 1.1057,4.1184 1.0909,8.3511 -1.5469,12.002 l -0.11328,0.1543 -0.16016,0.10352 c -1.3576,0.86611 -2.7668,1.1968 -4.0957,1.041 -1.3289,-0.15578 -2.541,-0.76458 -3.6465,-1.6035 -2.2109,-1.6779 -4.0886,-4.3027 -5.8476,-6.8691 -1.759,-2.5665 -3.4072,-5.0912 -4.8359,-6.4668 -0.71439,-0.6878 -1.3498,-1.0485 -1.7988,-1.1191 -0.44899,-0.07062 -0.81595,0.0112 -1.4219,0.62891 -4.7389,4.831 -5.243,14.72 -1.9316,24.717 3.3114,9.9973 10.334,19.962 19.865,24.918 8.2348,4.2822 18.261,4.2853 28.393,3.541 10.132,-0.74431 20.315,-2.2419 28.918,-0.60547 6.7153,1.2773 12.88,7.2648 14.428,14.098 l 0.37109,1.6348 -1.6152,-0.45117 c -7.8032,-2.1758 -14.853,-2.9337 -20.934,-1.9395 -5.4324,0.88827 -10.052,3.2417 -13.918,7.1992 2.9432,0.51066 5.3553,1.8764 7.3555,3.6797 2.4702,2.227 4.419,5.0321 6.416,7.6152 1.997,2.5831 4.031,4.9294 6.5352,6.3457 2.5042,1.4163 5.4873,1.9879 9.7226,0.92969 l 1.4863,-0.37305 -0.25781,1.5117 c -2.8167,16.413 -0.65192,26.248 3.125,34.09 3.7769,7.8422 9.294,13.733 13.16,21.994 l 0.16601,0.35156 -0.11719,0.3711 c -3.8674,12.375 -3.9124,19.279 -2.3066,23.383 1.6058,4.1042 4.8767,5.7219 8.4746,7.5547 l 0.42774,0.21875 0.0976,0.46875 c 0.84067,4.0492 2.3278,6.027 4.1309,7.1738 1.803,1.1468 4.0715,1.4648 6.5176,1.7344 a 1.0002,1.0002 0 0 1 0.11914,0.0215 1.0002,1.0002 0 0 1 0.11719,-0.0215 c 2.4461,-0.2696 4.7146,-0.58757 6.5176,-1.7344 1.803,-1.14683 3.2902,-3.1246 4.1309,-7.1738 l 0.0977,-0.46875 0.42774,-0.21875 c 3.5979,-1.8328 6.8688,-3.4505 8.4746,-7.5547 1.6058,-4.1042 1.5608,-11.007 -2.3066,-23.383 l -0.11719,-0.3711 0.16601,-0.35156 c 3.869,-8.26 9.386,-14.16 13.163,-21.998 3.777,-7.842 5.942,-17.677 3.125,-34.09 l -0.25781,-1.5117 1.4863,0.37305 c 4.2354,1.0582 7.2185,0.48665 9.7226,-0.92969 2.5042,-1.4163 4.5381,-3.7626 6.5352,-6.3457 1.997,-2.5831 3.9458,-5.3882 6.416,-7.6152 2.0002,-1.8033 4.4123,-3.169 7.3555,-3.6797 -3.867,-3.956 -8.486,-6.31 -13.918,-7.198 -6.08,-0.994 -13.131,-0.236 -20.934,1.939 l -1.6152,0.45117 0.37109,-1.6348 c 1.5476,-6.8328 7.7124,-12.82 14.428,-14.098 8.6034,-1.6364 18.786,-0.13884 28.918,0.60547 10.132,0.74431 20.158,0.74117 28.393,-3.541 9.5308,-4.9561 16.554,-14.921 19.865,-24.918 3.3114,-9.9973 2.8072,-19.886 -1.9316,-24.717 -0.60592,-0.61771 -0.97288,-0.69953 -1.4219,-0.62891 -0.44899,0.07062 -1.0844,0.43134 -1.7988,1.1191 -1.4288,1.3756 -3.0769,3.9003 -4.8359,6.4668 -1.759,2.5665 -3.6368,5.1913 -5.8476,6.8691 -1.1054,0.83894 -2.3176,1.4477 -3.6465,1.6035 -1.3289,0.15578 -2.7381,-0.1749 -4.0957,-1.041 l -0.16016,-0.10352 -0.11328,-0.1543 c -2.6377,-3.6509 -2.6525,-7.8836 -1.5469,-12.002 1.1057,-4.1184 3.2939,-8.2377 5.2148,-12.062 1.9209,-3.8248 3.5436,-7.376 3.6914,-10.043 0.0739,-1.3335 -0.17884,-2.4103 -0.875,-3.3574 -0.69616,-0.94715 -1.8939,-1.8066 -3.875,-2.4844 -1.9914,-0.68129 -3.8007,-0.10715 -5.748,1.2578 -1.9474,1.365 -3.8938,3.5194 -5.7734,5.6875 -1.8796,2.1681 -3.6826,4.3437 -5.5605,5.7832 -0.93898,0.71975 -1.9111,1.2692 -2.9727,1.4707 -1.0616,0.20153 -2.2068,-0.0052 -3.2109,-0.67383 -1.5486,-1.0312 -2.5221,-2.4608 -2.9726,-4.0625 -0.45053,-1.6017 -0.41658,-3.3562 -0.1211,-5.2031 0.59096,-3.6939 2.2365,-7.8166 3.7266,-11.932 1.49,-4.115 2.8156,-8.2164 2.8828,-11.645 0.0672,-3.4281 -0.94203,-6.0961 -4.3633,-8.0391 -1.1504,-0.65335 -2.5551,-0.38602 -4.2812,0.54688 -1.7261,0.9329 -3.5999,2.4943 -5.3086,3.9805 -1.7087,1.4862 -3.1951,2.8841 -4.5625,3.5859 -0.34185,0.17546 -0.68511,0.31384 -1.0762,0.36719 -0.39106,0.05335 -0.86414,-0.002 -1.2559,-0.25586 -0.78344,-0.50762 -0.96144,-1.383 -0.99414,-2.3926 -0.31549,-9.7293 -0.74422,-17.292 -2.0977,-22.078 -0.67671,-2.3933 -1.5772,-4.0536 -2.6797,-5.0098 -1.0982,-0.95244 -2.4157,-1.3261 -4.3691,-1.0527 -3.2326,0.58681 -5.6203,2.1796 -7.5,4.666 -1.8836,2.4915 -3.2209,5.907 -4.123,10.012 -1.8042,8.2094 -1.8631,19.119 -1.6309,30.629 0.2327,11.51 0.7464,23.629 0.01,34.389 -0.73664,10.759 -2.6849,20.197 -7.6582,26.33 a 1.0001,1.0001 0 0 1 -0.69922,0.38477 c 0.1869,2.3945 0.4036,4.6784 0.73829,6.6211 0.30008,1.742 0.69828,3.2263 1.1973,4.2812 0.49898,1.055 1.0531,1.6245 1.6562,1.8398 0.59601,0.21275 1.48,0.13181 2.666,-0.37695 1.186,-0.50876 2.6148,-1.4185 4.1914,-2.6094 3.1532,-2.3817 6.9046,-5.875 10.922,-9.4785 8.0346,-7.207 17.064,-14.999 25.51,-15.174 l 0.006,0 0.008,0 c 3.3465,-0.02342 6.0204,0.55189 7.4629,2.4434 0.72124,0.94574 1.0314,2.1786 0.93164,3.5488 -0.0998,1.3703 -0.57689,2.9052 -1.4238,4.6816 l -0.0645,0.13477 -0.0996,0.11133 c -2.0959,2.2902 -4.7035,4.6348 -6.5371,6.6445 -0.91679,1.0049 -1.6345,1.9343 -1.9844,2.6309 -0.34991,0.6966 -0.32328,0.95257 -0.18945,1.1426 0.97676,1.3868 2.4602,2.192 4.4258,2.5566 1.9656,0.36462 4.3814,0.24591 6.9727,-0.24805 5.1826,-0.98792 11.052,-3.4573 15.625,-6.0859 a 1.0001,1.0001 0 1 1 0.99609,1.7344 c -4.7421,2.7258 -10.741,5.2666 -16.248,6.3164 -2.7537,0.52492 -5.387,0.68109 -7.7109,0.25 -2.3239,-0.43109 -4.3709,-1.4926 -5.6953,-3.373 -0.69,-0.9608 -0.48,-2.1811 0.03,-3.19 0.50678,-1.0089 1.3228,-2.0146 2.2949,-3.0801 1.906,-2.0891 4.43,-4.3747 6.4082,-6.5176 0.73266,-1.5662 1.1259,-2.8739 1.1973,-3.8535 0.0735,-1.0089 -0.12942,-1.6702 -0.52539,-2.1895 -0.79114,-1.0374 -2.769,-1.6765 -5.8516,-1.6562 -7.1869,0.15244 -16.215,7.4917 -24.211,14.664 -3.999,3.5871 -7.7578,7.0967 -11.051,9.584 -1.6465,1.2437 -3.1736,2.2357 -4.6094,2.8516 -1.4357,0.61589 -2.8397,0.88263 -4.125,0.42383 -1.282,-0.457 -2.168,-1.542 -2.796,-2.87 -0.629,-1.327 -1.043,-2.956 -1.36,-4.7965 -0.634,-3.68 -0.858,-8.2184 -1.187,-12.646 -0.3291,-4.428 -0.77155,-8.749 -1.7402,-11.84 -0.48435,-1.5454 -1.1015,-2.7684 -1.8184,-3.5527 -0.71687,-0.78432 -1.4754,-1.167 -2.5547,-1.1758 l -0.12109,-0.002 -0.11524,-0.0293 c -1.0085,-0.25371 -1.6298,-0.04586 -2.3516,0.63086 -0.72172,0.67672 -1.4336,1.9139 -2.0508,3.5566 -1.2344,3.2855 -2.1247,8.1136 -3.0801,13.117 -0.9554,5.0035 -1.9826,10.191 -3.6172,14.359 -1.2717,3.243 -2.9698,5.9678 -5.3965,7.3223 a 1.0001,1.0001 0 0 1 -1.1641,0.81055 c -0.18653,-0.03232 -0.3672,-0.07527 -0.54688,-0.12109 -0.18027,0.04602 -0.36166,0.08866 -0.54883,0.12109 a 1.0001,1.0001 0 0 1 -1.165,-0.81 c -2.426,-1.355 -4.125,-4.08 -5.396,-7.323 -1.635,-4.168 -2.662,-9.3554 -3.618,-14.359 -0.95541,-5.0035 -1.8456,-9.8317 -3.0801,-13.117 -0.61722,-1.6427 -1.3291,-2.8799 -2.0508,-3.5566 -0.72172,-0.67672 -1.3431,-0.88457 -2.3516,-0.63086 l -0.11524,0.0293 -0.12109,0.002 c -1.0793,0.0088 -1.8378,0.39146 -2.5547,1.1758 -0.71687,0.78432 -1.334,2.0073 -1.8184,3.5527 -0.969,3.091 -1.4115,7.412 -1.7406,11.84 -0.3291,4.4281 -0.5535,8.9665 -1.1875,12.646 -0.3169,1.841 -0.7313,3.47 -1.3593,4.797 -0.6281,1.328 -1.5149,2.413 -2.793,2.87 -1.2853,0.458 -2.6893,0.192 -4.125,-0.424 -1.4357,-0.616 -2.9629,-1.608 -4.6094,-2.852 -3.2929,-2.487 -7.0522,-5.9967 -11.051,-9.5838 -7.995,-7.1723 -17.024,-14.511 -24.211,-14.664 -3.0825,-0.02025 -5.0604,0.61886 -5.8516,1.6562 -0.39597,0.51922 -0.59889,1.1806 -0.52539,2.1895 0.0714,0.9796 0.4646,2.2874 1.1973,3.8535 1.9785,2.1429 4.5022,4.4285 6.4082,6.5176 0.97212,1.0655 1.7881,2.0712 2.2949,3.0801 0.5068,1.0089 0.71516,2.2292 0.0371,3.1914 -1.3244,1.8804 -3.3714,2.942 -5.6953,3.373 -2.3239,0.43109 -4.9572,0.27492 -7.7109,-0.25 -5.5074,-1.0498 -11.506,-3.5906 -16.248,-6.3164 a 1.0001,1.0001 0 1 1 0.99609,-1.7344 c 4.5731,2.6286 10.442,5.098 15.625,6.0859 2.5913,0.49396 5.0071,0.61267 6.9727,0.24805 1.9656,-0.36462 3.449,-1.1698 4.4258,-2.5566 0.13383,-0.19001 0.16046,-0.44597 -0.18945,-1.1426 -0.34991,-0.6966 -1.0676,-1.626 -1.9844,-2.6309 -1.8336,-2.0097 -4.4412,-4.3543 -6.5371,-6.6445 l -0.0996,-0.11133 -0.0644,-0.13477 c -0.84693,-1.7764 -1.324,-3.3114 -1.4238,-4.6816 -0.0998,-1.3703 0.2104,-2.6031 0.93164,-3.5488 1.4425,-1.8915 4.1164,-2.4668 7.4629,-2.4434 l 0.008,0 0.008,0 c 8.4458,0.17479 17.475,7.9668 25.51,15.174 4.0173,3.6035 7.7687,7.0968 10.922,9.4785 1.5766,1.1909 3.0054,2.1006 4.1914,2.6094 1.186,0.50876 2.07,0.58971 2.666,0.37695 0.6022,-0.215 1.1564,-0.784 1.6553,-1.839 0.499,-1.055 0.8972,-2.5393 1.1973,-4.2813 0.3347,-1.9427 0.5494,-4.2266 0.7363,-6.6211 a 1.0001,1.0001 0 0 1 -0.6992,-0.3848 c -4.9733,-6.1329 -6.9216,-15.571 -7.6582,-26.33 -0.73639,-10.759 -0.2227,-22.878 0.01,-34.389 0.23224,-11.51 0.17336,-22.42 -1.6309,-30.629 -0.90211,-4.1047 -2.2395,-7.5202 -4.123,-10.012 -1.8797,-2.4865 -4.2674,-4.0792 -7.5,-4.666 -0.48835,-0.0684 -0.93618,-0.0955 -1.3516,-0.084 z"
           inkscape:connector-curvature="0"
           style="fill:#ed2127" />
        <g
           id="g4898"
           transform="translate(-420,0)">
          <g
             id="g502"
             style="fill-rule:evenodd">
            <path
               id="path4731"
               style="color:#000000;text-indent:0;text-decoration:none;text-decoration-line:none;text-decoration-style:solid;text-decoration-color:#000000;text-transform:none;block-progression:tb;white-space:normal;isolation:auto;mix-blend-mode:normal;solid-color:#000000;color-rendering:auto;image-rendering:auto;shape-rendering:auto"
               d="m 472.3,-22.625 c -1.5454,-0.35153 -3.031,0.10383 -4.1055,1.1113 -1.0989,1.0304 -1.8832,2.5201 -2.5566,4.3125 -1.3469,3.5848 -2.2186,8.453 -3.1719,13.445 -0.95327,4.9923 -1.9827,10.1 -3.5137,14.004 -1.531,3.9042 -3.4735,6.4311 -6.1367,6.8926 a 1.0001,1.0001 0 1 0 0.34179,1.9707 c 3.6888,-0.63924 6.0217,-3.9643 7.6562,-8.1328 1.6346,-4.1685 2.6618,-9.3558 3.6172,-14.359 0.95541,-5.0035 1.8456,-9.8317 3.0801,-13.117 0.61722,-1.6427 1.3291,-2.8799 2.0508,-3.5566 0.72172,-0.67672 1.3431,-0.88457 2.3516,-0.63086 l 0.11524,0.0293 0.12109,0.002 c 1.0793,0.0088 1.8378,0.39146 2.5547,1.1758 0.71687,0.78432 1.334,2.0073 1.8184,3.5527 0.96868,3.0908 1.4111,7.4118 1.7402,11.84 0.32911,4.428 0.55352,8.9664 1.1875,12.646 0.31699,1.84 0.73133,3.469 1.3594,4.7969 0.62804,1.3279 1.5148,2.4129 2.793,2.8691 1.2853,0.4588 2.6893,0.19206 4.125,-0.42383 1.4357,-0.61588 2.9629,-1.6079 4.6094,-2.8516 3.2929,-2.4873 7.0518,-5.9969 11.051,-9.584 7.9959,-7.1723 17.024,-14.512 24.211,-14.664 3.0825,-0.02025 5.0604,0.61886 5.8516,1.6562 0.39597,0.51922 0.5989,1.1806 0.52539,2.1895 -0.0714,0.9796 -0.4646,2.2874 -1.1973,3.8535 -1.9785,2.1429 -4.5022,4.4285 -6.4082,6.5176 -0.98,1.0654 -1.8,2.0711 -2.3,3.08 -0.50677,1.0089 -0.71481,2.2292 -0.0371,3.1914 1.3244,1.8804 3.3714,2.942 5.6953,3.373 2.3239,0.43109 4.9572,0.27492 7.7109,-0.25 5.5074,-1.0498 11.506,-3.5906 16.248,-6.3164 a 1.0001,1.0001 0 1 0 -0.99609,-1.7344 c -4.5731,2.6286 -10.442,5.098 -15.625,6.0859 -2.5913,0.49396 -5.0071,0.61267 -6.9727,0.24805 -1.9656,-0.36462 -3.449,-1.1698 -4.4258,-2.5566 -0.13383,-0.19001 -0.16046,-0.44597 0.18945,-1.1426 0.34991,-0.6966 1.0676,-1.626 1.9844,-2.6309 1.8336,-2.0097 4.4412,-4.3543 6.5371,-6.6445 l 0.0996,-0.11133 0.0644,-0.13477 c 0.84693,-1.7764 1.324,-3.3114 1.4238,-4.6816 0.0998,-1.3703 -0.2104,-2.6031 -0.93164,-3.5488 -1.4425,-1.8915 -4.1164,-2.4668 -7.4629,-2.4434 l -0.008,0 -0.006,0 c -8.4458,0.17479 -17.475,7.9668 -25.51,15.174 -4.0173,3.6035 -7.7687,7.0968 -10.922,9.4785 -1.5766,1.1909 -3.0054,2.1006 -4.1914,2.6094 -1.186,0.50876 -2.07,0.58971 -2.666,0.37695 -0.60315,-0.2153 -1.1573,-0.78485 -1.6562,-1.8398 -0.49898,-1.055 -0.89716,-2.5392 -1.1973,-4.2812 -0.60022,-3.484 -0.8326,-7.9952 -1.1641,-12.455 -0.33147,-4.4599 -0.75313,-8.8653 -1.8262,-12.289 -0.53652,-1.7119 -1.2342,-3.1933 -2.25,-4.3047 -0.98516,-1.0779 -2.3329,-1.744 -3.8809,-1.7969 z"
               inkscape:connector-curvature="0" />
            <path
               id="path4733"
               style="color:#000000;text-indent:0;text-decoration:none;text-decoration-line:none;text-decoration-style:solid;text-decoration-color:#000000;text-transform:none;block-progression:tb;white-space:normal;isolation:auto;mix-blend-mode:normal;solid-color:#000000;color-rendering:auto;image-rendering:auto;shape-rendering:auto"
               d="m 501.98,-106.79 -0.0176,0.002 -0.0195,0.004 c -3.714,0.66879 -6.6216,2.6078 -8.7578,5.4336 -2.1363,2.8258 -3.5399,6.5094 -4.4805,10.789 -1.8811,8.5593 -1.9106,19.557 -1.6777,31.098 0.23286,11.541 0.73894,23.618 0.0137,34.211 -0.72526,10.593 -2.7218,19.666 -7.2148,25.207 a 1.0001,1.0001 0 1 0 1.5527,1.2598 c 4.9733,-6.1329 6.9216,-15.571 7.6582,-26.33 0.73663,-10.759 0.22247,-22.878 -0.01,-34.389 -0.23224,-11.51 -0.17336,-22.42 1.6309,-30.629 0.90211,-4.1047 2.2395,-7.5202 4.123,-10.012 1.8797,-2.4865 4.2674,-4.0792 7.5,-4.666 1.9534,-0.27336 3.2709,0.1003 4.3691,1.0527 1.1025,0.95614 2.003,2.6165 2.6797,5.0098 1.3534,4.7865 1.7822,12.349 2.0977,22.078 0.0327,1.0096 0.2107,1.885 0.99414,2.3926 0.39172,0.25381 0.8648,0.30921 1.2559,0.25586 0.39106,-0.05335 0.73432,-0.19173 1.0762,-0.36719 1.3674,-0.70183 2.8538,-2.0998 4.5625,-3.5859 1.7087,-1.4862 3.5825,-3.0476 5.3086,-3.9805 1.7261,-0.9329 3.1308,-1.2002 4.2812,-0.54688 3.4212,1.943 4.4305,4.6109 4.3633,8.0391 -0.0672,3.4281 -1.3928,7.5295 -2.8828,11.645 -1.49,4.115 -3.1356,8.2377 -3.7266,11.932 -0.29548,1.847 -0.32943,3.6014 0.1211,5.2031 0.45052,1.6017 1.424,3.0313 2.9726,4.0625 1.0041,0.66865 2.1494,0.87536 3.2109,0.67383 1.0616,-0.20153 2.0337,-0.75095 2.9727,-1.4707 1.8779,-1.4395 3.6809,-3.6151 5.5605,-5.7832 1.8796,-2.1681 3.8261,-4.3225 5.7734,-5.6875 1.9474,-1.365 3.7566,-1.9391 5.748,-1.2578 1.9811,0.67775 3.1788,1.5372 3.875,2.4844 0.69616,0.94715 0.94892,2.0239 0.875,3.3574 -0.14784,2.667 -1.7705,6.2181 -3.6914,10.043 -1.9209,3.8248 -4.1092,7.9441 -5.2148,12.062 -1.1057,4.1184 -1.0909,8.3511 1.5469,12.002 l 0.11328,0.1543 0.16016,0.10352 c 1.3576,0.86611 2.7668,1.1968 4.0957,1.041 1.3289,-0.15578 2.541,-0.76458 3.6465,-1.6035 2.2109,-1.6779 4.0886,-4.3027 5.8476,-6.8691 1.759,-2.5665 3.4072,-5.0912 4.8359,-6.4668 0.71439,-0.6878 1.3498,-1.0485 1.7988,-1.1191 0.44899,-0.07062 0.81595,0.0112 1.4219,0.62891 4.7389,4.831 5.243,14.72 1.9316,24.717 -3.3114,9.9973 -10.334,19.962 -19.865,24.918 -8.2348,4.2822 -18.261,4.2853 -28.393,3.541 -10.132,-0.74431 -20.315,-2.2419 -28.918,-0.60547 -6.7153,1.2773 -12.88,7.2648 -14.428,14.098 l -0.37109,1.6348 1.6152,-0.45117 c 7.8032,-2.1758 14.853,-2.9337 20.934,-1.9395 5.4324,0.88827 10.052,3.2417 13.918,7.1992 -2.9432,0.51066 -5.3553,1.8764 -7.3555,3.6797 -2.4702,2.227 -4.419,5.0321 -6.416,7.6152 -1.997,2.5831 -4.031,4.9294 -6.5352,6.3457 -2.5042,1.4163 -5.4873,1.9879 -9.7226,0.92969 l -1.4863,-0.37305 0.25781,1.5117 c 2.8167,16.413 0.65192,26.248 -3.125,34.09 -3.7769,7.8422 -9.2935,13.733 -13.16,21.994 l -0.16601,0.35156 0.11719,0.3711 c 3.8674,12.375 3.9124,19.279 2.3066,23.383 -1.6058,4.1042 -4.8767,5.7219 -8.4746,7.5547 l -0.42774,0.21875 -0.0976,0.46875 c -0.84067,4.0492 -2.3278,6.027 -4.1309,7.1738 -1.803,1.1468 -4.0715,1.4648 -6.5176,1.7344 a 1.0002556,1.0002556 0 0 0 0.2207,1.9883 c 2.4695,-0.27218 5.0828,-0.57966 7.3711,-2.0352 2.2014,-1.4002 3.9432,-3.9018 4.8867,-8.002 3.4764,-1.7729 7.2197,-3.743 9.0312,-8.373 1.8577,-4.7482 1.6414,-11.999 -2.1465,-24.283 3.706,-7.7663 9.1081,-13.617 12.99,-21.678 3.8164,-7.9242 5.9336,-18.076 3.4434,-33.93 3.963,0.70741 7.2031,0.12149 9.8145,-1.3555 2.9164,-1.6495 5.096,-4.2287 7.1328,-6.8633 2.0368,-2.6346 3.9401,-5.3397 6.1738,-7.3535 2.2337,-2.0138 4.7352,-3.353 8.1934,-3.416 l 2.0976,-0.03711 -1.3516,-1.6055 c -4.4098,-5.2401 -10.038,-8.2195 -16.52,-9.2793 -5.9522,-0.97327 -12.644,-0.30013 -19.879,1.5312 1.9353,-5.2686 6.9516,-9.9392 12.18,-10.934 8.0904,-1.5388 18.174,-0.11637 28.398,0.63477 10.225,0.75113 20.644,0.82635 29.463,-3.7598 10.142,-5.274 17.389,-15.646 20.84,-26.064 3.4508,-10.418 3.2096,-21.025 -2.4023,-26.746 -0.91484,-0.93262 -2.0711,-1.3764 -3.1602,-1.2051 -1.089,0.17129 -2.0077,0.82122 -2.875,1.6562 -1.7346,1.6701 -3.3623,4.2406 -5.0996,6.7754 -1.7373,2.5348 -3.5768,5.0178 -5.4062,6.4062 -0.91473,0.6942 -1.8031,1.1093 -2.6699,1.2109 -0.81351,0.09536 -1.6491,-0.09266 -2.6074,-0.66016 -2.0984,-3.0272 -2.1452,-6.4093 -1.1445,-10.137 1.0196,-3.7976 3.1365,-7.8311 5.0703,-11.682 1.9338,-3.8505 3.7176,-7.4977 3.9023,-10.83 0.0924,-1.6662 -0.2589,-3.288 -1.2617,-4.6523 -1.0028,-1.3644 -2.6002,-2.4272 -4.8398,-3.1934 -2.702,-0.92438 -5.3067,-0.05572 -7.543,1.5117 -2.2362,1.5674 -4.2433,3.8336 -6.1367,6.0176 -1.8934,2.184 -3.682,4.29 -5.2656,5.5039 -0.7918,0.60694 -1.519,0.97796 -2.1289,1.0938 -0.60992,0.11578 -1.108,0.03821 -1.7285,-0.375 -1.181,-0.78643 -1.8182,-1.7357 -2.1562,-2.9375 -0.33804,-1.2018 -0.33961,-2.6746 -0.0723,-4.3457 0.53469,-3.3422 2.1296,-7.415 3.6328,-11.566 1.5032,-4.1514 2.9255,-8.3889 3.002,-12.287 0.0764,-3.8982 -1.3751,-7.5437 -5.377,-9.8164 -1.9663,-1.1167 -4.2137,-0.55826 -6.2188,0.52539 -2.0051,1.0837 -3.9431,2.7286 -5.6699,4.2305 -1.7268,1.5019 -3.2997,2.8738 -4.1621,3.3164 -0.1691,0.08679 -0.26215,0.11086 -0.33984,0.13086 0.0684,0.03844 -0.0544,-0.02843 -0.0762,-0.69922 -0.3162,-9.7511 -0.69953,-17.355 -2.1699,-22.555 -0.7352,-2.6001 -1.7499,-4.6386 -3.2949,-5.9785 -1.545,-1.3399 -3.605,-1.8572 -5.9805,-1.5195 z"
               inkscape:connector-curvature="0" />
            <path
               id="path4735"
               style="color:#000000;text-indent:0;text-decoration:none;text-decoration-line:none;text-decoration-style:solid;text-decoration-color:#000000;text-transform:none;block-progression:tb;white-space:normal;isolation:auto;mix-blend-mode:normal;solid-color:#000000;color-rendering:auto;image-rendering:auto;shape-rendering:auto"
               d="m 460.55,141.72 a 1.0001,1.0001 0 0 0 -0.86328,1.4258 l 4.5469,10.002 a 1.0001,1.0001 0 1 0 1.8203,-0.82813 l -4.5449,-10.002 a 1.0001,1.0001 0 0 0 -0.95898,-0.59766 z"
               inkscape:connector-curvature="0" />
            <path
               id="path4737"
               style="color:#000000;text-indent:0;text-decoration:none;text-decoration-line:none;text-decoration-style:solid;text-decoration-color:#000000;text-transform:none;block-progression:tb;white-space:normal;isolation:auto;mix-blend-mode:normal;solid-color:#000000;color-rendering:auto;image-rendering:auto;shape-rendering:auto"
               d="m 470.33,112.62 a 1.0001,1.0001 0 0 0 -0.99414,1.2637 l 3.9395,15.154 a 1.0001,1.0001 0 1 0 1.9355,-0.50196 l -3.9394,-15.154 a 1.0001,1.0001 0 0 0 -0.94141,-0.76172 z"
               inkscape:connector-curvature="0" />
          </g>
          <path
             id="path4739"
             d="M 480.3,71.81 C 455.477,63.7524 461.99,90.616 464.236,98.179"
             inkscape:connector-curvature="0"
             style="fill:none;stroke:#000000;stroke-width:4;stroke-linecap:round" />
          <g
             id="g509">
            <g
               id="g511"
               style="fill-rule:evenodd">
              <path
                 id="path4741"
                 style="color:#000000;text-indent:0;text-decoration:none;text-decoration-line:none;text-decoration-style:solid;text-decoration-color:#000000;text-transform:none;block-progression:tb;white-space:normal;isolation:auto;mix-blend-mode:normal;solid-color:#000000;color-rendering:auto;image-rendering:auto;shape-rendering:auto"
                 d="m 471.62,73.426 c -0.84747,0.0397 -1.6747,0.17244 -2.4785,0.40234 -3.2154,0.9196 -5.813,3.3133 -7.8281,6.6445 a 2.0002,2.0002 0 1 0 3.4219,2.0703 c 1.6759,-2.7706 3.4965,-4.2939 5.5078,-4.8691 2.0114,-0.57525 4.4543,-0.27612 7.6191,1.3672 a 2.0005,2.0005 0 1 0 1.8438,-3.5508 c -2.8188,-1.4636 -5.5435,-2.1836 -8.0859,-2.0645 z"
                 inkscape:connector-curvature="0" />
              <path
                 id="path4743"
                 style="color:#000000;text-indent:0;text-decoration:none;text-decoration-line:none;text-decoration-style:solid;text-decoration-color:#000000;text-transform:none;block-progression:tb;white-space:normal;isolation:auto;mix-blend-mode:normal;solid-color:#000000;color-rendering:auto;image-rendering:auto;shape-rendering:auto"
                 d="m 478.22,77.77 a 1.0001,1.0001 0 0 0 -0.83984,0.40625 c -2.4343,3.205 -4.5742,4.5617 -6.5566,5.043 -1.9825,0.48122 -3.9218,0.09341 -5.9902,-0.54492 a 1.0005046,1.0005046 0 1 0 -0.58984,1.9121 c 2.1849,0.67429 4.5395,1.1857 7.0508,0.57617 2.5113,-0.60957 5.0644,-2.3341 7.6797,-5.7773 a 1.0001,1.0001 0 0 0 -0.75391,-1.6152 z"
                 inkscape:connector-curvature="0" />
              <path
                 id="path4745"
                 d="m 484.55,50.897 c 5.5164,-4.3083 12.215,-5.9641 19.734,-6.9666 -7.2275,4.2515 -10.302,12.16 -16.611,12.033 6.1027,-7.057 0.7145,-5.2656 -3.1231,-5.0668 z"
                 inkscape:connector-curvature="0"
                 style="stroke:#000000;stroke-width:2;stroke-linejoin:round" />
            </g>
            <path
               id="path4747"
               d="m 475.53,77.138 a 1.722,5.5103 66.927 0 1 -4.3947,3.7437 1.722,5.5103 66.927 0 1 -5.7444,0.57528 1.722,5.5103 66.927 0 1 4.3947,-3.7437 1.722,5.5103 66.927 0 1 5.7444,-0.57529 z"
               inkscape:connector-curvature="0" />
          </g>
          <path
             id="path4780"
             d="m 471.84,78.054 a 1.25,1.25 0 0 1 -1.25,1.25 1.25,1.25 0 0 1 -1.25,-1.25 1.25,1.25 0 0 1 1.25,-1.25 1.25,1.25 0 0 1 1.25,1.25 z"
             inkscape:connector-curvature="0"
             style="fill:#ffffff" />
          <g
             id="g518"
             style="fill-rule:evenodd">
            <path
               id="path4799"
               style="color:#000000;text-indent:0;text-decoration:none;text-decoration-line:none;text-decoration-style:solid;text-decoration-color:#000000;text-transform:none;block-progression:tb;white-space:normal;isolation:auto;mix-blend-mode:normal;solid-color:#000000;color-rendering:auto;image-rendering:auto;shape-rendering:auto"
               d="m 435.11,-22.625 c 1.5454,-0.35153 3.031,0.10383 4.1055,1.1113 1.0989,1.0304 1.8832,2.5201 2.5566,4.3125 1.3469,3.5848 2.2186,8.453 3.1719,13.445 0.95327,4.9923 1.9827,10.1 3.5137,14.004 1.531,3.9042 3.4735,6.4311 6.1367,6.8926 a 1.0001,1.0001 0 1 1 -0.34179,1.9707 c -3.6888,-0.63924 -6.0217,-3.9643 -7.6562,-8.1328 -1.6346,-4.1685 -2.6618,-9.3558 -3.6172,-14.359 -0.95541,-5.0035 -1.8456,-9.8317 -3.0801,-13.117 -0.61722,-1.6427 -1.3291,-2.8799 -2.0508,-3.5566 -0.72172,-0.67672 -1.3431,-0.88457 -2.3516,-0.63086 l -0.11524,0.0293 -0.12109,0.002 c -1.0793,0.0088 -1.8378,0.39146 -2.5547,1.1758 -0.71687,0.78432 -1.334,2.0073 -1.8184,3.5527 -0.96868,3.0908 -1.4111,7.4118 -1.7402,11.84 -0.32911,4.428 -0.55352,8.9664 -1.1875,12.646 -0.31699,1.84 -0.73133,3.469 -1.3594,4.7969 -0.62804,1.3279 -1.5148,2.4129 -2.793,2.8691 -1.2853,0.4588 -2.6893,0.19206 -4.125,-0.42383 -1.4357,-0.61588 -2.9629,-1.6079 -4.6094,-2.8516 -3.2929,-2.4873 -7.0518,-5.9969 -11.051,-9.584 -7.9959,-7.1723 -17.024,-14.512 -24.211,-14.664 -3.0825,-0.02025 -5.0604,0.61886 -5.8516,1.6562 -0.39597,0.51922 -0.5989,1.1806 -0.52539,2.1895 0.0714,0.9796 0.4646,2.2874 1.1973,3.8535 1.9785,2.1429 4.5022,4.4285 6.4082,6.5176 0.97212,1.0655 1.7881,2.0711 2.2949,3.08 0.50677,1.0089 0.71481,2.2292 0.0371,3.1914 -1.3244,1.8804 -3.3714,2.942 -5.6953,3.373 -2.3239,0.43109 -4.9572,0.27492 -7.7109,-0.25 -5.5074,-1.0498 -11.506,-3.5906 -16.248,-6.3164 a 1.0001,1.0001 0 1 1 0.99609,-1.7344 c 4.5731,2.6286 10.442,5.098 15.625,6.0859 2.5913,0.49396 5.0071,0.61267 6.9727,0.24805 1.9656,-0.36462 3.449,-1.1698 4.4258,-2.5566 0.13383,-0.19001 0.16046,-0.44597 -0.18945,-1.1426 -0.34991,-0.6966 -1.0676,-1.626 -1.9844,-2.6309 -1.8336,-2.0097 -4.4412,-4.3543 -6.5371,-6.6445 l -0.0996,-0.11133 -0.0644,-0.13477 c -0.84693,-1.7764 -1.324,-3.3114 -1.4238,-4.6816 -0.0998,-1.3703 0.2104,-2.6031 0.93164,-3.5488 1.4425,-1.8915 4.1164,-2.4668 7.4629,-2.4434 l 0.008,0 0.006,0 c 8.4458,0.17479 17.475,7.9668 25.51,15.174 4.0173,3.6035 7.7687,7.0968 10.922,9.4785 1.5766,1.1909 3.0054,2.1006 4.1914,2.6094 1.186,0.50876 2.07,0.58971 2.666,0.37695 0.60315,-0.2153 1.1573,-0.78485 1.6562,-1.8398 0.49898,-1.055 0.89716,-2.5392 1.1973,-4.2812 0.60022,-3.484 0.8326,-7.9952 1.1641,-12.455 0.33147,-4.4599 0.75313,-8.8653 1.8262,-12.289 0.53652,-1.7119 1.2342,-3.1933 2.25,-4.3047 0.98516,-1.0779 2.3329,-1.744 3.8809,-1.7969 z"
               inkscape:connector-curvature="0" />
            <path
               id="path4801"
               style="color:#000000;text-indent:0;text-decoration:none;text-decoration-line:none;text-decoration-style:solid;text-decoration-color:#000000;text-transform:none;block-progression:tb;white-space:normal;isolation:auto;mix-blend-mode:normal;solid-color:#000000;color-rendering:auto;image-rendering:auto;shape-rendering:auto"
               d="m 405.43,-106.79 0.0176,0.002 0.0195,0.004 c 3.714,0.66879 6.6216,2.6078 8.7578,5.4336 2.1363,2.8258 3.5399,6.5094 4.4805,10.789 1.8811,8.5593 1.9106,19.557 1.6777,31.098 -0.23286,11.541 -0.73894,23.618 -0.0137,34.211 0.72526,10.593 2.7218,19.666 7.2148,25.207 a 1.0001,1.0001 0 1 1 -1.5527,1.2598 c -4.9733,-6.1329 -6.9216,-15.571 -7.6582,-26.33 -0.73663,-10.759 -0.22247,-22.878 0.01,-34.389 0.23224,-11.51 0.17336,-22.42 -1.6309,-30.629 -0.90211,-4.1047 -2.2395,-7.5202 -4.123,-10.012 -1.8797,-2.4865 -4.2674,-4.0792 -7.5,-4.666 -1.9534,-0.27336 -3.2709,0.1003 -4.3691,1.0527 -1.1025,0.95614 -2.003,2.6165 -2.6797,5.0098 -1.3534,4.7865 -1.7822,12.349 -2.0977,22.078 -0.0327,1.0096 -0.2107,1.885 -0.99414,2.3926 -0.39172,0.25381 -0.8648,0.30921 -1.2559,0.25586 -0.39106,-0.05335 -0.73432,-0.19173 -1.0762,-0.36719 -1.3674,-0.70183 -2.8538,-2.0998 -4.5625,-3.5859 -1.7087,-1.4862 -3.5825,-3.0476 -5.3086,-3.9805 -1.7261,-0.9329 -3.1308,-1.2002 -4.2812,-0.54688 -3.4212,1.943 -4.4305,4.6109 -4.3633,8.0391 0.0672,3.4281 1.3928,7.5295 2.8828,11.645 1.49,4.115 3.1356,8.2377 3.7266,11.932 0.29548,1.847 0.32943,3.6014 -0.1211,5.2031 -0.45052,1.6017 -1.424,3.0313 -2.9726,4.0625 -1.0041,0.66865 -2.1494,0.87536 -3.2109,0.67383 -1.0616,-0.20153 -2.0337,-0.75095 -2.9727,-1.4707 -1.8779,-1.4395 -3.6809,-3.6151 -5.5605,-5.7832 -1.8796,-2.1681 -3.8261,-4.3225 -5.7734,-5.6875 -1.9474,-1.365 -3.7566,-1.9391 -5.748,-1.2578 -1.9811,0.67775 -3.1788,1.5372 -3.875,2.4844 -0.69616,0.94715 -0.94892,2.0239 -0.875,3.3574 0.14784,2.667 1.7705,6.2181 3.6914,10.043 1.9209,3.8248 4.1092,7.9441 5.2148,12.062 1.1057,4.1184 1.0909,8.3511 -1.5469,12.002 l -0.11328,0.1543 -0.16016,0.10352 c -1.3576,0.86611 -2.7668,1.1968 -4.0957,1.041 -1.3289,-0.15578 -2.541,-0.76458 -3.6465,-1.6035 -2.2109,-1.6779 -4.0886,-4.3027 -5.8476,-6.8691 -1.759,-2.5665 -3.4072,-5.0912 -4.8359,-6.4668 -0.71439,-0.6878 -1.3498,-1.0485 -1.7988,-1.1191 -0.44899,-0.07062 -0.81595,0.0112 -1.4219,0.62891 -4.7389,4.831 -5.243,14.72 -1.9316,24.717 3.3114,9.9973 10.334,19.962 19.865,24.918 8.2348,4.2822 18.261,4.2853 28.393,3.541 10.132,-0.74431 20.315,-2.2419 28.918,-0.60547 6.7153,1.2773 12.88,7.2648 14.428,14.098 l 0.37109,1.6348 -1.6152,-0.45117 c -7.8032,-2.1758 -14.853,-2.9337 -20.934,-1.9395 -5.4324,0.88827 -10.052,3.2417 -13.918,7.1992 2.9432,0.51066 5.3553,1.8764 7.3555,3.6797 2.4702,2.227 4.419,5.0321 6.416,7.6152 1.997,2.5831 4.031,4.9294 6.5352,6.3457 2.5042,1.4163 5.4873,1.9879 9.7226,0.92969 l 1.4863,-0.37305 -0.25781,1.5117 c -2.8167,16.413 -0.65192,26.248 3.125,34.09 3.7769,7.8422 9.2935,13.733 13.16,21.994 l 0.16601,0.35156 -0.11719,0.3711 c -3.8674,12.375 -3.9124,19.279 -2.3066,23.383 1.6058,4.1042 4.8767,5.7219 8.4746,7.5547 l 0.42774,0.21875 0.0976,0.46875 c 0.84067,4.0492 2.3278,6.027 4.1309,7.1738 1.803,1.1468 4.0715,1.4648 6.5176,1.7344 a 1.0002556,1.0002556 0 0 1 -0.2207,1.9883 c -2.4695,-0.27218 -5.0828,-0.57966 -7.3711,-2.0352 -2.2014,-1.4002 -3.9432,-3.9018 -4.8867,-8.002 -3.4764,-1.7729 -7.2197,-3.743 -9.0312,-8.373 -1.8577,-4.7482 -1.6414,-11.999 2.1465,-24.283 -3.706,-7.7663 -9.1081,-13.617 -12.99,-21.678 -3.8164,-7.9242 -5.9336,-18.076 -3.4434,-33.93 -3.963,0.70741 -7.2031,0.12149 -9.8145,-1.3555 -2.9164,-1.6495 -5.096,-4.2287 -7.1328,-6.8633 -2.0368,-2.6346 -3.9401,-5.3397 -6.1738,-7.3535 -2.2337,-2.0138 -4.7352,-3.353 -8.1934,-3.416 l -2.0976,-0.03711 1.3516,-1.6055 c 4.4098,-5.2401 10.038,-8.2195 16.52,-9.2793 5.9522,-0.97327 12.644,-0.30013 19.879,1.5312 -1.9353,-5.2686 -6.9516,-9.9392 -12.18,-10.934 -8.0904,-1.5388 -18.174,-0.11637 -28.398,0.63477 -10.225,0.75113 -20.644,0.82635 -29.463,-3.7598 -10.142,-5.274 -17.389,-15.646 -20.84,-26.064 -3.4508,-10.418 -3.2096,-21.025 2.4023,-26.746 0.91484,-0.93262 2.0711,-1.3764 3.1602,-1.2051 1.089,0.17129 2.0077,0.82122 2.875,1.6562 1.7346,1.6701 3.3623,4.2406 5.0996,6.7754 1.7373,2.5348 3.5768,5.0178 5.4062,6.4062 0.91473,0.6942 1.8031,1.1093 2.6699,1.2109 0.81351,0.09536 1.6491,-0.09266 2.6074,-0.66016 2.0984,-3.0272 2.1452,-6.4093 1.1445,-10.137 -1.0196,-3.7976 -3.1365,-7.8311 -5.0703,-11.682 -1.9338,-3.8505 -3.7176,-7.4977 -3.9023,-10.83 -0.0924,-1.6662 0.2589,-3.288 1.2617,-4.6523 1.0028,-1.3644 2.6002,-2.4272 4.8398,-3.1934 2.702,-0.92438 5.3067,-0.05572 7.543,1.5117 2.2362,1.5674 4.2433,3.8336 6.1367,6.0176 1.8934,2.184 3.682,4.29 5.2656,5.5039 0.7918,0.60694 1.519,0.97796 2.1289,1.0938 0.60992,0.11578 1.108,0.03821 1.7285,-0.375 1.181,-0.78643 1.8182,-1.7357 2.1562,-2.9375 0.33804,-1.2018 0.33961,-2.6746 0.0723,-4.3457 -0.53469,-3.3422 -2.1296,-7.415 -3.6328,-11.566 -1.5032,-4.1514 -2.9255,-8.3889 -3.002,-12.287 -0.0764,-3.8982 1.3751,-7.5437 5.377,-9.8164 1.9663,-1.1167 4.2137,-0.55826 6.2188,0.52539 2.0051,1.0837 3.9431,2.7286 5.6699,4.2305 1.7268,1.5019 3.2997,2.8738 4.1621,3.3164 0.1691,0.08679 0.26215,0.11086 0.33984,0.13086 -0.0684,0.03844 0.0544,-0.02843 0.0762,-0.69922 0.3162,-9.7511 0.69953,-17.355 2.1699,-22.555 0.7352,-2.6001 1.7499,-4.6386 3.2949,-5.9785 1.545,-1.3399 3.605,-1.8572 5.9805,-1.5195 z"
               inkscape:connector-curvature="0" />
            <path
               id="path4803"
               style="color:#000000;text-indent:0;text-decoration:none;text-decoration-line:none;text-decoration-style:solid;text-decoration-color:#000000;text-transform:none;block-progression:tb;white-space:normal;isolation:auto;mix-blend-mode:normal;solid-color:#000000;color-rendering:auto;image-rendering:auto;shape-rendering:auto"
               d="m 446.86,141.72 a 1.0001,1.0001 0 0 1 0.86328,1.4258 l -4.5469,10.002 a 1.0001,1.0001 0 1 1 -1.8203,-0.82813 l 4.5449,-10.002 a 1.0001,1.0001 0 0 1 0.95898,-0.59766 z"
               inkscape:connector-curvature="0" />
            <path
               id="path4805"
               style="color:#000000;text-indent:0;text-decoration:none;text-decoration-line:none;text-decoration-style:solid;text-decoration-color:#000000;text-transform:none;block-progression:tb;white-space:normal;isolation:auto;mix-blend-mode:normal;solid-color:#000000;color-rendering:auto;image-rendering:auto;shape-rendering:auto"
               d="m 437.08,112.62 a 1.0001,1.0001 0 0 1 0.99414,1.2637 l -3.9395,15.154 a 1.0001,1.0001 0 1 1 -1.9355,-0.50196 l 3.9394,-15.154 a 1.0001,1.0001 0 0 1 0.94141,-0.76172 z"
               inkscape:connector-curvature="0" />
          </g>
          <path
             id="path4807"
             d="m 427.11,71.81 c 24.823,-8.0576 18.31,18.806 16.064,26.369"
             inkscape:connector-curvature="0"
             style="fill:none;stroke:#000000;stroke-width:4;stroke-linecap:round" />
          <g
             id="g525">
            <g
               id="g527"
               style="fill-rule:evenodd">
              <path
                 id="path4809"
                 style="color:#000000;text-indent:0;text-decoration:none;text-decoration-line:none;text-decoration-style:solid;text-decoration-color:#000000;text-transform:none;block-progression:tb;white-space:normal;isolation:auto;mix-blend-mode:normal;solid-color:#000000;color-rendering:auto;image-rendering:auto;shape-rendering:auto"
                 d="m 435.79,73.426 c 0.84747,0.0397 1.6747,0.17244 2.4785,0.40234 3.2154,0.9196 5.813,3.3133 7.8281,6.6445 a 2.0002,2.0002 0 1 1 -3.4219,2.0703 c -1.6759,-2.7706 -3.4965,-4.2939 -5.5078,-4.8691 -2.0114,-0.57525 -4.4543,-0.27612 -7.6191,1.3672 a 2.0005,2.0005 0 0 1 -1.8438,-3.5508 c 2.8188,-1.4636 5.5435,-2.1836 8.0859,-2.0645 z"
                 inkscape:connector-curvature="0" />
              <path
                 id="path4812"
                 style="color:#000000;text-indent:0;text-decoration:none;text-decoration-line:none;text-decoration-style:solid;text-decoration-color:#000000;text-transform:none;block-progression:tb;white-space:normal;isolation:auto;mix-blend-mode:normal;solid-color:#000000;color-rendering:auto;image-rendering:auto;shape-rendering:auto"
                 d="m 429.19,77.77 a 1.0001,1.0001 0 0 1 0.83984,0.40625 c 2.4343,3.205 4.5742,4.5617 6.5566,5.043 1.9825,0.48122 3.9218,0.09341 5.9902,-0.54492 a 1.0005046,1.0005046 0 1 1 0.58984,1.9121 c -2.1849,0.67429 -4.5395,1.1857 -7.0508,0.57617 -2.5113,-0.60957 -5.0644,-2.3341 -7.6797,-5.7773 a 1.0001,1.0001 0 0 1 0.75391,-1.6152 z"
                 inkscape:connector-curvature="0" />
              <path
                 id="path4814"
                 d="m 422.87,50.897 c -5.5164,-4.3083 -12.215,-5.9641 -19.734,-6.9666 7.2275,4.2515 10.302,12.16 16.611,12.033 -6.1027,-7.057 -0.7145,-5.2656 3.1231,-5.0668 z"
                 inkscape:connector-curvature="0"
                 style="stroke:#000000;stroke-width:2;stroke-linejoin:round" />
            </g>
            <path
               id="path4816"
               d="m 431.88,77.138 a 5.5103,1.722 23.073 0 0 4.3947,3.7437 5.5103,1.722 23.073 0 0 5.7444,0.57528 5.5103,1.722 23.073 0 0 -4.3947,-3.7437 5.5103,1.722 23.073 0 0 -5.7444,-0.57529 z"
               inkscape:connector-curvature="0" />
          </g>
          <path
             id="circle4818"
             d="m 435.57,78.054 a 1.25,1.25 0 0 0 1.25,1.25 1.25,1.25 0 0 0 1.25,-1.25 1.25,1.25 0 0 0 -1.25,-1.25 1.25,1.25 0 0 0 -1.25,1.25 z"
             inkscape:connector-curvature="0"
             style="fill:#ffffff" />
        </g>
      </g>
    </g>
  </g>
  <circle
     style="opacity:1;fill:none;fill-opacity:1;stroke:#11210c;stroke-width:0.7500267;stroke-linecap:round;stroke-linejoin:round;stroke-miterlimit:4;stroke-dasharray:none;stroke-opacity:1"
     id="path3862"
     cx="45.001602"
     cy="44.999046"
     r="43.626556" />
</svg>
