<?xml version="1.0" encoding="UTF-8" standalone="no"?>
<!-- Created with Inkscape (http://www.inkscape.org/) -->

<svg
   xmlns:dc="http://purl.org/dc/elements/1.1/"
   xmlns:cc="http://creativecommons.org/ns#"
   xmlns:rdf="http://www.w3.org/1999/02/22-rdf-syntax-ns#"
   xmlns:svg="http://www.w3.org/2000/svg"
   xmlns="http://www.w3.org/2000/svg"
   xmlns:sodipodi="http://sodipodi.sourceforge.net/DTD/sodipodi-0.dtd"
   xmlns:inkscape="http://www.inkscape.org/namespaces/inkscape"
   id="svg2"
   viewBox="0 0 89.999953 89.999776"
   height="25.400002mm"
   width="25.400002mm"
   version="1.1"
   inkscape:version="0.91 r13725"
   sodipodi:docname="west_ham.svg">
  <sodipodi:namedview
     pagecolor="#ffffff"
     bordercolor="#666666"
     borderopacity="1"
     objecttolerance="10"
     gridtolerance="10"
     guidetolerance="10"
     inkscape:pageopacity="0"
     inkscape:pageshadow="2"
     inkscape:window-width="1366"
     inkscape:window-height="747"
     id="namedview543"
     showgrid="false"
     inkscape:zoom="6.133333"
     inkscape:cx="45.000003"
     inkscape:cy="45.000003"
     inkscape:window-x="0"
     inkscape:window-y="21"
     inkscape:window-maximized="1"
     inkscape:current-layer="svg2"
     inkscape:showpageshadow="false"
     fit-margin-top="0"
     fit-margin-left="0"
     fit-margin-right="0"
     fit-margin-bottom="0" />
  <defs
     id="defs4">/&gt;
<clipPath
   id="clipPath3595-2"
   clipPathUnits="userSpaceOnUse">
  <path
     id="path3597-7"
     d="m -307.2,283.5 155.55,2.0795 c 0,0 33.688,19.132 4.5749,29.945 -29.1131,10.813 -36.184,13.725 -36.184,13.725 l 1.6636,12.893 43.254,-19.963 44.086,63.633 -18.716,74.863 -34.52,34.52 c 0,0 -21.211,15.388 -21.211,7.9022 l 0,-7.4863 -51.572,0.4159 -74.447,-4.9908 -17.468,-71.951 z"
     inkscape:connector-curvature="0"
     style="fill:#333333;fill-rule:evenodd" />
</clipPath>
</defs>
  <metadata
     id="metadata7">
    <rdf:RDF>
      <cc:Work
         rdf:about="">
        <dc:format>image/svg+xml</dc:format>
        <dc:type
           rdf:resource="http://purl.org/dc/dcmitype/StillImage" />
        <dc:title></dc:title>
      </cc:Work>
    </rdf:RDF>
  </metadata>
  <g
     id="g4673"
     transform="matrix(0.97759104,0,0,0.97759104,1.0084015,1.0083995)">
    <g
       transform="matrix(1.8260032,0,0,1.8260032,-731.80005,-1121.7085)"
       id="layer2">
      <g
         id="g4726">
        <path
           style="fill:#f3d459;fill-rule:evenodd;stroke:#000000;stroke-width:0.10229226"
           inkscape:connector-curvature="0"
           d="m 413.02,628.89 c 0.21274,-0.6178 4.715,-4.4906 4.715,-4.4906 0.9365,0.75718 1.8752,1.5116 2.5803,2.558 -2.81,3.9014 -5.8304,5.962 -8.7419,7.8966 -0.5106,0.13751 -0.68984,-0.0195 -0.66732,-0.3559 0.76371,-1.9108 2.0345,-3.3505 2.2911,-4.0706 0.25662,-0.72019 -0.38995,-0.91971 -0.17721,-1.5375 z"
           id="path3849" />
        <path
           style="fill:#f3d459;fill-rule:evenodd;stroke:#000000;stroke-width:0.10229226"
           inkscape:connector-curvature="0"
           d="m 416.29,631.47 21.58,22.02 c 1.0466,-0.37025 1.8179,-1.0622 2.0355,-2.1429 l -21.854,-21.513 z"
           id="path3851" />
        <g
           transform="matrix(0.53091,-0.53091,0.53091,0.53091,-106.46,559.88)"
           id="g4677">
          <rect
             style="fill:#8c7b33"
             x="-557.53003"
             y="425.06"
             width="1.0911"
             height="3.4128001"
             ry="0.51492"
             transform="matrix(0,-1,1,0,0,0)"
             id="rect3855" />
          <text
             sodipodi:linespacing="125%"
             line-height="125%"
             x="425.50662"
             y="557.38928"
             font-size="1.1829px"
             xml:space="preserve"
             style="font-size:1.18289995px;line-height:125%;font-family:sans-serif;letter-spacing:0px;word-spacing:0px;fill:#f2d558"
             id="text3857"><tspan
               style="font-family:Ubuntu;fill:#f2d558"
               x="425.50662"
               y="557.38928"
               id="tspan3859">T.I.W</tspan></text>
        </g>
        <path
           style="fill:none;stroke:#a6913d;stroke-width:0.51146132"
           inkscape:connector-curvature="0"
           d="m 416.7,631.37 21.312,21.688"
           id="path4720" />
      </g>
      <g
         transform="matrix(-1,0,0,1,850.82,0)"
         id="g4735">
        <path
           style="fill:#f3d459;fill-rule:evenodd;stroke:#000000;stroke-width:0.10229226"
           inkscape:connector-curvature="0"
           d="m 413.02,628.89 c 0.21274,-0.6178 4.715,-4.4906 4.715,-4.4906 0.9365,0.75718 1.8752,1.5116 2.5803,2.558 -2.81,3.9014 -5.8304,5.962 -8.7419,7.8966 -0.5106,0.13751 -0.68984,-0.0195 -0.66732,-0.3559 0.76371,-1.9108 2.0345,-3.3505 2.2911,-4.0706 0.25662,-0.72019 -0.38995,-0.91971 -0.17721,-1.5375 z"
           id="path4738" />
        <path
           style="fill:#f3d459;fill-rule:evenodd;stroke:#000000;stroke-width:0.10229226"
           inkscape:connector-curvature="0"
           d="m 416.29,631.47 21.58,22.02 c 1.0466,-0.37025 1.8179,-1.0622 2.0355,-2.1429 l -21.854,-21.513 z"
           id="path4740" />
        <g
           transform="matrix(0.53091,-0.53091,0.53091,0.53091,-106.46,559.88)"
           id="g4742">
          <rect
             style="fill:#8c7b33"
             x="-557.53003"
             y="425.06"
             width="1.0911"
             height="3.4128001"
             transform="matrix(0,-1,1,0,0,0)"
             ry="0.51492"
             id="rect4744" />
          <text
             sodipodi:linespacing="125%"
             xml:space="preserve"
             x="425.50662"
             y="557.38928"
             font-size="1.1829px"
             line-height="125%"
             style="font-size:1.18289995px;line-height:125%;font-family:sans-serif;letter-spacing:0px;word-spacing:0px;fill:#f2d558"
             id="text4746"><tspan
               style="font-family:Ubuntu;fill:#f2d558"
               x="425.50662"
               y="557.38928"
               id="tspan4748">T.I.W</tspan></text>
        </g>
        <path
           style="fill:none;stroke:#a6913d;stroke-width:0.51146132"
           inkscape:connector-curvature="0"
           d="m 416.7,631.37 21.312,21.688"
           id="path4750" />
      </g>
    </g>
    <circle
       r="44.624973"
       cy="44.999889"
       cx="44.999977"
       id="path3871"
       style="opacity:1;fill:none;fill-opacity:1;stroke:#7a263a;stroke-width:0.76719147;stroke-linecap:round;stroke-linejoin:round;stroke-miterlimit:4;stroke-dasharray:none;stroke-opacity:1" />
  </g>
</svg>
